NerkoOne-Regular.ufo
<glyph name="exclam" format="2">
  <advance width="236"/>
  <unicode hex="0021"/>
  <outline>
    <contour>
      <point x="118" y="141" type="curve" smooth="yes"/>
      <point x="119.844" y="141.023"/>
      <point x="121.652" y="141.035"/>
      <point x="123.425" y="141.035" type="curve" smooth="yes"/>
      <point x="196.657" y="141.035"/>
      <point x="210.118" y="120.724"/>
      <point x="215" y="68" type="curve" smooth="yes"/>
      <point x="215.461" y="63.0195"/>
      <point x="215.701" y="58.3799"/>
      <point x="215.701" y="54.0596" type="curve" smooth="yes"/>
      <point x="215.701" y="11.5371"/>
      <point x="192.452" y="0"/>
      <point x="128" y="0" type="curve" smooth="yes"/>
      <point x="57" y="0"/>
      <point x="49" y="37"/>
      <point x="47" y="91" type="curve" smooth="yes"/>
      <point x="46.9648" y="91.9619"/>
      <point x="46.9473" y="92.9053"/>
      <point x="46.9473" y="93.8301" type="curve" smooth="yes"/>
      <point x="46.9473" y="138.155"/>
      <point x="87.2188" y="141.066"/>
      <point x="109.387" y="141.066" type="curve" smooth="yes"/>
      <point x="112.739" y="141.066"/>
      <point x="117.982" y="141"/>
    </contour>
    <contour>
      <point x="197" y="503.994" type="curve"/>
      <point x="203" y="225.997" type="line"/>
      <point x="203" y="225.997"/>
      <point x="203.031" y="225.721"/>
      <point x="203.031" y="225.215" type="curve" smooth="yes"/>
      <point x="203.031" y="220.034"/>
      <point x="199.709" y="190.823"/>
      <point x="125.001" y="189.001" type="curve" smooth="yes"/>
      <point x="123.454" y="188.963"/>
      <point x="121.934" y="188.944"/>
      <point x="120.438" y="188.944" type="curve" smooth="yes"/>
      <point x="43.085" y="188.944"/>
      <point x="35.0791" y="238.5"/>
      <point x="34.999" y="238.5" type="curve" smooth="yes"/>
      <point x="34.999" y="238.497" type="line"/>
      <point x="29.999" y="521.996" type="line"/>
      <point x="29.999" y="521.996"/>
      <point x="29.9697" y="522.3"/>
      <point x="29.9697" y="522.853" type="curve" smooth="yes"/>
      <point x="29.9697" y="528.436"/>
      <point x="32.918" y="559.414"/>
      <point x="98.3447" y="559.414" type="curve" smooth="yes"/>
      <point x="102.624" y="559.414"/>
      <point x="107.171" y="559.281"/>
      <point x="112.002" y="559" type="curve" smooth="yes"/>
      <point x="196.008" y="554.116"/>
      <point x="197.001" y="506.295"/>
      <point x="197.001" y="504.074" type="curve" smooth="yes"/>
      <point x="197.001" y="504.021"/>
      <point x="197" y="503.994"/>
    </contour>
    <contour>
      <point x="197.001" y="503.995" type="move" smooth="yes"/>
    </contour>
  </outline>
</glyph>
<glyph name="dollar" format="2">
  <advance width="447"/>
  <unicode hex="0024"/>
  <outline>
    <contour>
      <point x="239" y="228" type="line"/>
      <point x="246" y="223"/>
      <point x="257" y="224"/>
      <point x="257" y="171" type="curve" smooth="yes"/>
      <point x="257" y="118"/>
      <point x="239" y="102"/>
      <point x="239" y="102" type="curve"/>
    </contour>
    <contour>
      <point x="208" y="441" type="curve"/>
      <point x="208" y="325" type="line"/>
      <point x="208" y="325"/>
      <point x="190" y="329"/>
      <point x="190" y="381" type="curve" smooth="yes"/>
      <point x="190" y="385" type="line" smooth="yes"/>
      <point x="191" y="425"/>
      <point x="198" y="432"/>
    </contour>
    <contour>
      <point x="208" y="0" type="curve" smooth="yes"/>
      <point x="210" y="0"/>
      <point x="209" y="-15.999"/>
      <point x="209" y="-15.999" type="curve"/>
      <point x="209" y="-15.999"/>
      <point x="206" y="-24.999"/>
      <point x="222" y="-24.999" type="curve" smooth="yes"/>
      <point x="238" y="-24.999"/>
      <point x="240" y="-23.999"/>
      <point x="240" y="-11.999" type="curve" smooth="yes"/>
      <point x="240" y="0.000976562" type="line"/>
      <point x="243" y="0.000976562" type="line" smooth="yes"/>
      <point x="266" y="0.000976562"/>
      <point x="424" y="6.00098"/>
      <point x="425" y="168.001" type="curve" smooth="yes"/>
      <point x="425" y="169.001" type="line" smooth="yes"/>
      <point x="425" y="308.001"/>
      <point x="308" y="322.001"/>
      <point x="260" y="322.001" type="curve" smooth="yes"/>
      <point x="248" y="322.001"/>
      <point x="240" y="321.001"/>
      <point x="240" y="321.001" type="curve" smooth="yes"/>
      <point x="239" y="321.001"/>
      <point x="239" y="450.001"/>
      <point x="239" y="450.001" type="curve"/>
      <point x="239" y="450.001"/>
      <point x="251" y="444.001"/>
      <point x="252" y="425.001" type="curve" smooth="yes"/>
      <point x="253" y="406.001"/>
      <point x="251" y="352.001"/>
      <point x="344" y="352.001" type="curve" smooth="yes"/>
      <point x="351" y="352.001" type="line" smooth="yes"/>
      <point x="371" y="352.001"/>
      <point x="423" y="358.001"/>
      <point x="423" y="419.001" type="curve" smooth="yes"/>
      <point x="423" y="424.001"/>
      <point x="423" y="428.001"/>
      <point x="422" y="433.001" type="curve" smooth="yes"/>
      <point x="412" y="524.001"/>
      <point x="282" y="550.001"/>
      <point x="239" y="550.001" type="curve"/>
      <point x="239" y="572.001" type="line"/>
      <point x="239" y="572.001"/>
      <point x="242" y="584.001"/>
      <point x="225" y="584.001" type="curve" smooth="yes"/>
      <point x="208" y="584.001"/>
      <point x="208" y="580.001"/>
      <point x="208" y="572.001" type="curve" smooth="yes"/>
      <point x="208" y="549.001" type="line"/>
      <point x="208" y="549.001"/>
      <point x="24" y="549.001"/>
      <point x="22" y="394.001" type="curve" smooth="yes"/>
      <point x="21.9893" y="393.181"/>
      <point x="21.9844" y="392.364"/>
      <point x="21.9844" y="391.553" type="curve" smooth="yes"/>
      <point x="21.9844" y="238.906"/>
      <point x="208" y="230.001"/>
      <point x="208" y="230.001" type="curve"/>
      <point x="208" y="230.023" type="line"/>
      <point x="208" y="98.001" type="line"/>
      <point x="208" y="98.001"/>
      <point x="196.94" y="109.981"/>
      <point x="196.94" y="133.943" type="curve" smooth="yes"/>
      <point x="196.94" y="134.941"/>
      <point x="196.96" y="135.961"/>
      <point x="197" y="137.001" type="curve" smooth="yes"/>
      <point x="197.058" y="138.504"/>
      <point x="197.092" y="140.07"/>
      <point x="197.092" y="141.688" type="curve" smooth="yes"/>
      <point x="197.092" y="168.054"/>
      <point x="187.952" y="208.001"/>
      <point x="121.999" y="208.001" type="curve" smooth="yes"/>
      <point x="53.3359" y="208.001"/>
      <point x="27.9707" y="190.682"/>
      <point x="27.9707" y="127.729" type="curve" smooth="yes"/>
      <point x="27.9707" y="126.504"/>
      <point x="27.9805" y="125.261"/>
      <point x="28" y="124" type="curve" smooth="yes"/>
      <point x="29" y="58"/>
      <point x="90" y="0"/>
    </contour>
  </outline>
</glyph>
<glyph name="percent" format="2">
  <advance width="459"/>
  <unicode hex="0025"/>
  <outline>
    <contour>
      <point x="209" y="484" type="curve" smooth="yes"/>
      <point x="209" y="436"/>
      <point x="165" y="415.001"/>
      <point x="119" y="413.001" type="curve" smooth="yes"/>
      <point x="84" y="413.001"/>
      <point x="60" y="426.001"/>
      <point x="42" y="444.001" type="curve" smooth="yes"/>
      <point x="33" y="453.001"/>
      <point x="27.8301" y="468.866"/>
      <point x="27.8301" y="484.897" type="curve" smooth="yes"/>
      <point x="27.8301" y="497.292"/>
      <point x="31.0166" y="509.689"/>
      <point x="38.001" y="519.003" type="curve" smooth="yes"/>
      <point x="55.7373" y="541.168"/>
      <point x="88.6514" y="554.125"/>
      <point x="121.373" y="554.125" type="curve" smooth="yes"/>
      <point x="147.231" y="554.125"/>
      <point x="172.97" y="546.033"/>
      <point x="191.002" y="528.001" type="curve" smooth="yes"/>
      <point x="199.259" y="517.683"/>
      <point x="209.237" y="506.895"/>
      <point x="209.237" y="488.901" type="curve" smooth="yes"/>
      <point x="209.237" y="487.324"/>
      <point x="209" y="486"/>
    </contour>
    <contour>
      <point x="130.998" y="478.504" type="curve" smooth="yes"/>
      <point x="131" y="489.506" type="line" smooth="yes"/>
      <point x="131" y="500.54"/>
      <point x="124.093" y="508.912"/>
      <point x="118" y="515.005" type="curve"/>
      <point x="110.421" y="507.426"/>
      <point x="106.232" y="495.984"/>
      <point x="106.232" y="484.264" type="curve" smooth="yes"/>
      <point x="106.232" y="474.718"/>
      <point x="109.01" y="464.986"/>
      <point x="114.996" y="457.005" type="curve" smooth="yes"/>
      <point x="115.923" y="456.078"/>
      <point x="117.997" y="455.456"/>
      <point x="117.997" y="454.006" type="curve"/>
      <point x="119.384" y="455.393"/>
      <point x="120.611" y="455.618"/>
      <point x="121.998" y="457.005" type="curve" smooth="yes"/>
      <point x="126.752" y="463.343"/>
      <point x="130.998" y="470.211"/>
    </contour>
    <contour>
      <point x="273.498" y="111.507" type="curve" smooth="yes"/>
      <point x="291.124" y="129.133"/>
      <point x="318.261" y="137.805"/>
      <point x="345.344" y="137.805" type="curve" smooth="yes"/>
      <point x="390.748" y="137.805"/>
      <point x="435.995" y="113.43"/>
      <point x="435.995" y="66.0059" type="curve" smooth="yes"/>
      <point x="435.995" y="17.4502"/>
      <point x="391.504" y="-2.01367"/>
      <point x="345.995" y="-3.99316" type="curve" smooth="yes"/>
      <point x="344.488" y="-4.06836"/>
      <point x="342.986" y="-4.10547"/>
      <point x="341.49" y="-4.10547" type="curve" smooth="yes"/>
      <point x="316.688" y="-4.10547"/>
      <point x="293.449" y="5.96973"/>
      <point x="277.996" y="17.0059" type="curve" smooth="yes"/>
      <point x="264.017" y="29.5869"/>
      <point x="255.627" y="48.6768"/>
      <point x="255.627" y="67.9258" type="curve" smooth="yes"/>
      <point x="255.627" y="83.4619"/>
      <point x="261.093" y="99.1016"/>
    </contour>
    <contour>
      <point x="357.994" y="60.5059" type="curve" smooth="yes"/>
      <point x="357.994" y="72.0059" type="line" smooth="yes"/>
      <point x="357.994" y="82.1748"/>
      <point x="352.233" y="90.7666"/>
      <point x="345.994" y="97.0059" type="curve"/>
      <point x="344.661" y="95.6729"/>
      <point x="343.328" y="94.6729"/>
      <point x="341.995" y="94.0059" type="curve" smooth="yes"/>
      <point x="336.398" y="86.5439"/>
      <point x="333.11" y="75.5566"/>
      <point x="333.11" y="64.8691" type="curve" smooth="yes"/>
      <point x="333.11" y="53.2637"/>
      <point x="336.987" y="42.0107"/>
      <point x="345.995" y="36.0068" type="curve"/>
      <point x="346.662" y="37.3398"/>
      <point x="347.662" y="38.3398"/>
      <point x="348.995" y="39.0068" type="curve" smooth="yes"/>
      <point x="353.749" y="45.3447"/>
      <point x="357.994" y="52.2109"/>
    </contour>
    <contour>
      <point x="340.994" y="332.006" type="curve" smooth="yes"/>
      <point x="312.991" y="280.005" type="line" smooth="yes"/>
      <point x="279.455" y="217.723"/>
      <point x="245.294" y="154.773"/>
      <point x="211.493" y="92.5039" type="curve" smooth="yes"/>
      <point x="202.732" y="76.3643"/>
      <point x="191.651" y="59.9854"/>
      <point x="183.495" y="42.5049" type="curve" smooth="yes"/>
      <point x="177.823" y="30.3496"/>
      <point x="172.981" y="19.9502"/>
      <point x="160.495" y="14.0049" type="curve" smooth="yes"/>
      <point x="143.783" y="6.04785"/>
      <point x="119.261" y="1.07129"/>
      <point x="95.4385" y="1.07129" type="curve" smooth="yes"/>
      <point x="63.5996" y="1.07129"/>
      <point x="33.0117" y="9.96094"/>
      <point x="23.9932" y="32.5068" type="curve" smooth="yes"/>
      <point x="20.4189" y="41.4424"/>
      <point x="28.4971" y="55.2617"/>
      <point x="32.9932" y="62.0068" type="curve" smooth="yes"/>
      <point x="61.2695" y="113.573"/>
      <point x="88.8799" y="162.04"/>
      <point x="115.993" y="214.006" type="curve" smooth="yes"/>
      <point x="143.993" y="266.006" type="line" smooth="yes"/>
      <point x="161.914" y="299.288"/>
      <point x="182.245" y="333.699"/>
      <point x="199.492" y="367.505" type="curve" smooth="yes"/>
      <point x="207.825" y="383.838"/>
      <point x="216.658" y="400.338"/>
      <point x="225.991" y="417.005" type="curve" smooth="yes"/>
      <point x="265.991" y="489.005" type="line" smooth="yes"/>
      <point x="268.658" y="493.672"/>
      <point x="271.158" y="498.339"/>
      <point x="273.491" y="503.006" type="curve" smooth="yes"/>
      <point x="280.991" y="518.006" type="line" smooth="yes"/>
      <point x="287.372" y="530.77"/>
      <point x="302.771" y="535.74"/>
      <point x="316.991" y="540.006" type="curve" smooth="yes"/>
      <point x="354.956" y="550.479"/>
      <point x="399.825" y="543.92"/>
      <point x="423.991" y="527.004" type="curve" smooth="yes"/>
      <point x="432.219" y="521.128"/>
      <point x="438.245" y="509.608"/>
      <point x="430.994" y="498.006" type="curve" smooth="yes"/>
      <point x="423.994" y="484.006" type="line" smooth="yes"/>
      <point x="395.783" y="432.56"/>
      <point x="367.955" y="383.68"/>
    </contour>
  </outline>
</glyph>
<glyph name="ampersand" format="2">
  <advance width="559"/>
  <unicode hex="0026"/>
  <outline>
    <contour>
      <point x="225" y="223" type="curve" smooth="yes"/>
      <point x="228" y="224"/>
      <point x="271" y="150"/>
      <point x="271" y="150" type="curve"/>
      <point x="271" y="150"/>
      <point x="226" y="75"/>
      <point x="198" y="74" type="curve" smooth="yes"/>
      <point x="170" y="73"/>
      <point x="174" y="179"/>
    </contour>
    <contour>
      <point x="210" y="392" type="curve"/>
      <point x="178" y="438"/>
      <point x="139.509" y="522"/>
      <point x="216" y="519" type="curve" smooth="yes"/>
      <point x="296.993" y="515.823"/>
      <point x="210" y="392"/>
    </contour>
    <contour>
      <point x="117" y="312" type="curve" smooth="yes"/>
      <point x="116" y="314"/>
      <point x="21" y="213"/>
      <point x="22" y="133" type="curve" smooth="yes"/>
      <point x="23" y="53"/>
      <point x="95" y="0"/>
      <point x="200" y="0" type="curve" smooth="yes"/>
      <point x="305" y="0"/>
      <point x="366" y="53"/>
      <point x="366" y="53" type="curve"/>
      <point x="366" y="53"/>
      <point x="405" y="0"/>
      <point x="476" y="0" type="curve" smooth="yes"/>
      <point x="547" y="0"/>
      <point x="563" y="39"/>
      <point x="531" y="78" type="curve" smooth="yes"/>
      <point x="499" y="117"/>
      <point x="457" y="157"/>
      <point x="457" y="157" type="curve"/>
      <point x="514" y="260" type="line"/>
      <point x="514" y="260"/>
      <point x="556" y="326"/>
      <point x="460" y="336" type="curve" smooth="yes"/>
      <point x="364" y="346"/>
      <point x="346" y="274"/>
      <point x="346" y="274" type="curve"/>
      <point x="306" y="316" type="line"/>
      <point x="306" y="316"/>
      <point x="409" y="428"/>
      <point x="404" y="502" type="curve" smooth="yes"/>
      <point x="399" y="576"/>
      <point x="281" y="589"/>
      <point x="215" y="584" type="curve"/>
      <point x="215" y="584"/>
      <point x="38.2051" y="574.974"/>
      <point x="35" y="458" type="curve" smooth="yes"/>
      <point x="33" y="385"/>
      <point x="117" y="312"/>
    </contour>
  </outline>
</glyph>
<glyph name="parenleft" format="2">
  <advance width="347"/>
  <unicode hex="0028"/>
  <outline>
    <contour>
      <point x="296" y="506" type="curve" smooth="yes"/>
      <point x="295" y="505"/>
      <point x="167" y="461"/>
      <point x="171" y="231" type="curve" smooth="yes"/>
      <point x="175" y="1"/>
      <point x="296" y="-1"/>
      <point x="296" y="-1" type="curve"/>
      <point x="296" y="-1"/>
      <point x="332" y="3"/>
      <point x="331" y="-43" type="curve" smooth="yes"/>
      <point x="330" y="-89"/>
      <point x="254" y="-91"/>
      <point x="254" y="-91" type="curve"/>
      <point x="254" y="-91"/>
      <point x="224" y="-97"/>
      <point x="157" y="-54" type="curve" smooth="yes"/>
      <point x="90" y="-11"/>
      <point x="22" y="127"/>
      <point x="22" y="257" type="curve" smooth="yes"/>
      <point x="22" y="386"/>
      <point x="90" y="516"/>
      <point x="157" y="559" type="curve" smooth="yes"/>
      <point x="224" y="602"/>
      <point x="254" y="596"/>
      <point x="254" y="596" type="curve"/>
      <point x="254" y="596"/>
      <point x="330" y="594"/>
      <point x="331" y="548" type="curve" smooth="yes"/>
      <point x="332" y="502"/>
      <point x="296" y="506"/>
    </contour>
  </outline>
</glyph>
<glyph name="parenright" format="2">
  <advance width="354"/>
  <unicode hex="0029"/>
  <outline>
    <contour>
      <point x="63" y="505" type="curve" smooth="yes"/>
      <point x="64" y="504"/>
      <point x="192" y="460"/>
      <point x="188" y="230" type="curve" smooth="yes"/>
      <point x="184" y="0"/>
      <point x="63" y="-2"/>
      <point x="63" y="-2" type="curve"/>
      <point x="63" y="-2"/>
      <point x="27" y="2"/>
      <point x="28" y="-44" type="curve" smooth="yes"/>
      <point x="29" y="-90"/>
      <point x="105" y="-92"/>
      <point x="105" y="-92" type="curve"/>
      <point x="105" y="-92"/>
      <point x="135" y="-98"/>
      <point x="202" y="-55" type="curve" smooth="yes"/>
      <point x="269" y="-12"/>
      <point x="337" y="126"/>
      <point x="337" y="256" type="curve" smooth="yes"/>
      <point x="337" y="385"/>
      <point x="269" y="515"/>
      <point x="202" y="558" type="curve" smooth="yes"/>
      <point x="135" y="601"/>
      <point x="105" y="595"/>
      <point x="105" y="595" type="curve"/>
      <point x="105" y="595"/>
      <point x="29" y="593"/>
      <point x="28" y="547" type="curve" smooth="yes"/>
      <point x="27" y="501"/>
      <point x="63" y="505"/>
    </contour>
  </outline>
</glyph>
<glyph name="asterisk" format="2">
  <advance width="179"/>
  <unicode hex="002A"/>
  <outline>
    <contour>
      <point x="149.001" y="823.002" type="curve" smooth="yes"/>
      <point x="161.888" y="820.423"/>
      <point x="170.585" y="805.299"/>
      <point x="174.001" y="793.002" type="curve" smooth="yes"/>
      <point x="174.001" y="788.002" type="line" smooth="yes"/>
      <point x="171.581" y="775.909"/>
      <point x="159.878" y="770.236"/>
      <point x="153.002" y="762.502" type="curve" smooth="yes"/>
      <point x="150.987" y="760.235"/>
      <point x="143.658" y="753.689"/>
      <point x="145.003" y="751.002" type="curve" smooth="yes"/>
      <point x="156.003" y="733.002" type="line" smooth="yes"/>
      <point x="159.117" y="728.641"/>
      <point x="170.019" y="701.425"/>
      <point x="154.001" y="706" type="curve" smooth="yes"/>
      <point x="139.118" y="710.963"/>
      <point x="133.953" y="723.069"/>
      <point x="126" y="734.999" type="curve"/>
      <point x="115.688" y="726.746"/>
      <point x="106.205" y="718.467"/>
      <point x="95.0039" y="710.999" type="curve" smooth="yes"/>
      <point x="90.334" y="706.329"/>
      <point x="82.8262" y="703.176"/>
      <point x="77.0039" y="708.998" type="curve" smooth="yes"/>
      <point x="68.3369" y="714.998"/>
      <point x="62.3369" y="723.665"/>
      <point x="59.0039" y="734.998" type="curve" smooth="yes"/>
      <point x="57.7637" y="736.238"/>
      <point x="59.0029" y="740.514"/>
      <point x="59.0029" y="742" type="curve" smooth="yes"/>
      <point x="60.7695" y="749.065"/>
      <point x="69.3291" y="752.326"/>
      <point x="74.0029" y="757" type="curve" smooth="yes"/>
      <point x="84.0029" y="765" type="line" smooth="yes"/>
      <point x="86.333" y="766.864"/>
      <point x="92.082" y="774.001"/>
      <point x="94.5029" y="774.001" type="curve" smooth="yes"/>
      <point x="95.0029" y="774.001" type="line"/>
      <point x="85.7178" y="783.286"/>
      <point x="80.2627" y="791.216"/>
      <point x="76.001" y="804" type="curve" smooth="yes"/>
      <point x="75.334" y="806"/>
      <point x="75.667" y="808"/>
      <point x="77" y="810" type="curve" smooth="yes"/>
      <point x="78.1016" y="818.807"/>
      <point x="90.4434" y="817.111"/>
      <point x="93" y="812.001" type="curve" smooth="yes"/>
      <point x="101.665" y="807.67"/>
      <point x="107.462" y="799.54"/>
      <point x="114.001" y="793.001" type="curve"/>
      <point x="115.001" y="793.001" type="line"/>
      <point x="123.637" y="801.637"/>
      <point x="131.453" y="810.454"/>
      <point x="140.001" y="819.002" type="curve" smooth="yes"/>
      <point x="140.001" y="819.669"/>
      <point x="140.168" y="820.002"/>
      <point x="140.501" y="820.002" type="curve" smooth="yes"/>
      <point x="141.001" y="820.002" type="line" smooth="yes"/>
      <point x="143.001" y="822.002"/>
      <point x="145.668" y="823.002"/>
    </contour>
  </outline>
</glyph>
<glyph name="plus" format="2">
  <advance width="563"/>
  <unicode hex="002B"/>
  <outline>
    <contour>
      <point x="190" y="268" type="curve"/>
      <point x="166" y="384" type="line"/>
      <point x="166" y="384"/>
      <point x="149" y="434"/>
      <point x="236" y="441" type="curve" smooth="yes"/>
      <point x="323" y="448"/>
      <point x="334" y="394"/>
      <point x="334" y="393" type="curve" smooth="yes"/>
      <point x="334" y="392"/>
      <point x="359" y="273"/>
      <point x="359" y="273" type="curve"/>
      <point x="470" y="268" type="line"/>
      <point x="470" y="268"/>
      <point x="548" y="270"/>
      <point x="548" y="228" type="curve" smooth="yes"/>
      <point x="548" y="186"/>
      <point x="483" y="189"/>
      <point x="483" y="189" type="curve"/>
      <point x="373" y="189" type="line" smooth="yes"/>
      <point x="372" y="189"/>
      <point x="380" y="51"/>
      <point x="380" y="51" type="curve"/>
      <point x="380" y="51"/>
      <point x="383" y="-1"/>
      <point x="309" y="-1" type="curve" smooth="yes"/>
      <point x="235" y="-1"/>
      <point x="218" y="24"/>
      <point x="216" y="43" type="curve" smooth="yes"/>
      <point x="214" y="62"/>
      <point x="204" y="183"/>
      <point x="204" y="183" type="curve"/>
      <point x="71" y="179" type="line"/>
      <point x="71" y="179"/>
      <point x="12" y="179"/>
      <point x="12" y="214" type="curve" smooth="yes"/>
      <point x="12" y="249"/>
      <point x="63" y="255"/>
      <point x="65" y="255" type="curve" smooth="yes"/>
      <point x="67" y="255"/>
      <point x="141" y="263"/>
    </contour>
  </outline>
</glyph>
<glyph name="comma" format="2">
  <advance width="257"/>
  <unicode hex="002C"/>
  <outline>
    <contour>
      <point x="92" y="-111" type="curve" smooth="yes"/>
      <point x="103.037" y="-111.433"/>
      <point x="156" y="-114"/>
      <point x="180" y="-77" type="curve" smooth="yes"/>
      <point x="207.067" y="-35.2705"/>
      <point x="235" y="26"/>
      <point x="235" y="26" type="curve"/>
      <point x="235" y="26"/>
      <point x="265" y="84"/>
      <point x="160" y="88" type="curve" smooth="yes"/>
      <point x="55" y="92"/>
      <point x="71" y="48"/>
      <point x="71" y="48" type="curve"/>
      <point x="71" y="48"/>
      <point x="71" y="35"/>
      <point x="65" y="24" type="curve" smooth="yes"/>
      <point x="59" y="13"/>
      <point x="22" y="-52"/>
      <point x="22" y="-52" type="curve"/>
      <point x="22" y="-52"/>
      <point x="-10" y="-107"/>
    </contour>
  </outline>
</glyph>
<glyph name="zero" format="2">
  <advance width="460"/>
  <unicode hex="0030"/>
  <outline>
    <contour>
      <point x="234" y="494" type="curve"/>
      <point x="214" y="489"/>
      <point x="186.668" y="497.206"/>
      <point x="182" y="307" type="curve" smooth="yes"/>
      <point x="178" y="144"/>
      <point x="196.064" y="95.8066"/>
      <point x="226" y="93" type="curve" smooth="yes"/>
      <point x="258" y="90"/>
      <point x="285" y="118"/>
      <point x="285" y="307" type="curve" smooth="yes"/>
      <point x="285" y="496"/>
      <point x="234" y="494"/>
    </contour>
    <contour>
      <point x="227" y="574" type="curve"/>
      <point x="227" y="574"/>
      <point x="433.896" y="588.907"/>
      <point x="443" y="327" type="curve" smooth="yes"/>
      <point x="451.691" y="76.9893"/>
      <point x="383" y="0"/>
      <point x="242" y="0" type="curve" smooth="yes"/>
      <point x="101" y="0"/>
      <point x="18" y="94"/>
      <point x="18" y="307" type="curve" smooth="yes"/>
      <point x="18" y="520"/>
      <point x="116" y="573"/>
    </contour>
  </outline>
</glyph>
<glyph name="one" format="2">
  <advance width="348"/>
  <unicode hex="0031"/>
  <outline>
    <contour>
      <point x="181" y="584" type="curve" smooth="yes"/>
      <point x="223" y="584"/>
      <point x="265" y="587"/>
      <point x="269" y="530" type="curve" smooth="yes"/>
      <point x="273" y="473"/>
      <point x="309" y="162"/>
      <point x="317" y="121" type="curve" smooth="yes"/>
      <point x="325" y="80"/>
      <point x="346" y="0"/>
      <point x="254" y="0" type="curve" smooth="yes"/>
      <point x="162" y="0"/>
      <point x="164" y="49"/>
      <point x="162" y="60" type="curve" smooth="yes"/>
      <point x="160" y="71"/>
      <point x="123" y="298"/>
      <point x="123" y="298" type="curve"/>
      <point x="123" y="298"/>
      <point x="-3" y="283"/>
      <point x="28" y="367" type="curve" smooth="yes"/>
      <point x="59" y="451"/>
      <point x="93.8564" y="584"/>
    </contour>
  </outline>
</glyph>
<glyph name="two" format="2">
  <advance width="456"/>
  <unicode hex="0032"/>
  <outline>
    <contour>
      <point x="105" y="371" type="curve" smooth="yes"/>
      <point x="97" y="370"/>
      <point x="20" y="361"/>
      <point x="23" y="449" type="curve" smooth="yes"/>
      <point x="26" y="537"/>
      <point x="98" y="587"/>
      <point x="205" y="586" type="curve" smooth="yes"/>
      <point x="312" y="585"/>
      <point x="426" y="554"/>
      <point x="427" y="432" type="curve" smooth="yes"/>
      <point x="428" y="310"/>
      <point x="238" y="115"/>
      <point x="236" y="115" type="curve" smooth="yes"/>
      <point x="234" y="115"/>
      <point x="349" y="131"/>
      <point x="349" y="131" type="curve"/>
      <point x="349" y="131"/>
      <point x="425" y="138"/>
      <point x="431" y="93" type="curve" smooth="yes"/>
      <point x="437" y="48"/>
      <point x="414" y="39"/>
      <point x="384" y="34" type="curve" smooth="yes"/>
      <point x="354" y="29"/>
      <point x="118" y="0"/>
      <point x="118" y="0" type="curve"/>
      <point x="118" y="0"/>
      <point x="58" y="-2"/>
      <point x="46" y="24" type="curve" smooth="yes"/>
      <point x="34" y="50"/>
      <point x="34" y="60"/>
      <point x="67" y="97" type="curve" smooth="yes"/>
      <point x="100" y="134"/>
      <point x="255" y="316"/>
      <point x="257" y="416" type="curve" smooth="yes"/>
      <point x="259" y="516"/>
      <point x="230" y="509"/>
      <point x="224" y="509" type="curve" smooth="yes"/>
      <point x="218" y="509"/>
      <point x="178" y="502"/>
      <point x="178" y="463" type="curve" smooth="yes"/>
      <point x="178" y="424"/>
      <point x="193.318" y="382.04"/>
    </contour>
  </outline>
</glyph>
<glyph name="three" format="2">
  <advance width="458"/>
  <unicode hex="0033"/>
  <outline>
    <contour>
      <point x="21" y="500" type="curve" smooth="yes"/>
      <point x="18" y="515"/>
      <point x="16.2939" y="573.151"/>
      <point x="166" y="583" type="curve" smooth="yes"/>
      <point x="318" y="593"/>
      <point x="369" y="522"/>
      <point x="377" y="463" type="curve" smooth="yes"/>
      <point x="385" y="404"/>
      <point x="372" y="363"/>
      <point x="355" y="355" type="curve"/>
      <point x="355" y="355"/>
      <point x="424" y="346"/>
      <point x="431" y="211" type="curve" smooth="yes"/>
      <point x="438" y="76"/>
      <point x="405" y="0"/>
      <point x="243" y="0" type="curve" smooth="yes"/>
      <point x="81" y="0"/>
      <point x="27" y="66"/>
      <point x="27" y="120" type="curve" smooth="yes"/>
      <point x="27" y="174"/>
      <point x="88" y="185"/>
      <point x="92" y="185" type="curve" smooth="yes"/>
      <point x="96" y="185"/>
      <point x="180" y="195"/>
      <point x="187" y="139" type="curve" smooth="yes"/>
      <point x="194" y="83"/>
      <point x="234" y="81"/>
      <point x="234" y="81" type="curve"/>
      <point x="234" y="81"/>
      <point x="277" y="70"/>
      <point x="269" y="182" type="curve" smooth="yes"/>
      <point x="261" y="294"/>
      <point x="217" y="297"/>
      <point x="206" y="297" type="curve" smooth="yes"/>
      <point x="195" y="297"/>
      <point x="128" y="294"/>
      <point x="130" y="330" type="curve" smooth="yes"/>
      <point x="132" y="366"/>
      <point x="170" y="371"/>
      <point x="175" y="372" type="curve" smooth="yes"/>
      <point x="180" y="373"/>
      <point x="222" y="375"/>
      <point x="215" y="436" type="curve" smooth="yes"/>
      <point x="208" y="497"/>
      <point x="156" y="485"/>
      <point x="153" y="485" type="curve" smooth="yes"/>
      <point x="150" y="485"/>
      <point x="30.8545" y="450.727"/>
    </contour>
  </outline>
</glyph>
<glyph name="five" format="2">
  <advance width="455"/>
  <unicode hex="0035"/>
  <outline>
    <contour>
      <point x="46" y="520" type="curve"/>
      <point x="46" y="520"/>
      <point x="46" y="568"/>
      <point x="109" y="570" type="curve" smooth="yes"/>
      <point x="172" y="572"/>
      <point x="343" y="577"/>
      <point x="343" y="577" type="curve"/>
      <point x="343" y="577"/>
      <point x="427" y="582"/>
      <point x="429" y="534" type="curve" smooth="yes"/>
      <point x="431" y="486"/>
      <point x="357" y="481"/>
      <point x="357" y="481" type="curve"/>
      <point x="189" y="477" type="line"/>
      <point x="182" y="393" type="line"/>
      <point x="182" y="393"/>
      <point x="284.652" y="413.105"/>
      <point x="350" y="372" type="curve" smooth="yes"/>
      <point x="412" y="333"/>
      <point x="431" y="287"/>
      <point x="432" y="203" type="curve" smooth="yes"/>
      <point x="433" y="119"/>
      <point x="400" y="0"/>
      <point x="220" y="0" type="curve" smooth="yes"/>
      <point x="40" y="0"/>
      <point x="-9" y="109"/>
      <point x="69" y="130" type="curve" smooth="yes"/>
      <point x="147" y="151"/>
      <point x="174" y="113"/>
      <point x="174" y="113" type="curve"/>
      <point x="174" y="113"/>
      <point x="184" y="95"/>
      <point x="221" y="94" type="curve" smooth="yes"/>
      <point x="258" y="93"/>
      <point x="273" y="141"/>
      <point x="267" y="210" type="curve" smooth="yes"/>
      <point x="261" y="279"/>
      <point x="246" y="311"/>
      <point x="216" y="315" type="curve" smooth="yes"/>
      <point x="186" y="319"/>
      <point x="169" y="285"/>
      <point x="167" y="284" type="curve" smooth="yes"/>
      <point x="165" y="283"/>
      <point x="142" y="254"/>
      <point x="84" y="268" type="curve" smooth="yes"/>
      <point x="26" y="282"/>
      <point x="19" y="299"/>
      <point x="24" y="341" type="curve" smooth="yes"/>
      <point x="29" y="383"/>
      <point x="37" y="450"/>
    </contour>
  </outline>
</glyph>
<glyph name="seven" format="2">
  <advance width="440"/>
  <unicode hex="0037"/>
  <outline>
    <contour>
      <point x="92" y="57" type="curve"/>
      <point x="92" y="57"/>
      <point x="82" y="0"/>
      <point x="178" y="0" type="curve" smooth="yes"/>
      <point x="274" y="0"/>
      <point x="257" y="60"/>
      <point x="257" y="60" type="curve"/>
      <point x="257" y="60"/>
      <point x="263.256" y="283.385"/>
      <point x="385" y="466" type="curve" smooth="yes"/>
      <point x="461" y="580"/>
      <point x="323" y="575"/>
      <point x="323" y="575" type="curve"/>
      <point x="96" y="563" type="line"/>
      <point x="96" y="563"/>
      <point x="13" y="558"/>
      <point x="15" y="512" type="curve" smooth="yes"/>
      <point x="17" y="466"/>
      <point x="75" y="475"/>
      <point x="94" y="476" type="curve" smooth="yes"/>
      <point x="113" y="477"/>
      <point x="225" y="488"/>
      <point x="225" y="488" type="curve"/>
      <point x="225" y="488"/>
      <point x="81" y="281"/>
    </contour>
  </outline>
</glyph>
<glyph name="eight" format="2">
  <advance width="451"/>
  <unicode hex="0038"/>
  <outline>
    <contour>
      <point x="225" y="267" type="curve"/>
      <point x="203" y="266"/>
      <point x="168" y="262"/>
      <point x="159" y="174" type="curve" smooth="yes"/>
      <point x="150" y="86"/>
      <point x="206" y="74"/>
      <point x="230" y="73" type="curve" smooth="yes"/>
      <point x="254" y="72"/>
      <point x="293" y="90"/>
      <point x="292" y="180" type="curve" smooth="yes"/>
      <point x="291" y="270"/>
      <point x="225" y="267"/>
    </contour>
    <contour>
      <point x="226" y="525" type="curve"/>
      <point x="203" y="524"/>
      <point x="182" y="513"/>
      <point x="174" y="451" type="curve" smooth="yes"/>
      <point x="166" y="389"/>
      <point x="204" y="370"/>
      <point x="230" y="370" type="curve" smooth="yes"/>
      <point x="256" y="370"/>
      <point x="276.659" y="395.057"/>
      <point x="274" y="458" type="curve" smooth="yes"/>
      <point x="271" y="529"/>
      <point x="226" y="525"/>
    </contour>
    <contour>
      <point x="84" y="320" type="curve"/>
      <point x="84" y="320"/>
      <point x="31" y="350"/>
      <point x="32" y="437" type="curve" smooth="yes"/>
      <point x="33" y="524"/>
      <point x="121" y="582"/>
      <point x="226" y="583" type="curve" smooth="yes"/>
      <point x="331" y="584"/>
      <point x="419" y="526"/>
      <point x="419" y="441" type="curve" smooth="yes"/>
      <point x="419" y="356"/>
      <point x="369" y="319"/>
      <point x="369" y="319" type="curve"/>
      <point x="369" y="319"/>
      <point x="434" y="278"/>
      <point x="431" y="188" type="curve" smooth="yes"/>
      <point x="428" y="98"/>
      <point x="382" y="0"/>
      <point x="228" y="0" type="curve" smooth="yes"/>
      <point x="74" y="0"/>
      <point x="13" y="102"/>
      <point x="19" y="181" type="curve" smooth="yes"/>
      <point x="25" y="260"/>
      <point x="48" y="295"/>
    </contour>
  </outline>
</glyph>
<glyph name="nine" format="2">
  <advance width="481"/>
  <unicode hex="0039"/>
  <outline>
    <contour>
      <point x="297" y="352" type="curve"/>
      <point x="166" y="321"/>
      <point x="175" y="409"/>
      <point x="175" y="407" type="curve" smooth="yes"/>
      <point x="175" y="405"/>
      <point x="169" y="489"/>
      <point x="238" y="486" type="curve" smooth="yes"/>
      <point x="307" y="483"/>
      <point x="297" y="352"/>
    </contour>
    <contour>
      <point x="380" y="0" type="curve"/>
      <point x="380" y="0"/>
      <point x="461" y="-7"/>
      <point x="460" y="56" type="curve" smooth="yes"/>
      <point x="459" y="119"/>
      <point x="473" y="360"/>
      <point x="440" y="461" type="curve" smooth="yes"/>
      <point x="407" y="562"/>
      <point x="317" y="587"/>
      <point x="243" y="583" type="curve" smooth="yes"/>
      <point x="169" y="579"/>
      <point x="15" y="558"/>
      <point x="23" y="411" type="curve" smooth="yes"/>
      <point x="31" y="264"/>
      <point x="149" y="251"/>
      <point x="291" y="253" type="curve"/>
      <point x="292" y="58" type="line"/>
      <point x="292" y="58"/>
      <point x="279" y="0"/>
    </contour>
  </outline>
</glyph>
<glyph name="colon" format="2">
  <advance width="226"/>
  <unicode hex="003A"/>
  <outline>
    <contour>
      <point x="109" y="188" type="curve"/>
      <point x="109" y="188"/>
      <point x="191" y="196"/>
      <point x="204" y="136" type="curve" smooth="yes"/>
      <point x="217" y="76"/>
      <point x="130" y="77"/>
      <point x="130" y="77" type="curve"/>
      <point x="130" y="77"/>
      <point x="45" y="73"/>
      <point x="39" y="123" type="curve" smooth="yes"/>
      <point x="33" y="173"/>
      <point x="65" y="186"/>
    </contour>
    <contour>
      <point x="93" y="528" type="curve"/>
      <point x="93" y="528"/>
      <point x="175" y="536"/>
      <point x="188" y="476" type="curve" smooth="yes"/>
      <point x="201" y="416"/>
      <point x="114" y="417"/>
      <point x="114" y="417" type="curve"/>
      <point x="114" y="417"/>
      <point x="29" y="413"/>
      <point x="23" y="463" type="curve" smooth="yes"/>
      <point x="17" y="513"/>
      <point x="49" y="526"/>
    </contour>
  </outline>
</glyph>
<glyph name="semicolon" format="2">
  <advance width="257"/>
  <unicode hex="003B"/>
  <outline>
    <contour>
      <point x="148" y="52" type="curve"/>
      <point x="148" y="52"/>
      <point x="237" y="48"/>
      <point x="237" y="8" type="curve" smooth="yes"/>
      <point x="237" y="-32"/>
      <point x="194" y="-92"/>
      <point x="194" y="-92" type="curve"/>
      <point x="194" y="-92"/>
      <point x="167" y="-149"/>
      <point x="91" y="-148" type="curve" smooth="yes"/>
      <point x="15" y="-147"/>
      <point x="13" y="-108"/>
      <point x="26" y="-85" type="curve" smooth="yes"/>
      <point x="39" y="-62"/>
      <point x="70" y="0"/>
      <point x="70" y="0" type="curve"/>
      <point x="70" y="0"/>
      <point x="68" y="25"/>
      <point x="98" y="43" type="curve" smooth="yes"/>
      <point x="116.918" y="54.3506"/>
      <point x="128" y="52"/>
    </contour>
    <contour>
      <point x="109" y="422" type="curve"/>
      <point x="109" y="422"/>
      <point x="191" y="430"/>
      <point x="204" y="370" type="curve" smooth="yes"/>
      <point x="217" y="310"/>
      <point x="130" y="311"/>
      <point x="130" y="311" type="curve"/>
      <point x="130" y="311"/>
      <point x="45" y="307"/>
      <point x="39" y="357" type="curve" smooth="yes"/>
      <point x="33" y="407"/>
      <point x="65" y="420"/>
    </contour>
  </outline>
</glyph>
<glyph name="less" format="2">
  <advance width="442"/>
  <unicode hex="003C"/>
  <outline>
    <contour>
      <point x="44" y="204" type="curve"/>
      <point x="44" y="204"/>
      <point x="-25" y="236"/>
      <point x="44" y="276" type="curve" smooth="yes"/>
      <point x="113" y="316"/>
      <point x="188" y="373"/>
      <point x="225" y="414" type="curve" smooth="yes"/>
      <point x="262" y="455"/>
      <point x="300" y="463"/>
      <point x="347" y="463" type="curve" smooth="yes"/>
      <point x="394" y="463"/>
      <point x="443" y="441"/>
      <point x="391" y="391" type="curve" smooth="yes"/>
      <point x="339" y="341"/>
      <point x="217.428" y="261.071"/>
      <point x="184" y="236" type="curve"/>
      <point x="184" y="236"/>
      <point x="358" y="126"/>
      <point x="400" y="77" type="curve" smooth="yes"/>
      <point x="442" y="28"/>
      <point x="385" y="0"/>
      <point x="357" y="0" type="curve" smooth="yes"/>
      <point x="329" y="0"/>
      <point x="287" y="0"/>
      <point x="253" y="36" type="curve" smooth="yes"/>
      <point x="219" y="72"/>
      <point x="126" y="138"/>
    </contour>
  </outline>
</glyph>
<glyph name="greater" format="2">
  <advance width="442"/>
  <unicode hex="003E"/>
  <outline>
    <contour>
      <point x="397" y="204" type="curve"/>
      <point x="397" y="204"/>
      <point x="466" y="236"/>
      <point x="397" y="276" type="curve" smooth="yes"/>
      <point x="328" y="316"/>
      <point x="253" y="373"/>
      <point x="216" y="414" type="curve" smooth="yes"/>
      <point x="179" y="455"/>
      <point x="141" y="463"/>
      <point x="94" y="463" type="curve" smooth="yes"/>
      <point x="47" y="463"/>
      <point x="-2" y="441"/>
      <point x="50" y="391" type="curve" smooth="yes"/>
      <point x="102" y="341"/>
      <point x="223.572" y="261.071"/>
      <point x="257" y="236" type="curve"/>
      <point x="257" y="236"/>
      <point x="83" y="126"/>
      <point x="41" y="77" type="curve" smooth="yes"/>
      <point x="-1" y="28"/>
      <point x="56" y="0"/>
      <point x="84" y="0" type="curve" smooth="yes"/>
      <point x="112" y="0"/>
      <point x="154" y="0"/>
      <point x="188" y="36" type="curve" smooth="yes"/>
      <point x="222" y="72"/>
      <point x="315" y="138"/>
    </contour>
  </outline>
</glyph>
<glyph name="question" format="2">
  <advance width="417"/>
  <unicode hex="003F"/>
  <outline>
    <contour>
      <point x="210" y="145" type="curve"/>
      <point x="210" y="145"/>
      <point x="128" y="135"/>
      <point x="128" y="205" type="curve" smooth="yes"/>
      <point x="128" y="275"/>
      <point x="187" y="277"/>
      <point x="200" y="279" type="curve" smooth="yes"/>
      <point x="213.187" y="281.028"/>
      <point x="255.189" y="263.066"/>
      <point x="250" y="398" type="curve" smooth="yes"/>
      <point x="246" y="502"/>
      <point x="203" y="490"/>
      <point x="203" y="491" type="curve" smooth="yes"/>
      <point x="203" y="492"/>
      <point x="162" y="489"/>
      <point x="166" y="428" type="curve" smooth="yes"/>
      <point x="170" y="367"/>
      <point x="204" y="314"/>
      <point x="112" y="317" type="curve" smooth="yes"/>
      <point x="20" y="320"/>
      <point x="22" y="387"/>
      <point x="24" y="430" type="curve" smooth="yes"/>
      <point x="26" y="473"/>
      <point x="41" y="569"/>
      <point x="204" y="576" type="curve" smooth="yes"/>
      <point x="367" y="583"/>
      <point x="389" y="503"/>
      <point x="394" y="398" type="curve" smooth="yes"/>
      <point x="399" y="293"/>
      <point x="346.785" y="223.622"/>
      <point x="294" y="201" type="curve"/>
      <point x="294" y="201"/>
      <point x="295" y="142"/>
    </contour>
    <contour>
      <point x="201" y="111" type="curve"/>
      <point x="201" y="111"/>
      <point x="283" y="119"/>
      <point x="296" y="59" type="curve" smooth="yes"/>
      <point x="309" y="-1"/>
      <point x="222" y="0"/>
      <point x="222" y="0" type="curve"/>
      <point x="222" y="0"/>
      <point x="137" y="-4"/>
      <point x="131" y="46" type="curve" smooth="yes"/>
      <point x="125" y="96"/>
      <point x="157" y="109"/>
    </contour>
  </outline>
</glyph>
<glyph name="at" format="2">
  <advance width="563"/>
  <unicode hex="0040"/>
  <outline>
    <contour>
      <point x="312" y="343" type="line"/>
      <point x="250.076" y="400.501"/>
      <point x="241" y="337"/>
      <point x="244" y="287" type="curve" smooth="yes"/>
      <point x="247" y="237"/>
      <point x="288" y="205"/>
      <point x="306" y="205" type="curve" smooth="yes"/>
      <point x="324" y="205"/>
      <point x="340" y="253"/>
      <point x="340" y="253" type="curve"/>
    </contour>
    <contour>
      <point x="296" y="532" type="curve" smooth="yes"/>
      <point x="321" y="533"/>
      <point x="530" y="536"/>
      <point x="538" y="346" type="curve" smooth="yes"/>
      <point x="546" y="156"/>
      <point x="417.275" y="170.362"/>
      <point x="374" y="192" type="curve"/>
      <point x="374" y="192"/>
      <point x="362" y="167"/>
      <point x="296" y="169" type="curve" smooth="yes"/>
      <point x="230" y="171"/>
      <point x="172" y="201"/>
      <point x="175" y="279" type="curve" smooth="yes"/>
      <point x="178" y="357"/>
      <point x="200" y="400"/>
      <point x="265" y="401" type="curve" smooth="yes"/>
      <point x="330" y="402"/>
      <point x="381" y="363"/>
      <point x="381" y="356" type="curve" smooth="yes"/>
      <point x="381" y="349"/>
      <point x="375" y="344"/>
      <point x="375" y="344" type="curve"/>
      <point x="375" y="344"/>
      <point x="389" y="341"/>
      <point x="389" y="326" type="curve" smooth="yes"/>
      <point x="389" y="311"/>
      <point x="388" y="269"/>
      <point x="410" y="269" type="curve" smooth="yes"/>
      <point x="432" y="269"/>
      <point x="461" y="470"/>
      <point x="306" y="480" type="curve" smooth="yes"/>
      <point x="151" y="490"/>
      <point x="118.284" y="323.524"/>
      <point x="119" y="277" type="curve" smooth="yes"/>
      <point x="120" y="212"/>
      <point x="176" y="115"/>
      <point x="302" y="113" type="curve" smooth="yes"/>
      <point x="428" y="111"/>
      <point x="426" y="95"/>
      <point x="427" y="84" type="curve" smooth="yes"/>
      <point x="428" y="73"/>
      <point x="421" y="51"/>
      <point x="330" y="54" type="curve" smooth="yes"/>
      <point x="239" y="57"/>
      <point x="26" y="90"/>
      <point x="21" y="272" type="curve" smooth="yes"/>
      <point x="16" y="454"/>
      <point x="144.108" y="525.925"/>
    </contour>
  </outline>
</glyph>
<glyph name="A" format="2">
  <advance width="537"/>
  <unicode hex="0041"/>
  <outline>
    <contour>
      <point x="137.50400000000002" y="540" type="curve" smooth="yes"/>
      <point x="137" y="540"/>
      <point x="141.002" y="584.869"/>
      <point x="219" y="586" type="curve" smooth="yes"/>
      <point x="288" y="587"/>
      <point x="302.501" y="549.999"/>
      <point x="302.501" y="549.999" type="curve"/>
      <point x="302.501" y="549.999"/>
      <point x="512" y="76"/>
      <point x="529" y="38" type="curve" smooth="yes"/>
      <point x="546" y="0"/>
      <point x="537" y="0"/>
      <point x="537.499" y="-3.00195" type="curve" smooth="yes"/>
      <point x="527" y="-22"/>
      <point x="499" y="-38"/>
      <point x="460" y="-39" type="curve" smooth="yes"/>
      <point x="380.969" y="-41.0264"/>
      <point x="373" y="0"/>
      <point x="373.502" y="-3.00195" type="curve" smooth="yes"/>
      <point x="373.502" y="-3.00195"/>
      <point x="337" y="81"/>
      <point x="313" y="135" type="curve"/>
      <point x="313" y="135"/>
      <point x="223" y="135"/>
      <point x="222.505" y="134.999" type="curve" smooth="yes"/>
      <point x="216.348" y="106.268"/>
      <point x="204.505" y="47.999"/>
      <point x="204.505" y="47.999" type="curve"/>
      <point x="204.505" y="47.999"/>
      <point x="202" y="0"/>
      <point x="114" y="0" type="curve" smooth="yes"/>
      <point x="26" y="0"/>
      <point x="37" y="50"/>
      <point x="36.5049" y="50" type="curve"/>
      <point x="47.5059" y="97.6719"/>
      <point x="139" y="538"/>
    </contour>
    <contour>
      <point x="243.498" y="381.999" type="curve"/>
      <point x="242.83100000000002" y="379.332"/>
      <point x="241.99400000000003" y="373.999"/>
      <point x="240.99400000000003" y="365.999" type="curve" smooth="yes"/>
      <point x="237.49400000000003" y="337.999" type="line" smooth="yes"/>
      <point x="233.626" y="307.047"/>
      <point x="229.602" y="270.546"/>
      <point x="225.996" y="240.498" type="curve" smooth="yes"/>
      <point x="224.996" y="232.165"/>
      <point x="224.163" y="226.998"/>
      <point x="223.496" y="224.998" type="curve" smooth="yes"/>
      <point x="236.49599999999998" y="224.998" type="line" smooth="yes"/>
      <point x="252.486" y="224.998"/>
      <point x="272.398" y="226.997"/>
      <point x="287.497" y="226.997" type="curve"/>
      <point x="282.113" y="237.77"/>
      <point x="279.215" y="256.003"/>
      <point x="274.998" y="270.997" type="curve" smooth="yes"/>
      <point x="266.52099999999996" y="301.139"/>
      <point x="256.326" y="336.487"/>
      <point x="248.498" y="366.498" type="curve" smooth="yes"/>
      <point x="246.498" y="374.165"/>
      <point x="244.83100000000002" y="379.332"/>
    </contour>
  </outline>
</glyph>
<glyph name="B" format="2">
  <advance width="507"/>
  <unicode hex="0042"/>
  <outline>
    <contour>
      <point x="212" y="253" type="curve"/>
      <point x="219" y="87" type="line"/>
      <point x="219" y="87"/>
      <point x="358" y="74"/>
      <point x="345" y="186" type="curve" smooth="yes"/>
      <point x="332" y="298"/>
      <point x="212" y="253"/>
    </contour>
    <contour>
      <point x="190" y="485" type="curve"/>
      <point x="190" y="485"/>
      <point x="191" y="384"/>
      <point x="197" y="373" type="curve" smooth="yes"/>
      <point x="203" y="362"/>
      <point x="273" y="412"/>
      <point x="264" y="455" type="curve" smooth="yes"/>
      <point x="255" y="498"/>
      <point x="220" y="501"/>
    </contour>
    <contour>
      <point x="57" y="54" type="curve"/>
      <point x="57" y="54"/>
      <point x="34" y="438"/>
      <point x="36" y="461" type="curve" smooth="yes"/>
      <point x="38" y="484"/>
      <point x="38" y="498"/>
      <point x="49" y="503" type="curve" smooth="yes"/>
      <point x="60" y="508"/>
      <point x="35" y="522"/>
      <point x="71" y="541" type="curve" smooth="yes"/>
      <point x="107" y="560"/>
      <point x="247.029" y="636.376"/>
      <point x="380" y="534" type="curve" smooth="yes"/>
      <point x="493" y="447"/>
      <point x="358" y="337"/>
      <point x="358" y="337" type="curve"/>
      <point x="358" y="337"/>
      <point x="495" y="299"/>
      <point x="499" y="178" type="curve" smooth="yes"/>
      <point x="503" y="57"/>
      <point x="372" y="0"/>
      <point x="193" y="0" type="curve" smooth="yes"/>
      <point x="55" y="0"/>
      <point x="57" y="54"/>
    </contour>
  </outline>
</glyph>
<glyph name="C" format="2">
  <advance width="445"/>
  <unicode hex="0043"/>
  <outline>
    <contour>
      <point x="423" y="129" type="curve" smooth="yes"/>
      <point x="423" y="130"/>
      <point x="438" y="192"/>
      <point x="349" y="194" type="curve" smooth="yes"/>
      <point x="260" y="196"/>
      <point x="275" y="143"/>
      <point x="275" y="143" type="curve"/>
      <point x="275" y="143"/>
      <point x="273" y="79"/>
      <point x="238" y="81" type="curve" smooth="yes"/>
      <point x="203" y="83"/>
      <point x="199" y="142"/>
      <point x="199" y="142" type="curve"/>
      <point x="199" y="142"/>
      <point x="184" y="366"/>
      <point x="195" y="444" type="curve" smooth="yes"/>
      <point x="206" y="522"/>
      <point x="234" y="482"/>
      <point x="234" y="462" type="curve" smooth="yes"/>
      <point x="234" y="442"/>
      <point x="248.992" y="409"/>
      <point x="312" y="409" type="curve" smooth="yes"/>
      <point x="326" y="409"/>
      <point x="423" y="413"/>
      <point x="381" y="485" type="curve" smooth="yes"/>
      <point x="339" y="557"/>
      <point x="266" y="580"/>
      <point x="201" y="576" type="curve" smooth="yes"/>
      <point x="136" y="572"/>
      <point x="27" y="548"/>
      <point x="24" y="408" type="curve" smooth="yes"/>
      <point x="21" y="268"/>
      <point x="-22" y="0"/>
      <point x="233" y="0" type="curve" smooth="yes"/>
      <point x="410" y="0"/>
      <point x="423" y="129"/>
    </contour>
  </outline>
</glyph>
<glyph name="D" format="2">
  <advance width="471"/>
  <unicode hex="0044"/>
  <outline>
    <contour>
      <point x="168" y="490" type="line"/>
      <point x="221" y="498"/>
      <point x="280" y="492"/>
      <point x="292" y="284" type="curve" smooth="yes"/>
      <point x="304" y="76"/>
      <point x="212" y="85"/>
      <point x="212" y="85" type="curve"/>
    </contour>
    <contour>
      <point x="61" y="65" type="curve"/>
      <point x="61" y="65"/>
      <point x="48" y="0"/>
      <point x="142" y="0" type="curve" smooth="yes"/>
      <point x="236" y="0"/>
      <point x="469.755" y="-8.88184"/>
      <point x="446" y="332" type="curve" smooth="yes"/>
      <point x="426" y="619"/>
      <point x="152" y="580"/>
      <point x="152" y="580" type="curve"/>
      <point x="152" y="580"/>
      <point x="24" y="573.186"/>
      <point x="24" y="530" type="curve" smooth="yes"/>
      <point x="24" y="518"/>
      <point x="38" y="506"/>
      <point x="38" y="506" type="curve"/>
      <point x="38" y="506"/>
      <point x="26" y="497"/>
      <point x="30" y="466" type="curve" smooth="yes"/>
      <point x="34" y="435"/>
      <point x="49" y="221"/>
    </contour>
  </outline>
</glyph>
<glyph name="E" format="2">
  <advance width="457"/>
  <unicode hex="0045"/>
  <outline>
    <contour>
      <point x="22" y="507" type="curve"/>
      <point x="22" y="507"/>
      <point x="0" y="564"/>
      <point x="86" y="571" type="curve" smooth="yes"/>
      <point x="172" y="578"/>
      <point x="322" y="584"/>
      <point x="322" y="584" type="curve"/>
      <point x="322" y="584"/>
      <point x="412" y="587"/>
      <point x="419" y="539" type="curve" smooth="yes"/>
      <point x="426" y="491"/>
      <point x="352" y="490"/>
      <point x="352" y="490" type="curve"/>
      <point x="192" y="481" type="line"/>
      <point x="192" y="481"/>
      <point x="204" y="433"/>
      <point x="206" y="410" type="curve" smooth="yes"/>
      <point x="208" y="387"/>
      <point x="211" y="337"/>
      <point x="211" y="337" type="curve"/>
      <point x="285" y="337" type="line"/>
      <point x="285" y="337"/>
      <point x="357" y="337"/>
      <point x="359" y="301" type="curve" smooth="yes"/>
      <point x="361" y="265"/>
      <point x="303" y="260"/>
      <point x="296" y="259" type="curve" smooth="yes"/>
      <point x="289" y="258"/>
      <point x="212" y="258"/>
      <point x="212" y="258" type="curve"/>
      <point x="212" y="258"/>
      <point x="215" y="204"/>
      <point x="214" y="177" type="curve" smooth="yes"/>
      <point x="213" y="150"/>
      <point x="210" y="100"/>
      <point x="210" y="100" type="curve"/>
      <point x="345" y="105" type="line"/>
      <point x="345" y="105"/>
      <point x="432" y="113"/>
      <point x="436" y="64" type="curve" smooth="yes"/>
      <point x="440" y="15"/>
      <point x="357" y="11"/>
      <point x="357" y="11" type="curve"/>
      <point x="141" y="0" type="line"/>
      <point x="141" y="0"/>
      <point x="38" y="-10"/>
      <point x="41" y="53" type="curve" smooth="yes"/>
      <point x="44" y="116"/>
      <point x="55" y="304"/>
    </contour>
  </outline>
</glyph>
<glyph name="I" format="2">
  <advance width="274"/>
  <unicode hex="0049"/>
  <outline>
    <contour>
      <point x="53" y="51" type="curve"/>
      <point x="53" y="51"/>
      <point x="48" y="0"/>
      <point x="136" y="0" type="curve" smooth="yes"/>
      <point x="224" y="0"/>
      <point x="216" y="68"/>
      <point x="216" y="68" type="curve"/>
      <point x="216" y="68"/>
      <point x="204" y="276"/>
      <point x="219" y="475" type="curve" smooth="yes"/>
      <point x="222" y="514"/>
      <point x="226" y="534"/>
      <point x="209" y="561" type="curve" smooth="yes"/>
      <point x="196" y="580"/>
      <point x="148" y="582"/>
      <point x="148" y="582" type="curve"/>
      <point x="148" y="582"/>
      <point x="65" y="586"/>
      <point x="57" y="522" type="curve" smooth="yes"/>
      <point x="49" y="458"/>
      <point x="44" y="164"/>
    </contour>
  </outline>
</glyph>
<glyph name="J" format="2">
  <advance width="433"/>
  <unicode hex="004A"/>
  <outline>
    <contour>
      <point x="231" y="489" type="curve"/>
      <point x="231" y="489"/>
      <point x="109" y="479"/>
      <point x="107" y="527" type="curve" smooth="yes"/>
      <point x="105" y="575"/>
      <point x="225" y="580"/>
      <point x="225" y="580" type="curve"/>
      <point x="225" y="580"/>
      <point x="374" y="605"/>
      <point x="387" y="496" type="curve" smooth="yes"/>
      <point x="400" y="387"/>
      <point x="414" y="142"/>
      <point x="414" y="142" type="curve"/>
      <point x="414" y="142"/>
      <point x="435" y="0"/>
      <point x="254" y="0" type="curve" smooth="yes"/>
      <point x="73" y="0"/>
      <point x="24.8379" y="58.0928"/>
      <point x="19" y="155" type="curve" smooth="yes"/>
      <point x="14" y="238"/>
      <point x="99" y="238"/>
      <point x="99" y="238" type="curve"/>
      <point x="99" y="238"/>
      <point x="171" y="247"/>
      <point x="181" y="165" type="curve" smooth="yes"/>
      <point x="191" y="83"/>
      <point x="231" y="83"/>
      <point x="231" y="83" type="curve"/>
      <point x="231" y="83"/>
      <point x="272" y="74"/>
      <point x="266" y="146" type="curve" smooth="yes"/>
      <point x="260" y="218"/>
      <point x="245" y="355"/>
    </contour>
  </outline>
</glyph>
<glyph name="L" format="2">
  <advance width="508"/>
  <unicode hex="004C"/>
  <outline>
    <contour>
      <point x="242" y="140" type="curve"/>
      <point x="244" y="140"/>
      <point x="410" y="144"/>
      <point x="410" y="144" type="curve"/>
      <point x="410" y="144"/>
      <point x="483" y="152"/>
      <point x="486" y="92" type="curve" smooth="yes"/>
      <point x="489" y="32"/>
      <point x="394" y="34"/>
      <point x="394" y="34" type="curve"/>
      <point x="394" y="34"/>
      <point x="270" y="26"/>
      <point x="173" y="0" type="curve" smooth="yes"/>
      <point x="76" y="-26"/>
      <point x="54" y="25"/>
      <point x="53" y="34" type="curve" smooth="yes"/>
      <point x="52" y="43"/>
      <point x="57" y="61"/>
      <point x="76" y="66" type="curve" smooth="yes"/>
      <point x="95" y="71"/>
      <point x="52" y="432"/>
      <point x="26" y="508" type="curve" smooth="yes"/>
      <point x="0" y="584"/>
      <point x="86" y="588"/>
      <point x="86" y="588" type="curve"/>
      <point x="86" y="588"/>
      <point x="172" y="608"/>
      <point x="190" y="526" type="curve" smooth="yes"/>
      <point x="208" y="444"/>
      <point x="244" y="320"/>
    </contour>
  </outline>
</glyph>
<glyph name="M" format="2">
  <advance width="636"/>
  <unicode hex="004D"/>
  <outline>
    <contour>
      <point x="125" y="0" type="curve"/>
      <point x="125" y="0"/>
      <point x="207" y="-5"/>
      <point x="205" y="68" type="curve" smooth="yes"/>
      <point x="203" y="141"/>
      <point x="190" y="368"/>
      <point x="190" y="368" type="curve"/>
      <point x="255" y="249" type="line"/>
      <point x="255" y="249"/>
      <point x="271" y="210"/>
      <point x="330" y="212" type="curve" smooth="yes"/>
      <point x="389" y="214"/>
      <point x="401" y="257"/>
      <point x="401" y="257" type="curve"/>
      <point x="453" y="368" type="line"/>
      <point x="445" y="225" type="line"/>
      <point x="445" y="225"/>
      <point x="443" y="47"/>
      <point x="443" y="48" type="curve" smooth="yes"/>
      <point x="443" y="49"/>
      <point x="438" y="0"/>
      <point x="528" y="0" type="curve" smooth="yes"/>
      <point x="618" y="0"/>
      <point x="612" y="56"/>
      <point x="612" y="59" type="curve" smooth="yes"/>
      <point x="612" y="62"/>
      <point x="610" y="532"/>
      <point x="610" y="532" type="curve"/>
      <point x="610" y="532"/>
      <point x="613" y="584"/>
      <point x="533" y="582" type="curve" smooth="yes"/>
      <point x="453" y="580"/>
      <point x="423" y="525"/>
      <point x="413" y="506" type="curve" smooth="yes"/>
      <point x="403" y="487"/>
      <point x="322" y="306"/>
      <point x="322" y="306" type="curve"/>
      <point x="207" y="515" type="line"/>
      <point x="207" y="515"/>
      <point x="191" y="569"/>
      <point x="101" y="568" type="curve" smooth="yes"/>
      <point x="11" y="567"/>
      <point x="27" y="500"/>
      <point x="27" y="500" type="curve"/>
      <point x="39" y="66" type="line"/>
      <point x="39" y="66"/>
      <point x="26" y="0"/>
    </contour>
  </outline>
</glyph>
<glyph name="O" format="2">
  <advance width="475"/>
  <unicode hex="004F"/>
  <outline>
    <contour>
      <point x="178" y="295.33" type="curve" smooth="yes"/>
      <point x="178" y="178.08"/>
      <point x="205" y="83.1074"/>
      <point x="239" y="83.1074" type="curve" smooth="yes"/>
      <point x="273" y="83.1074"/>
      <point x="300" y="178.08"/>
      <point x="300" y="295.33" type="curve" smooth="yes"/>
      <point x="300" y="412.58"/>
      <point x="273" y="507.553"/>
      <point x="239" y="507.553" type="curve" smooth="yes"/>
      <point x="205" y="507.553"/>
      <point x="178" y="412.58"/>
    </contour>
    <contour>
      <point x="24.5361" y="290.95" type="curve" smooth="yes"/>
      <point x="24.5361" y="451.888"/>
      <point x="119.004" y="583.213"/>
      <point x="234.728" y="583.213" type="curve" smooth="yes"/>
      <point x="350.45" y="583.213"/>
      <point x="449.919" y="451.888"/>
      <point x="449.919" y="290.95" type="curve" smooth="yes"/>
      <point x="449.919" y="130.013"/>
      <point x="350.45" y="-1.3125"/>
      <point x="234.728" y="-1.3125" type="curve" smooth="yes"/>
      <point x="119.004" y="-1.3125"/>
      <point x="24.5361" y="130.013"/>
    </contour>
  </outline>
</glyph>
<glyph name="P" format="2">
  <advance width="461"/>
  <unicode hex="0050"/>
  <outline>
    <contour>
      <point x="207" y="485" type="line"/>
      <point x="293.854" y="499.476"/>
      <point x="292" y="442"/>
      <point x="292" y="442" type="curve"/>
      <point x="292" y="442"/>
      <point x="294" y="427"/>
      <point x="299" y="331" type="curve" smooth="yes"/>
      <point x="304" y="235"/>
      <point x="216" y="237"/>
      <point x="216" y="237" type="curve"/>
    </contour>
    <contour>
      <point x="128" y="0" type="curve"/>
      <point x="128" y="0"/>
      <point x="216" y="-9"/>
      <point x="217" y="58" type="curve" smooth="yes"/>
      <point x="218" y="125"/>
      <point x="217" y="151"/>
      <point x="217" y="151" type="curve"/>
      <point x="217" y="151"/>
      <point x="435" y="130"/>
      <point x="438" y="299" type="curve" smooth="yes"/>
      <point x="441" y="468"/>
      <point x="431" y="469"/>
      <point x="431" y="469" type="curve"/>
      <point x="431" y="469"/>
      <point x="421" y="562"/>
      <point x="228" y="578" type="curve" smooth="yes"/>
      <point x="68.5186" y="591.222"/>
      <point x="18" y="541"/>
      <point x="19" y="526" type="curve" smooth="yes"/>
      <point x="20" y="511"/>
      <point x="39" y="495"/>
      <point x="40" y="495" type="curve" smooth="yes"/>
      <point x="41" y="495"/>
      <point x="48" y="45"/>
      <point x="48" y="45" type="curve"/>
      <point x="48" y="45"/>
      <point x="51" y="0"/>
    </contour>
  </outline>
</glyph>
<glyph name="Q" format="2">
  <advance width="507"/>
  <unicode hex="0051"/>
  <outline>
    <contour>
      <point x="293" y="157" type="curve"/>
      <point x="293" y="157"/>
      <point x="340.066" y="526.304"/>
      <point x="231" y="512" type="curve" smooth="yes"/>
      <point x="170" y="504"/>
      <point x="187" y="300"/>
      <point x="187" y="300" type="curve"/>
      <point x="187" y="300"/>
      <point x="187" y="88"/>
      <point x="251" y="86" type="curve"/>
      <point x="251" y="86"/>
      <point x="201.136" y="128.568"/>
      <point x="246" y="151" type="curve" smooth="yes"/>
      <point x="266" y="161"/>
      <point x="282" y="164"/>
    </contour>
    <contour>
      <point x="22" y="296" type="curve"/>
      <point x="22" y="296"/>
      <point x="0.0556641" y="576.339"/>
      <point x="205" y="584" type="curve" smooth="yes"/>
      <point x="419" y="592"/>
      <point x="462" y="447"/>
      <point x="466" y="315" type="curve" smooth="yes"/>
      <point x="470" y="183"/>
      <point x="458.826" y="97.8848"/>
      <point x="429" y="78" type="curve"/>
      <point x="473" y="42" type="line"/>
      <point x="473" y="42"/>
      <point x="511" y="24"/>
      <point x="471" y="0" type="curve" smooth="yes"/>
      <point x="431" y="-24"/>
      <point x="372" y="15"/>
      <point x="369" y="17" type="curve" smooth="yes"/>
      <point x="366" y="19"/>
      <point x="306" y="0"/>
      <point x="257" y="0" type="curve" smooth="yes"/>
      <point x="208" y="0"/>
      <point x="21" y="0"/>
    </contour>
  </outline>
</glyph>
<glyph name="R" format="2">
  <advance width="499"/>
  <unicode hex="0052"/>
  <outline>
    <contour>
      <point x="168" y="491" type="curve"/>
      <point x="192" y="290" type="line"/>
      <point x="192" y="290"/>
      <point x="305.207" y="266.946"/>
      <point x="296" y="409" type="curve" smooth="yes"/>
      <point x="289" y="517"/>
      <point x="218" y="501"/>
    </contour>
    <contour>
      <point x="73" y="54" type="curve"/>
      <point x="27" y="490" type="line"/>
      <point x="27" y="490"/>
      <point x="1" y="528"/>
      <point x="71" y="553" type="curve" smooth="yes"/>
      <point x="141" y="578"/>
      <point x="255" y="602"/>
      <point x="360" y="547" type="curve" smooth="yes"/>
      <point x="465" y="492"/>
      <point x="413" y="301"/>
      <point x="413" y="301" type="curve"/>
      <point x="413" y="301"/>
      <point x="397" y="244"/>
      <point x="323" y="223" type="curve"/>
      <point x="465" y="70" type="line"/>
      <point x="465" y="70"/>
      <point x="521" y="21"/>
      <point x="448" y="0" type="curve" smooth="yes"/>
      <point x="372.298" y="-21.7773"/>
      <point x="336" y="34"/>
      <point x="336" y="34" type="curve"/>
      <point x="204" y="197" type="line"/>
      <point x="237" y="56" type="line"/>
      <point x="237" y="56"/>
      <point x="260" y="0"/>
      <point x="166" y="0" type="curve" smooth="yes"/>
      <point x="72" y="0"/>
      <point x="73" y="54"/>
    </contour>
  </outline>
</glyph>
<glyph name="S" format="2">
  <advance width="455"/>
  <unicode hex="0053"/>
  <outline>
    <contour>
      <point x="345" y="399" type="curve"/>
      <point x="345" y="399"/>
      <point x="432" y="392"/>
      <point x="424" y="469" type="curve" smooth="yes"/>
      <point x="416" y="546"/>
      <point x="320" y="582"/>
      <point x="227" y="580" type="curve" smooth="yes"/>
      <point x="134" y="578"/>
      <point x="27" y="545"/>
      <point x="25" y="407" type="curve" smooth="yes"/>
      <point x="23" y="269"/>
      <point x="157" y="243"/>
      <point x="211" y="243" type="curve" smooth="yes"/>
      <point x="265" y="243"/>
      <point x="291" y="219"/>
      <point x="286" y="168" type="curve" smooth="yes"/>
      <point x="281" y="117"/>
      <point x="259" y="96"/>
      <point x="231" y="96" type="curve" smooth="yes"/>
      <point x="203" y="96"/>
      <point x="197" y="137"/>
      <point x="197" y="143" type="curve" smooth="yes"/>
      <point x="197" y="149"/>
      <point x="193" y="192"/>
      <point x="114" y="186" type="curve" smooth="yes"/>
      <point x="35" y="180"/>
      <point x="32" y="140"/>
      <point x="34" y="102" type="curve" smooth="yes"/>
      <point x="36" y="64"/>
      <point x="89" y="0"/>
      <point x="231" y="0" type="curve" smooth="yes"/>
      <point x="373" y="0"/>
      <point x="430" y="67"/>
      <point x="431" y="184" type="curve" smooth="yes"/>
      <point x="432" y="301"/>
      <point x="328" y="337"/>
      <point x="253" y="338" type="curve" smooth="yes"/>
      <point x="178" y="339"/>
      <point x="158" y="376"/>
      <point x="161" y="420" type="curve" smooth="yes"/>
      <point x="164" y="464"/>
      <point x="196.986" y="487"/>
      <point x="234" y="487" type="curve" smooth="yes"/>
      <point x="257" y="487"/>
      <point x="258" y="465"/>
      <point x="258" y="459" type="curve" smooth="yes"/>
      <point x="258" y="453"/>
      <point x="254" y="400"/>
    </contour>
  </outline>
</glyph>
<glyph name="U" format="2">
  <advance width="468"/>
  <unicode hex="0055"/>
  <outline>
    <contour>
      <point x="112" y="578" type="curve"/>
      <point x="112" y="578"/>
      <point x="31" y="584"/>
      <point x="26" y="514" type="curve" smooth="yes"/>
      <point x="21" y="444"/>
      <point x="-31" y="0"/>
      <point x="246" y="0" type="curve" smooth="yes"/>
      <point x="523" y="0"/>
      <point x="443" y="423"/>
      <point x="443" y="423" type="curve"/>
      <point x="443" y="423"/>
      <point x="444" y="511"/>
      <point x="347" y="504" type="curve" smooth="yes"/>
      <point x="250" y="497"/>
      <point x="273" y="428"/>
      <point x="275" y="417" type="curve" smooth="yes"/>
      <point x="277" y="406"/>
      <point x="317" y="90"/>
      <point x="247" y="87" type="curve" smooth="yes"/>
      <point x="177" y="84"/>
      <point x="187" y="396"/>
      <point x="193" y="488" type="curve" smooth="yes"/>
      <point x="199" y="580"/>
      <point x="112" y="578"/>
    </contour>
  </outline>
</glyph>
<glyph name="V" format="2">
  <advance width="436"/>
  <unicode hex="0056"/>
  <outline>
    <contour>
      <point x="23" y="510" type="curve"/>
      <point x="141" y="53" type="line"/>
      <point x="141" y="53"/>
      <point x="152" y="0"/>
      <point x="233" y="0" type="curve" smooth="yes"/>
      <point x="314" y="0"/>
      <point x="324" y="60"/>
      <point x="326" y="63" type="curve" smooth="yes"/>
      <point x="328" y="66"/>
      <point x="412" y="445"/>
      <point x="412" y="445" type="curve"/>
      <point x="412" y="445"/>
      <point x="434" y="509"/>
      <point x="354" y="521" type="curve" smooth="yes"/>
      <point x="274" y="533"/>
      <point x="269" y="463"/>
      <point x="269" y="463" type="curve"/>
      <point x="233" y="195" type="line"/>
      <point x="188" y="533" type="line"/>
      <point x="188" y="533"/>
      <point x="183" y="589"/>
      <point x="97" y="583" type="curve" smooth="yes"/>
      <point x="11" y="577"/>
      <point x="23" y="510"/>
    </contour>
  </outline>
</glyph>
<glyph name="X" format="2">
  <advance width="520"/>
  <unicode hex="0058"/>
  <outline>
    <contour>
      <point x="240" y="402" type="line"/>
      <point x="299" y="539" type="line"/>
      <point x="299" y="539"/>
      <point x="311" y="591"/>
      <point x="395" y="590" type="curve" smooth="yes"/>
      <point x="479" y="589"/>
      <point x="467" y="539"/>
      <point x="447" y="505" type="curve" smooth="yes"/>
      <point x="427" y="471"/>
      <point x="313" y="296"/>
      <point x="313" y="296" type="curve"/>
      <point x="488" y="59" type="line"/>
      <point x="488" y="59"/>
      <point x="530" y="11"/>
      <point x="443" y="-13" type="curve" smooth="yes"/>
      <point x="356" y="-37"/>
      <point x="319" y="47"/>
      <point x="319" y="47" type="curve"/>
      <point x="259" y="177" type="line"/>
      <point x="208" y="35" type="line"/>
      <point x="208" y="35"/>
      <point x="201" y="0"/>
      <point x="121" y="0" type="curve" smooth="yes"/>
      <point x="41" y="0"/>
      <point x="43" y="53"/>
      <point x="57" y="79" type="curve" smooth="yes"/>
      <point x="71" y="105"/>
      <point x="182" y="288"/>
      <point x="182" y="288" type="curve"/>
      <point x="34" y="496" type="line"/>
      <point x="34" y="496"/>
      <point x="-14.2656" y="555.337"/>
      <point x="90" y="566" type="curve" smooth="yes"/>
      <point x="178" y="575"/>
      <point x="197" y="513"/>
      <point x="197" y="513" type="curve"/>
    </contour>
  </outline>
</glyph>
<glyph name="bracketleft" format="2">
  <advance width="221"/>
  <unicode hex="005B"/>
  <outline>
    <contour>
      <point x="190.001" y="0.994141" type="line"/>
      <point x="200.995" y="2.36914"/>
      <point x="212.343" y="0.99707"/>
      <point x="224" y="0.99707" type="curve" smooth="yes"/>
      <point x="256.359" y="3.15527"/>
      <point x="283.241" y="-8.24512"/>
      <point x="299.998" y="-25.002" type="curve" smooth="yes"/>
      <point x="305.331" y="-30.335"/>
      <point x="307.998" y="-37.002"/>
      <point x="307.998" y="-45.002" type="curve" smooth="yes"/>
      <point x="307.998" y="-60.2666"/>
      <point x="293.59" y="-71.0059"/>
      <point x="283.999" y="-77" type="curve" smooth="yes"/>
      <point x="266.751" y="-86.8564"/>
      <point x="248.088" y="-89.4951"/>
      <point x="224" y="-91.001" type="curve" smooth="yes"/>
      <point x="214" y="-91.001" type="line" smooth="yes"/>
      <point x="196" y="-91.668"/>
      <point x="178" y="-92.001"/>
      <point x="160" y="-92.001" type="curve" smooth="yes"/>
      <point x="142" y="-92.001"/>
      <point x="124" y="-92.334"/>
      <point x="106" y="-93.001" type="curve" smooth="yes"/>
      <point x="72.8506" y="-93.001"/>
      <point x="45.9893" y="-84.5898"/>
      <point x="29.5" y="-67.002" type="curve" smooth="yes"/>
      <point x="24.5" y="-61.6689"/>
      <point x="22" y="-55.002"/>
      <point x="22" y="-47.002" type="curve" smooth="yes"/>
      <point x="22" y="686.998" type="line" smooth="yes"/>
      <point x="22" y="722.32"/>
      <point x="70.8936" y="732.998"/>
      <point x="106" y="732.998" type="curve" smooth="yes"/>
      <point x="245" y="732.998" type="line" smooth="yes"/>
      <point x="277.81" y="732.998"/>
      <point x="304.943" y="724.658"/>
      <point x="321.5" y="706.999" type="curve" smooth="yes"/>
      <point x="326.5" y="701.666"/>
      <point x="329" y="694.999"/>
      <point x="329" y="686.999" type="curve" smooth="yes"/>
      <point x="329" y="661.473"/>
      <point x="296.789" y="648.158"/>
      <point x="276" y="644" type="curve" smooth="yes"/>
      <point x="266" y="642"/>
      <point x="255.667" y="641"/>
      <point x="245" y="641" type="curve" smooth="yes"/>
      <point x="190" y="641" type="line"/>
      <point x="190" y="82" type="line"/>
    </contour>
  </outline>
</glyph>
<glyph name="backslash" format="2">
  <advance width="443"/>
  <unicode hex="005C"/>
  <outline>
    <contour>
      <point x="238" y="93.5" type="curve" smooth="yes"/>
      <point x="168.64" y="224.926"/>
      <point x="95.9307" y="354.234"/>
      <point x="24.5" y="484.496" type="curve"/>
      <point x="17.5" y="498.496" type="line" smooth="yes"/>
      <point x="-0.191406" y="526.803"/>
      <point x="49.2549" y="540.621"/>
      <point x="72.5" y="544.494" type="curve" smooth="yes"/>
      <point x="108.827" y="549.182"/>
      <point x="153.177" y="541.481"/>
      <point x="168.501" y="518.495" type="curve" smooth="yes"/>
      <point x="173.576" y="509.614"/>
      <point x="178.021" y="498.714"/>
      <point x="183.501" y="490.495" type="curve" smooth="yes"/>
      <point x="214.111" y="432.336"/>
      <point x="244.658" y="376.359"/>
      <point x="276.5" y="319.495" type="curve" smooth="yes"/>
      <point x="304.5" y="267.495" type="line" smooth="yes"/>
      <point x="341.436" y="198.9"/>
      <point x="378.955" y="130.966"/>
      <point x="416.501" y="62.498" type="curve" smooth="yes"/>
      <point x="420.931" y="55.8525"/>
      <point x="429.232" y="43.4482"/>
      <point x="425.501" y="33.499" type="curve" smooth="yes"/>
      <point x="417.753" y="12.8389"/>
      <point x="392.233" y="6.45508"/>
      <point x="368.501" y="2.50098" type="curve" smooth="yes"/>
      <point x="332.771" y="-3.26172"/>
      <point x="287.749" y="5.62695"/>
      <point x="272.5" y="28.5" type="curve" smooth="yes"/>
      <point x="260.337" y="49.7852"/>
      <point x="249.298" y="72.0928"/>
    </contour>
  </outline>
</glyph>
<glyph name="bracketright" format="2">
  <advance width="208"/>
  <unicode hex="005D"/>
  <outline>
    <contour>
      <point x="19" y="357" type="line"/>
      <point x="19" y="496.002" type="line"/>
      <point x="19" y="641.002" type="line"/>
      <point x="-36" y="641.002" type="line" smooth="yes"/>
      <point x="-69.3291" y="641.002"/>
      <point x="-95.5908" y="649.966"/>
      <point x="-112.499" y="668.001" type="curve" smooth="yes"/>
      <point x="-117.499" y="673.334"/>
      <point x="-119.999" y="679.667"/>
      <point x="-119.999" y="687" type="curve" smooth="yes"/>
      <point x="-119.999" y="722.227"/>
      <point x="-70.79" y="733"/>
      <point x="-35.999" y="733" type="curve" smooth="yes"/>
      <point x="103.001" y="733" type="line" smooth="yes"/>
      <point x="136.15" y="733"/>
      <point x="163.012" y="724.589"/>
      <point x="179.501" y="707.001" type="curve" smooth="yes"/>
      <point x="184.501" y="701.668"/>
      <point x="187.001" y="695.001"/>
      <point x="187.001" y="687.001" type="curve" smooth="yes"/>
      <point x="187.001" y="-46.999" type="line" smooth="yes"/>
      <point x="187.001" y="-82.3213"/>
      <point x="138.107" y="-92.999"/>
      <point x="103.001" y="-92.999" type="curve" smooth="yes"/>
      <point x="85.001" y="-92.332"/>
      <point x="67.001" y="-91.999"/>
      <point x="49.001" y="-91.999" type="curve" smooth="yes"/>
      <point x="31.001" y="-91.999"/>
      <point x="13.001" y="-91.666"/>
      <point x="-4.99902" y="-90.999" type="curve" smooth="yes"/>
      <point x="-14.999" y="-90.999" type="line" smooth="yes"/>
      <point x="-48.9189" y="-88.8779"/>
      <point x="-72.3877" y="-82.6094"/>
      <point x="-90.998" y="-63.999" type="curve" smooth="yes"/>
      <point x="-96.3311" y="-58.666"/>
      <point x="-98.998" y="-52.333"/>
      <point x="-98.998" y="-45" type="curve" smooth="yes"/>
      <point x="-98.998" y="-29.7432"/>
      <point x="-84.5742" y="-17.9844"/>
      <point x="-74.999" y="-12" type="curve" smooth="yes"/>
      <point x="-58.8418" y="-3.91992"/>
      <point x="-37.9775" y="2.53223"/>
      <point x="-15" y="1" type="curve" smooth="yes"/>
      <point x="19" y="1" type="line"/>
    </contour>
  </outline>
</glyph>
<glyph name="asciicircum" format="2">
  <advance width="410"/>
  <unicode hex="005E"/>
  <outline>
    <contour>
      <point x="205" y="719" type="curve"/>
      <point x="246" y="678" type="line" smooth="yes"/>
      <point x="257" y="668"/>
      <point x="277" y="658"/>
      <point x="317" y="662" type="curve" smooth="yes"/>
      <point x="357" y="666"/>
      <point x="388.306" y="673.887"/>
      <point x="390" y="701" type="curve" smooth="yes"/>
      <point x="391" y="717"/>
      <point x="310" y="784"/>
      <point x="310" y="783" type="curve" smooth="yes"/>
      <point x="310" y="782"/>
      <point x="268" y="818"/>
      <point x="254" y="827" type="curve"/>
      <point x="254" y="827"/>
      <point x="230" y="848"/>
      <point x="180" y="848" type="curve" smooth="yes"/>
      <point x="130" y="848"/>
      <point x="112" y="824"/>
      <point x="106" y="816" type="curve" smooth="yes"/>
      <point x="100" y="808"/>
      <point x="26" y="688"/>
      <point x="26" y="688" type="curve"/>
      <point x="26" y="688"/>
      <point x="-8" y="636"/>
      <point x="88" y="636" type="curve" smooth="yes"/>
      <point x="184" y="636"/>
      <point x="173" y="674"/>
    </contour>
  </outline>
</glyph>
<glyph name="underscore" format="2">
  <advance width="575"/>
  <unicode hex="005F"/>
  <outline>
    <contour>
      <point x="153.227" y="0.99707" type="curve" smooth="yes"/>
      <point x="149.691" y="0.99707"/>
      <point x="147.23" y="0.987305"/>
      <point x="143.228" y="0.995117" type="curve" smooth="yes"/>
      <point x="142.23" y="0.99707"/>
      <point x="141.228" y="0.995117"/>
      <point x="141.228" y="0.995117" type="curve" smooth="yes"/>
      <point x="104.793" y="3.13965"/>
      <point x="65.6045" y="4.00781"/>
      <point x="39.2275" y="15.9971" type="curve" smooth="yes"/>
      <point x="31.8945" y="19.3301"/>
      <point x="28.2275" y="22.9971"/>
      <point x="28.2275" y="26.9971" type="curve" smooth="yes"/>
      <point x="28.2275" y="53.7373"/>
      <point x="156.001" y="55.999"/>
      <point x="156.001" y="55.999" type="curve"/>
      <point x="171.229" y="55.9971" type="line" smooth="yes"/>
      <point x="273.23" y="57.998"/>
      <point x="433.229" y="58.9971"/>
      <point x="433.229" y="58.9971" type="curve" smooth="yes"/>
      <point x="462.982" y="60.415"/>
      <point x="489.755" y="57.1787"/>
      <point x="516.229" y="52.999" type="curve" smooth="yes"/>
      <point x="529.699" y="50.8721"/>
      <point x="558.228" y="45.4971"/>
      <point x="558.228" y="33.4971" type="curve" smooth="yes"/>
      <point x="558.228" y="8.35156"/>
      <point x="461.401" y="6.50879"/>
      <point x="437.228" y="4.99707" type="curve" smooth="yes"/>
      <point x="426.561" y="4.33008"/>
      <point x="416.228" y="3.99707"/>
      <point x="406.228" y="3.99707" type="curve" smooth="yes"/>
      <point x="387.835" y="3.99707"/>
      <point x="370.036" y="2.27344"/>
      <point x="351.728" y="1.99707" type="curve" smooth="yes"/>
      <point x="285.561" y="0.99707"/>
      <point x="219.394" y="0.99707"/>
    </contour>
  </outline>
</glyph>
<glyph name="grave" format="2">
  <advance width="259"/>
  <unicode hex="0060"/>
  <outline>
    <contour>
      <point x="251.754" y="592.874" type="curve" smooth="yes"/>
      <point x="269.12" y="565.087"/>
      <point x="220.643" y="548.866"/>
      <point x="196.752" y="546.874" type="curve" smooth="yes"/>
      <point x="161.021" y="541.111"/>
      <point x="116" y="550"/>
      <point x="100.751" y="572.873" type="curve" smooth="yes"/>
      <point x="78.751" y="610.873" type="line" smooth="yes"/>
      <point x="68.8135" y="628.038"/>
      <point x="56.2441" y="645.885"/>
      <point x="47.251" y="663.874" type="curve" smooth="yes"/>
      <point x="43.5957" y="671.186"/>
      <point x="32.4814" y="683.485"/>
      <point x="36.752" y="694.873" type="curve" smooth="yes"/>
      <point x="43.5557" y="713.016"/>
      <point x="71.9189" y="723.053"/>
      <point x="93.752" y="724.873" type="curve" smooth="yes"/>
      <point x="129.482" y="730.636"/>
      <point x="174.504" y="721.747"/>
      <point x="189.753" y="698.874" type="curve" smooth="yes"/>
      <point x="233.753" y="622.874" type="line" smooth="yes"/>
      <point x="240.573" y="611.962"/>
      <point x="244.933" y="603.788"/>
    </contour>
  </outline>
</glyph>
<glyph name="a" format="2">
  <advance width="495"/>
  <unicode hex="0061"/>
  <outline>
    <contour>
      <point x="300" y="309.68" type="curve"/>
      <point x="316" y="147.28" type="line"/>
      <point x="316" y="147.28"/>
      <point x="293" y="78.8398"/>
      <point x="263" y="78.8398" type="curve" smooth="yes"/>
      <point x="233" y="78.8398"/>
      <point x="188" y="129.88"/>
      <point x="190" y="212.24" type="curve" smooth="yes"/>
      <point x="192" y="294.6"/>
      <point x="233" y="342.16"/>
      <point x="233" y="344.48" type="curve" smooth="yes"/>
      <point x="233" y="346.8"/>
      <point x="290" y="323.6"/>
    </contour>
    <contour>
      <point x="225" y="413" type="curve"/>
      <point x="225" y="413"/>
      <point x="27" y="413"/>
      <point x="23" y="215" type="curve" smooth="yes"/>
      <point x="19" y="17"/>
      <point x="246" y="0"/>
      <point x="246" y="0" type="curve"/>
      <point x="246" y="0"/>
      <point x="314.314" y="-2.73828"/>
      <point x="332" y="12" type="curve"/>
      <point x="332" y="12"/>
      <point x="335" y="-4"/>
      <point x="393" y="0" type="curve" smooth="yes"/>
      <point x="471.812" y="5.43555"/>
      <point x="473" y="26"/>
      <point x="473" y="82" type="curve" smooth="yes"/>
      <point x="473" y="138"/>
      <point x="444" y="329"/>
      <point x="444" y="329" type="curve"/>
      <point x="444" y="329"/>
      <point x="438" y="348"/>
      <point x="423" y="349" type="curve" smooth="yes"/>
      <point x="408" y="350"/>
      <point x="358" y="415"/>
    </contour>
  </outline>
</glyph>
<glyph name="c" format="2">
  <advance width="473"/>
  <unicode hex="0063"/>
  <outline>
    <contour>
      <point x="359" y="228" type="curve" smooth="yes"/>
      <point x="361" y="228"/>
      <point x="440" y="228"/>
      <point x="434" y="280" type="curve" smooth="yes"/>
      <point x="428" y="332"/>
      <point x="337" y="417"/>
      <point x="237" y="411" type="curve" smooth="yes"/>
      <point x="137" y="405"/>
      <point x="17" y="332"/>
      <point x="22" y="203" type="curve" smooth="yes"/>
      <point x="27" y="74"/>
      <point x="106" y="0"/>
      <point x="236" y="0" type="curve" smooth="yes"/>
      <point x="366" y="0"/>
      <point x="442" y="86"/>
      <point x="442" y="86" type="curve"/>
      <point x="442" y="86"/>
      <point x="487" y="140"/>
      <point x="384" y="143" type="curve" smooth="yes"/>
      <point x="281" y="146"/>
      <point x="280" y="104"/>
      <point x="280" y="104" type="curve"/>
      <point x="280" y="104"/>
      <point x="277" y="85"/>
      <point x="241" y="86" type="curve" smooth="yes"/>
      <point x="205" y="87"/>
      <point x="182" y="146"/>
      <point x="185" y="194" type="curve" smooth="yes"/>
      <point x="188" y="242"/>
      <point x="214" y="309"/>
      <point x="240" y="308" type="curve" smooth="yes"/>
      <point x="266" y="307"/>
      <point x="276" y="276"/>
      <point x="276" y="270" type="curve" smooth="yes"/>
      <point x="276" y="264"/>
      <point x="280.897" y="228"/>
    </contour>
  </outline>
</glyph>
<glyph name="d" format="2">
  <advance width="478"/>
  <unicode hex="0064"/>
  <outline>
    <contour>
      <point x="285" y="322" type="line"/>
      <point x="239.038" y="325.535"/>
      <point x="193" y="256"/>
      <point x="193" y="198" type="curve" smooth="yes"/>
      <point x="193" y="140"/>
      <point x="214" y="93"/>
      <point x="246" y="93" type="curve" smooth="yes"/>
      <point x="278" y="93"/>
      <point x="296" y="146"/>
      <point x="296" y="146" type="curve"/>
    </contour>
    <contour>
      <point x="356" y="652" type="curve"/>
      <point x="356" y="652"/>
      <point x="437" y="649"/>
      <point x="441" y="604" type="curve" smooth="yes"/>
      <point x="445" y="559"/>
      <point x="463" y="162"/>
      <point x="463" y="162" type="curve"/>
      <point x="463" y="162"/>
      <point x="465" y="119"/>
      <point x="437" y="85" type="curve" smooth="yes"/>
      <point x="396.568" y="35.9053"/>
      <point x="341" y="0"/>
      <point x="235" y="0" type="curve" smooth="yes"/>
      <point x="129" y="0"/>
      <point x="23" y="56"/>
      <point x="25" y="197" type="curve" smooth="yes"/>
      <point x="27" y="338"/>
      <point x="158" y="410"/>
      <point x="282" y="409" type="curve"/>
      <point x="275" y="582" type="line"/>
      <point x="275" y="582"/>
      <point x="250" y="645"/>
    </contour>
  </outline>
</glyph>
<glyph name="e" format="2">
  <advance width="481"/>
  <unicode hex="0065"/>
  <outline>
    <contour>
      <point x="170" y="218" type="curve"/>
      <point x="170" y="218"/>
      <point x="166" y="348"/>
      <point x="243" y="352" type="curve" smooth="yes"/>
      <point x="320" y="356"/>
      <point x="332" y="230"/>
    </contour>
    <contour>
      <point x="425" y="302" type="curve" smooth="yes"/>
      <point x="426" y="321"/>
      <point x="418" y="414"/>
      <point x="219" y="412" type="curve" smooth="yes"/>
      <point x="20" y="410"/>
      <point x="12" y="267"/>
      <point x="12" y="217" type="curve" smooth="yes"/>
      <point x="12" y="167"/>
      <point x="45.7236" y="-3.61621"/>
      <point x="241" y="0" type="curve" smooth="yes"/>
      <point x="403" y="3"/>
      <point x="441" y="67"/>
      <point x="441" y="67" type="curve"/>
      <point x="441" y="67"/>
      <point x="492.019" y="136"/>
      <point x="383" y="136" type="curve" smooth="yes"/>
      <point x="310" y="136"/>
      <point x="278" y="101"/>
      <point x="278" y="101" type="curve"/>
      <point x="278" y="101"/>
      <point x="203.38" y="32.7188"/>
      <point x="184" y="149" type="curve"/>
      <point x="184" y="149"/>
      <point x="416.217" y="135.123"/>
    </contour>
  </outline>
</glyph>
<glyph name="h" format="2">
  <advance width="477"/>
  <unicode hex="0068"/>
  <outline>
    <contour>
      <point x="34" y="86" type="curve"/>
      <point x="22" y="580" type="line"/>
      <point x="22" y="580"/>
      <point x="16" y="634"/>
      <point x="96" y="634" type="curve" smooth="yes"/>
      <point x="176" y="634"/>
      <point x="188" y="602"/>
      <point x="186" y="574" type="curve" smooth="yes"/>
      <point x="184" y="546"/>
      <point x="188" y="404"/>
      <point x="188" y="404" type="curve"/>
      <point x="188" y="404"/>
      <point x="313.657" y="447.301"/>
      <point x="402" y="370" type="curve" smooth="yes"/>
      <point x="450" y="328"/>
      <point x="442" y="56"/>
      <point x="442" y="56" type="curve"/>
      <point x="442" y="56"/>
      <point x="452" y="0"/>
      <point x="376" y="0" type="curve" smooth="yes"/>
      <point x="300" y="0"/>
      <point x="308" y="30"/>
      <point x="308" y="68" type="curve" smooth="yes"/>
      <point x="308" y="106"/>
      <point x="300" y="282"/>
      <point x="300" y="282" type="curve"/>
      <point x="300" y="282"/>
      <point x="300" y="332"/>
      <point x="258" y="330" type="curve" smooth="yes"/>
      <point x="216" y="328"/>
      <point x="201" y="242"/>
      <point x="201" y="220" type="curve" smooth="yes"/>
      <point x="201" y="198"/>
      <point x="203" y="70"/>
      <point x="203" y="70" type="curve"/>
      <point x="203" y="70"/>
      <point x="208" y="0"/>
      <point x="119" y="0" type="curve" smooth="yes"/>
      <point x="18" y="0"/>
      <point x="34" y="86"/>
    </contour>
  </outline>
</glyph>
<glyph name="j" format="2">
  <advance width="268"/>
  <unicode hex="006A"/>
  <outline>
    <contour>
      <point x="122" y="346" type="curve"/>
      <point x="122" y="346"/>
      <point x="205" y="345"/>
      <point x="214" y="272" type="curve" smooth="yes"/>
      <point x="223.696" y="193.349"/>
      <point x="338.856" y="-231.462"/>
      <point x="98" y="-243" type="curve" smooth="yes"/>
      <point x="-69" y="-251"/>
      <point x="-96" y="-154"/>
      <point x="-96" y="-154" type="curve"/>
      <point x="-96" y="-154"/>
      <point x="-125" y="-94"/>
      <point x="-36" y="-103" type="curve" smooth="yes"/>
      <point x="53" y="-112"/>
      <point x="52" y="-154"/>
      <point x="52" y="-154" type="curve"/>
      <point x="52" y="-154"/>
      <point x="65" y="-179"/>
      <point x="75" y="-149" type="curve" smooth="yes"/>
      <point x="85" y="-119"/>
      <point x="114.014" y="37.126"/>
      <point x="62" y="257" type="curve" smooth="yes"/>
      <point x="40" y="350"/>
      <point x="122" y="346"/>
    </contour>
    <contour>
      <point x="112" y="391" type="curve"/>
      <point x="112" y="391"/>
      <point x="182.07" y="384.821"/>
      <point x="187" y="454" type="curve" smooth="yes"/>
      <point x="192.196" y="526.923"/>
      <point x="122" y="537"/>
      <point x="105" y="535" type="curve" smooth="yes"/>
      <point x="88" y="533"/>
      <point x="19" y="542"/>
      <point x="22" y="463" type="curve" smooth="yes"/>
      <point x="25" y="384"/>
      <point x="112" y="391"/>
    </contour>
  </outline>
</glyph>
<glyph name="l" format="2">
  <advance width="233"/>
  <unicode hex="006C"/>
  <outline>
    <contour>
      <point x="110" y="602" type="curve"/>
      <point x="110" y="602"/>
      <point x="195" y="604"/>
      <point x="196" y="550" type="curve" smooth="yes"/>
      <point x="197" y="496"/>
      <point x="206" y="71"/>
      <point x="206" y="71" type="curve"/>
      <point x="206" y="71"/>
      <point x="216" y="0"/>
      <point x="127" y="0" type="curve" smooth="yes"/>
      <point x="38" y="0"/>
      <point x="33" y="43"/>
      <point x="35" y="60" type="curve" smooth="yes"/>
      <point x="37" y="77"/>
      <point x="32.7822" y="455.052"/>
      <point x="27" y="536" type="curve" smooth="yes"/>
      <point x="23" y="592"/>
      <point x="83" y="600"/>
    </contour>
  </outline>
</glyph>
<glyph name="n" format="2">
  <advance width="472"/>
  <unicode hex="006E"/>
  <outline>
    <contour>
      <point x="136" y="0" type="curve" smooth="yes"/>
      <point x="135" y="0"/>
      <point x="53" y="-7"/>
      <point x="49" y="55" type="curve" smooth="yes"/>
      <point x="45" y="117"/>
      <point x="25" y="350"/>
      <point x="25" y="350" type="curve"/>
      <point x="25" y="350"/>
      <point x="22" y="405"/>
      <point x="103" y="408" type="curve" smooth="yes"/>
      <point x="184" y="411"/>
      <point x="185" y="361"/>
      <point x="185" y="361" type="curve"/>
      <point x="185" y="361"/>
      <point x="247.073" y="398.282"/>
      <point x="314" y="402" type="curve" smooth="yes"/>
      <point x="332" y="403"/>
      <point x="437" y="416"/>
      <point x="444" y="228" type="curve" smooth="yes"/>
      <point x="451" y="40"/>
      <point x="464" y="0"/>
      <point x="377" y="0" type="curve" smooth="yes"/>
      <point x="312" y="0"/>
      <point x="306" y="32"/>
      <point x="307" y="53" type="curve" smooth="yes"/>
      <point x="308" y="74"/>
      <point x="329" y="294"/>
      <point x="283" y="290" type="curve" smooth="yes"/>
      <point x="237" y="286"/>
      <point x="203" y="216"/>
      <point x="203" y="216" type="curve"/>
      <point x="213" y="65" type="line"/>
      <point x="213" y="65"/>
      <point x="222" y="0"/>
    </contour>
  </outline>
</glyph>
<glyph name="o" format="2">
  <advance width="464"/>
  <unicode hex="006F"/>
  <outline>
    <contour>
      <point x="238" y="308" type="curve"/>
      <point x="265" y="266"/>
      <point x="285.341" y="243.325"/>
      <point x="287" y="172" type="curve" smooth="yes"/>
      <point x="289" y="86"/>
      <point x="245" y="77"/>
      <point x="233" y="78" type="curve" smooth="yes"/>
      <point x="221.858" y="78.9287"/>
      <point x="188" y="102"/>
      <point x="188" y="179" type="curve" smooth="yes"/>
      <point x="188" y="256"/>
      <point x="238" y="308"/>
    </contour>
    <contour>
      <point x="234" y="406" type="curve"/>
      <point x="234" y="406"/>
      <point x="32" y="402"/>
      <point x="26" y="191" type="curve" smooth="yes"/>
      <point x="20" y="-20"/>
      <point x="215" y="0"/>
      <point x="215" y="0" type="curve"/>
      <point x="215" y="0"/>
      <point x="458" y="-3"/>
      <point x="449" y="176" type="curve" smooth="yes"/>
      <point x="440" y="355"/>
      <point x="342" y="368"/>
      <point x="342" y="368" type="curve"/>
      <point x="342" y="368"/>
      <point x="328.623" y="378.188"/>
      <point x="315" y="385" type="curve" smooth="yes"/>
      <point x="309" y="388"/>
      <point x="283" y="410"/>
    </contour>
  </outline>
</glyph>
<glyph name="p" format="2">
  <advance width="512"/>
  <unicode hex="0070"/>
  <outline>
    <contour>
      <point x="193" y="308" type="curve"/>
      <point x="215" y="91" type="line"/>
      <point x="215" y="91"/>
      <point x="327" y="81"/>
      <point x="322" y="171" type="curve" smooth="yes"/>
      <point x="317" y="261"/>
      <point x="299" y="330"/>
      <point x="244" y="320" type="curve" smooth="yes"/>
      <point x="188.544" y="309.917"/>
      <point x="193" y="308"/>
    </contour>
    <contour>
      <point x="65" y="-143" type="curve" smooth="yes"/>
      <point x="32" y="263" type="line"/>
      <point x="32" y="263"/>
      <point x="-3" y="315"/>
      <point x="32" y="336" type="curve" smooth="yes"/>
      <point x="67" y="357"/>
      <point x="284.334" y="500.539"/>
      <point x="433" y="357" type="curve" smooth="yes"/>
      <point x="549" y="245"/>
      <point x="477" y="65"/>
      <point x="381" y="26" type="curve" smooth="yes"/>
      <point x="283.545" y="-13.5908"/>
      <point x="224" y="0"/>
      <point x="224" y="0" type="curve"/>
      <point x="234" y="-151" type="line"/>
      <point x="234" y="-151"/>
      <point x="245" y="-217"/>
      <point x="156" y="-216" type="curve" smooth="yes"/>
      <point x="67" y="-215"/>
      <point x="65" y="-168"/>
    </contour>
  </outline>
</glyph>
<glyph name="q" format="2">
  <advance width="477"/>
  <unicode hex="0071"/>
  <outline>
    <contour>
      <point x="172" y="224" type="curve"/>
      <point x="172" y="224"/>
      <point x="132" y="76"/>
      <point x="196" y="70" type="curve" smooth="yes"/>
      <point x="260" y="64"/>
      <point x="306" y="206"/>
      <point x="306" y="206" type="curve"/>
      <point x="306" y="206"/>
      <point x="352" y="338"/>
      <point x="296" y="334" type="curve" smooth="yes"/>
      <point x="240" y="330"/>
      <point x="191" y="303"/>
    </contour>
    <contour>
      <point x="334" y="410" type="curve"/>
      <point x="334" y="410"/>
      <point x="388" y="404"/>
      <point x="398" y="383" type="curve" smooth="yes"/>
      <point x="403.973" y="370.457"/>
      <point x="431" y="355"/>
      <point x="431" y="355" type="curve"/>
      <point x="431" y="355"/>
      <point x="446" y="349"/>
      <point x="445" y="321" type="curve" smooth="yes"/>
      <point x="444" y="293"/>
      <point x="426" y="-20"/>
      <point x="426" y="-20" type="curve"/>
      <point x="426" y="-20"/>
      <point x="507" y="-24"/>
      <point x="477" y="-82" type="curve" smooth="yes"/>
      <point x="447" y="-140"/>
      <point x="423" y="-220"/>
      <point x="346" y="-213" type="curve" smooth="yes"/>
      <point x="269" y="-206"/>
      <point x="265" y="-180"/>
      <point x="265" y="-112" type="curve" smooth="yes"/>
      <point x="265" y="-44"/>
      <point x="266" y="0"/>
      <point x="266" y="0" type="curve"/>
      <point x="266" y="0"/>
      <point x="22" y="-34"/>
      <point x="21" y="180" type="curve" smooth="yes"/>
      <point x="20" y="394"/>
      <point x="232" y="422"/>
    </contour>
  </outline>
</glyph>
<glyph name="s" format="2">
  <advance width="491"/>
  <unicode hex="0073"/>
  <outline>
    <contour>
      <point x="241.462" y="160" type="curve" smooth="yes"/>
      <point x="333.06" y="157.738"/>
      <point x="326" y="125"/>
      <point x="326" y="125" type="curve" smooth="yes"/>
      <point x="326" y="126"/>
      <point x="336" y="85"/>
      <point x="248" y="88" type="curve" smooth="yes"/>
      <point x="160" y="91"/>
      <point x="209" y="127"/>
      <point x="114" y="129" type="curve" smooth="yes"/>
      <point x="45.7539" y="130.483"/>
      <point x="44" y="100"/>
      <point x="44.4619" y="73" type="curve"/>
      <point x="44.4619" y="73"/>
      <point x="44" y="-5"/>
      <point x="255" y="0" type="curve" smooth="yes"/>
      <point x="450.945" y="4.64355"/>
      <point x="470" y="107"/>
      <point x="470" y="134" type="curve" smooth="yes"/>
      <point x="470" y="161"/>
      <point x="474" y="238"/>
      <point x="244.462" y="245" type="curve" smooth="yes"/>
      <point x="152.462" y="247"/>
      <point x="158.462" y="278"/>
      <point x="158.462" y="278" type="curve" smooth="yes"/>
      <point x="158.462" y="277"/>
      <point x="148.462" y="318"/>
      <point x="236.462" y="315" type="curve" smooth="yes"/>
      <point x="324.462" y="312"/>
      <point x="275.462" y="276"/>
      <point x="370.462" y="274" type="curve" smooth="yes"/>
      <point x="438.708" y="272.517"/>
      <point x="440.462" y="303"/>
      <point x="440" y="330" type="curve"/>
      <point x="440" y="330"/>
      <point x="440.462" y="408"/>
      <point x="229.462" y="403" type="curve" smooth="yes"/>
      <point x="33.5166" y="398.356"/>
      <point x="39.4619" y="296"/>
      <point x="39.4619" y="269" type="curve" smooth="yes"/>
      <point x="39.4619" y="242"/>
      <point x="39" y="165"/>
    </contour>
  </outline>
</glyph>
<glyph name="t" format="2">
  <advance width="326"/>
  <unicode hex="0074"/>
  <outline>
    <contour>
      <point x="24" y="546" type="curve" smooth="yes"/>
      <point x="32" y="49" type="line"/>
      <point x="32" y="49"/>
      <point x="30" y="0"/>
      <point x="114" y="0" type="curve" smooth="yes"/>
      <point x="198" y="0"/>
      <point x="202" y="41"/>
      <point x="202" y="55" type="curve" smooth="yes"/>
      <point x="202" y="69"/>
      <point x="198" y="377"/>
      <point x="198" y="377" type="curve"/>
      <point x="198" y="377"/>
      <point x="306" y="370"/>
      <point x="305" y="425" type="curve" smooth="yes"/>
      <point x="304" y="480"/>
      <point x="196" y="473"/>
      <point x="196" y="473" type="curve"/>
      <point x="190" y="562" type="line"/>
      <point x="190" y="562"/>
      <point x="184" y="609"/>
      <point x="110" y="605" type="curve" smooth="yes"/>
      <point x="36" y="601"/>
      <point x="23" y="579"/>
    </contour>
  </outline>
</glyph>
<glyph name="u" format="2">
  <advance width="445"/>
  <unicode hex="0075"/>
  <outline>
    <contour>
      <point x="23" y="346" type="curve"/>
      <point x="23" y="346"/>
      <point x="-19" y="0"/>
      <point x="248" y="0" type="curve" smooth="yes"/>
      <point x="515" y="0"/>
      <point x="400" y="330"/>
      <point x="400" y="330" type="curve"/>
      <point x="400" y="330"/>
      <point x="396" y="386"/>
      <point x="310" y="377" type="curve" smooth="yes"/>
      <point x="224" y="368"/>
      <point x="249" y="311"/>
      <point x="250" y="301" type="curve" smooth="yes"/>
      <point x="251" y="291"/>
      <point x="312" y="89"/>
      <point x="242" y="86" type="curve" smooth="yes"/>
      <point x="172" y="83"/>
      <point x="174" y="309"/>
      <point x="174" y="323" type="curve" smooth="yes"/>
      <point x="174" y="337"/>
      <point x="200" y="405"/>
      <point x="100" y="405" type="curve" smooth="yes"/>
      <point x="16" y="405"/>
      <point x="23" y="346"/>
    </contour>
  </outline>
</glyph>
<glyph name="w" format="2">
  <advance width="702"/>
  <unicode hex="0077"/>
  <outline>
    <contour>
      <point x="91" y="395" type="curve" smooth="yes"/>
      <point x="73.96" y="393.372"/>
      <point x="4" y="392"/>
      <point x="27" y="330" type="curve" smooth="yes"/>
      <point x="50" y="268"/>
      <point x="119" y="58"/>
      <point x="119" y="58" type="curve"/>
      <point x="119" y="58"/>
      <point x="126" y="0"/>
      <point x="205" y="0" type="curve" smooth="yes"/>
      <point x="284" y="0"/>
      <point x="295" y="38"/>
      <point x="295" y="38" type="curve"/>
      <point x="342" y="112" type="line"/>
      <point x="398" y="28" type="line"/>
      <point x="398" y="28"/>
      <point x="421" y="0"/>
      <point x="482" y="0" type="curve" smooth="yes"/>
      <point x="543" y="0"/>
      <point x="558" y="32"/>
      <point x="567" y="53" type="curve" smooth="yes"/>
      <point x="576" y="74"/>
      <point x="678" y="361"/>
      <point x="678" y="361" type="curve"/>
      <point x="678" y="361"/>
      <point x="694" y="408"/>
      <point x="614" y="413" type="curve" smooth="yes"/>
      <point x="534" y="418"/>
      <point x="520" y="393"/>
      <point x="514" y="373" type="curve" smooth="yes"/>
      <point x="508" y="353"/>
      <point x="452" y="170"/>
      <point x="452" y="170" type="curve"/>
      <point x="426" y="244" type="line"/>
      <point x="426" y="244"/>
      <point x="416" y="287"/>
      <point x="347" y="288" type="curve" smooth="yes"/>
      <point x="278" y="289"/>
      <point x="264" y="241"/>
      <point x="264" y="241" type="curve"/>
      <point x="239" y="168" type="line"/>
      <point x="188" y="354" type="line"/>
      <point x="188" y="354"/>
      <point x="181.398" y="403.635"/>
    </contour>
  </outline>
</glyph>
<glyph name="x" format="2">
  <advance width="486"/>
  <unicode hex="0078"/>
  <outline>
    <contour>
      <point x="248" y="295" type="line"/>
      <point x="303" y="371" type="line"/>
      <point x="303" y="371"/>
      <point x="322" y="403"/>
      <point x="391" y="402" type="curve" smooth="yes"/>
      <point x="460" y="401"/>
      <point x="483" y="354"/>
      <point x="454" y="327" type="curve" smooth="yes"/>
      <point x="425" y="300"/>
      <point x="340" y="204"/>
      <point x="340" y="204" type="curve"/>
      <point x="438" y="74" type="line"/>
      <point x="438" y="74"/>
      <point x="496.672" y="3.3623"/>
      <point x="379" y="0" type="curve" smooth="yes"/>
      <point x="309" y="-2"/>
      <point x="293" y="43"/>
      <point x="293" y="43" type="curve"/>
      <point x="251" y="116" type="line"/>
      <point x="196" y="28" type="line"/>
      <point x="196" y="28"/>
      <point x="189" y="0"/>
      <point x="116" y="0" type="curve" smooth="yes"/>
      <point x="43" y="0"/>
      <point x="30" y="36"/>
      <point x="66" y="81" type="curve" smooth="yes"/>
      <point x="102" y="126"/>
      <point x="154" y="201"/>
      <point x="154" y="201" type="curve"/>
      <point x="34" y="330" type="line"/>
      <point x="34" y="330"/>
      <point x="-7" y="375"/>
      <point x="73" y="397" type="curve" smooth="yes"/>
      <point x="153" y="419"/>
      <point x="180" y="373"/>
      <point x="180" y="373" type="curve"/>
    </contour>
  </outline>
</glyph>
<glyph name="y" format="2">
  <advance width="462"/>
  <unicode hex="0079"/>
  <outline>
    <contour>
      <point x="81" y="67" type="curve" smooth="yes"/>
      <point x="80" y="70"/>
      <point x="35.8877" y="117.368"/>
      <point x="23" y="321" type="curve" smooth="yes"/>
      <point x="18" y="400"/>
      <point x="70" y="404"/>
      <point x="109" y="404" type="curve"/>
      <point x="109" y="404"/>
      <point x="184" y="416"/>
      <point x="186" y="357" type="curve" smooth="yes"/>
      <point x="188" y="298"/>
      <point x="190" y="102"/>
      <point x="240" y="95" type="curve" smooth="yes"/>
      <point x="290" y="88"/>
      <point x="245" y="295"/>
      <point x="245" y="295" type="curve"/>
      <point x="245" y="295"/>
      <point x="209" y="376"/>
      <point x="298" y="379" type="curve" smooth="yes"/>
      <point x="387" y="382"/>
      <point x="402" y="342"/>
      <point x="407" y="307" type="curve" smooth="yes"/>
      <point x="412" y="272"/>
      <point x="464" y="-22"/>
      <point x="429" y="-97" type="curve" smooth="yes"/>
      <point x="394" y="-172"/>
      <point x="331" y="-237"/>
      <point x="181" y="-228" type="curve" smooth="yes"/>
      <point x="31" y="-219"/>
      <point x="12" y="-138"/>
      <point x="12" y="-138" type="curve"/>
      <point x="12" y="-138"/>
      <point x="-24" y="-65"/>
      <point x="82" y="-67" type="curve" smooth="yes"/>
      <point x="188" y="-69"/>
      <point x="165" y="-109"/>
      <point x="165" y="-109" type="curve"/>
      <point x="165" y="-109"/>
      <point x="159" y="-153"/>
      <point x="200" y="-150" type="curve" smooth="yes"/>
      <point x="241" y="-147"/>
      <point x="309.382" y="-98.7422"/>
      <point x="279" y="0" type="curve"/>
      <point x="279" y="0"/>
      <point x="162" y="-31"/>
    </contour>
  </outline>
</glyph>
<glyph name="z" format="2">
  <advance width="508"/>
  <unicode hex="007A"/>
  <outline>
    <contour>
      <point x="23" y="370" type="curve"/>
      <point x="23" y="370"/>
      <point x="24" y="420"/>
      <point x="124" y="409" type="curve" smooth="yes"/>
      <point x="224" y="398"/>
      <point x="339" y="398"/>
      <point x="339" y="398" type="curve"/>
      <point x="339" y="398"/>
      <point x="419" y="411"/>
      <point x="445" y="387" type="curve" smooth="yes"/>
      <point x="471" y="363"/>
      <point x="453" y="341"/>
      <point x="442" y="329" type="curve" smooth="yes"/>
      <point x="431" y="317"/>
      <point x="267" y="97"/>
      <point x="267" y="97" type="curve"/>
      <point x="389" y="92" type="line"/>
      <point x="389" y="92"/>
      <point x="485" y="96"/>
      <point x="485" y="48" type="curve" smooth="yes"/>
      <point x="485" y="0"/>
      <point x="404" y="0"/>
      <point x="379" y="0" type="curve" smooth="yes"/>
      <point x="354" y="0"/>
      <point x="252" y="14"/>
      <point x="162" y="0" type="curve" smooth="yes"/>
      <point x="72" y="-14"/>
      <point x="38" y="18"/>
      <point x="38" y="40" type="curve" smooth="yes"/>
      <point x="38" y="62"/>
      <point x="108" y="125"/>
      <point x="108" y="124" type="curve" smooth="yes"/>
      <point x="108" y="123"/>
      <point x="253" y="313"/>
      <point x="253" y="313" type="curve"/>
      <point x="253" y="313"/>
      <point x="23" y="306.929"/>
    </contour>
  </outline>
</glyph>
<glyph name="braceleft" format="2">
  <advance width="325"/>
  <unicode hex="007B"/>
  <outline>
    <contour>
      <point x="264" y="713" type="curve"/>
      <point x="264" y="713"/>
      <point x="111" y="702"/>
      <point x="108" y="574" type="curve" smooth="yes"/>
      <point x="105" y="446"/>
      <point x="86" y="355"/>
      <point x="53" y="342" type="curve" smooth="yes"/>
      <point x="38.2891" y="336.205"/>
      <point x="25" y="332"/>
      <point x="24" y="315" type="curve" smooth="yes"/>
      <point x="23" y="298"/>
      <point x="39.3271" y="290.918"/>
      <point x="55" y="287" type="curve" smooth="yes"/>
      <point x="79" y="281"/>
      <point x="105" y="227"/>
      <point x="106" y="102" type="curve" smooth="yes"/>
      <point x="107" y="-23"/>
      <point x="160" y="-85"/>
      <point x="270" y="-88" type="curve" smooth="yes"/>
      <point x="380" y="-91"/>
      <point x="364" y="-49"/>
      <point x="364" y="-49" type="curve"/>
      <point x="364" y="-49"/>
      <point x="353" y="-26"/>
      <point x="310" y="-13" type="curve" smooth="yes"/>
      <point x="267" y="0"/>
      <point x="269" y="12"/>
      <point x="266" y="68" type="curve" smooth="yes"/>
      <point x="263" y="124"/>
      <point x="235.782" y="285.015"/>
      <point x="201" y="314" type="curve"/>
      <point x="201" y="314"/>
      <point x="260.483" y="349.011"/>
      <point x="265" y="550" type="curve" smooth="yes"/>
      <point x="267" y="639"/>
      <point x="325" y="642"/>
      <point x="325" y="642" type="curve"/>
      <point x="325" y="642"/>
      <point x="369" y="653"/>
      <point x="364" y="678" type="curve" smooth="yes"/>
      <point x="359" y="703"/>
      <point x="304" y="714"/>
    </contour>
  </outline>
</glyph>
<glyph name="bar" format="2">
  <advance width="212"/>
  <unicode hex="007C"/>
  <outline>
    <contour>
      <point x="105.999" y="796" type="curve" smooth="yes"/>
      <point x="139.523" y="796"/>
      <point x="164.371" y="786.629"/>
      <point x="181.999" y="769.001" type="curve" smooth="yes"/>
      <point x="187.332" y="763.668"/>
      <point x="189.999" y="757.335"/>
      <point x="189.999" y="750.002" type="curve" smooth="yes"/>
      <point x="189.999" y="46.002" type="line" smooth="yes"/>
      <point x="189.999" y="11.4873"/>
      <point x="140.171" y="0.00195312"/>
      <point x="105.998" y="0.00195312" type="curve" smooth="yes"/>
      <point x="72.542" y="0.00195312"/>
      <point x="46.7676" y="8.68262"/>
      <point x="29.998" y="26.502" type="curve" smooth="yes"/>
      <point x="24.665" y="32.1689"/>
      <point x="21.998" y="38.6689"/>
      <point x="21.998" y="46.002" type="curve" smooth="yes"/>
      <point x="21.998" y="750.002" type="line" smooth="yes"/>
      <point x="21.998" y="774.973"/>
      <point x="55.3301" y="788.827"/>
      <point x="75.498" y="793" type="curve" smooth="yes"/>
      <point x="85.165" y="795"/>
      <point x="95.332" y="796"/>
    </contour>
  </outline>
</glyph>
<glyph name="asciitilde" format="2">
  <advance width="588"/>
  <unicode hex="007E"/>
  <outline>
    <contour>
      <point x="550" y="391" type="curve"/>
      <point x="550" y="389"/>
      <point x="585" y="451"/>
      <point x="457" y="449" type="curve" smooth="yes"/>
      <point x="329" y="447"/>
      <point x="333" y="404"/>
      <point x="333" y="404" type="curve"/>
      <point x="102" y="473"/>
      <point x="41" y="339"/>
      <point x="41" y="339" type="curve"/>
      <point x="29" y="313"/>
      <point x="49" y="279"/>
      <point x="142" y="276" type="curve" smooth="yes"/>
      <point x="235" y="273"/>
      <point x="255" y="311"/>
      <point x="255" y="311" type="curve"/>
      <point x="255" y="311"/>
      <point x="281" y="292"/>
      <point x="372" y="296" type="curve" smooth="yes"/>
      <point x="463" y="300"/>
      <point x="516" y="335"/>
    </contour>
    <contour>
      <point x="41" y="339" type="move" smooth="yes"/>
    </contour>
  </outline>
</glyph>
<glyph name="cent" format="2">
  <advance width="473"/>
  <unicode hex="00A2"/>
  <outline>
    <contour>
      <point x="192.383" y="137.521" type="line" smooth="yes"/>
      <point x="185" y="120"/>
      <point x="183.843" y="175.49"/>
      <point x="185" y="194" type="curve" smooth="yes"/>
      <point x="188" y="242"/>
      <point x="214" y="309"/>
      <point x="240" y="308" type="curve" smooth="yes"/>
      <point x="248.199" y="307.685"/>
      <point x="254.807" y="304.386"/>
      <point x="260.012" y="299.829" type="curve"/>
    </contour>
    <contour>
      <point x="141.758" y="16.0205" type="curve"/>
      <point x="118.769" y="-39.1523" type="line"/>
      <point x="129.846" y="-43.7676" type="line"/>
      <point x="153.09" y="12.0166" type="line"/>
      <point x="177.711" y="4.08789"/>
      <point x="205.447" y="0"/>
      <point x="236.001" y="0" type="curve" smooth="yes"/>
      <point x="366.001" y="0"/>
      <point x="442.001" y="86"/>
      <point x="442.001" y="86" type="curve"/>
      <point x="442.001" y="86"/>
      <point x="487.001" y="140"/>
      <point x="384.001" y="143" type="curve" smooth="yes"/>
      <point x="281.001" y="146"/>
      <point x="280.001" y="104"/>
      <point x="280.001" y="104" type="curve"/>
      <point x="280.001" y="104"/>
      <point x="277.001" y="85"/>
      <point x="241.001" y="86" type="curve" smooth="yes"/>
      <point x="223.226" y="86.4941"/>
      <point x="208.62" y="101.128"/>
      <point x="198.748" y="121.596" type="curve"/>
      <point x="268.68" y="289.432" type="line" smooth="yes"/>
      <point x="272" y="298"/>
      <point x="276" y="272.833"/>
      <point x="276" y="270" type="curve" smooth="yes"/>
      <point x="276" y="264"/>
      <point x="280.897" y="228"/>
      <point x="359" y="228" type="curve" smooth="yes"/>
      <point x="361" y="228"/>
      <point x="444.519" y="228.723"/>
      <point x="434" y="280" type="curve" smooth="yes"/>
      <point x="418" y="358"/>
      <point x="314.106" y="398.456"/>
      <point x="314.145" y="398.548" type="curve" smooth="yes"/>
      <point x="336" y="451" type="line"/>
      <point x="324.923" y="455.616" type="line"/>
      <point x="302.783" y="402.48" type="line"/>
      <point x="281.91" y="409.039"/>
      <point x="259.687" y="412.361"/>
      <point x="237" y="411" type="curve" smooth="yes"/>
      <point x="137" y="405"/>
      <point x="26.7432" y="332.01"/>
      <point x="22" y="203" type="curve" smooth="yes"/>
      <point x="17" y="67"/>
      <point x="141.758" y="16.0205"/>
    </contour>
  </outline>
</glyph>
<glyph name="sterling" format="2">
  <advance width="440"/>
  <unicode hex="00A3"/>
  <outline>
    <contour>
      <point x="207" y="543" type="curve"/>
      <point x="207" y="543"/>
      <point x="18" y="530"/>
      <point x="23" y="370" type="curve" smooth="yes"/>
      <point x="28" y="210"/>
      <point x="39" y="67"/>
      <point x="39" y="67" type="curve"/>
      <point x="39" y="67"/>
      <point x="33" y="0"/>
      <point x="146" y="0" type="curve" smooth="yes"/>
      <point x="259" y="0"/>
      <point x="409.104" y="5.00195"/>
      <point x="408" y="58" type="curve" smooth="yes"/>
      <point x="406.996" y="106.226"/>
      <point x="311" y="94"/>
      <point x="311" y="94" type="curve"/>
      <point x="209" y="90" type="line"/>
      <point x="209" y="162" type="line"/>
      <point x="318" y="183" type="line"/>
      <point x="318" y="183"/>
      <point x="361" y="187"/>
      <point x="358" y="225" type="curve" smooth="yes"/>
      <point x="355" y="263"/>
      <point x="278" y="259"/>
      <point x="278" y="259" type="curve"/>
      <point x="193" y="248" type="line"/>
      <point x="193" y="248"/>
      <point x="169" y="435"/>
      <point x="213" y="437" type="curve" smooth="yes"/>
      <point x="257" y="439"/>
      <point x="251" y="373"/>
      <point x="251" y="373" type="curve"/>
      <point x="251" y="373"/>
      <point x="249" y="307"/>
      <point x="334" y="311" type="curve" smooth="yes"/>
      <point x="419" y="315"/>
      <point x="418" y="355"/>
      <point x="415" y="389" type="curve" smooth="yes"/>
      <point x="412" y="423"/>
      <point x="389" y="553"/>
    </contour>
  </outline>
</glyph>
<glyph name="currency" format="2">
  <advance width="556"/>
  <unicode hex="00A4"/>
  <outline>
    <contour>
      <point x="271" y="566" type="curve"/>
      <point x="200" y="490"/>
      <point x="274" y="431"/>
      <point x="274" y="431" type="curve"/>
      <point x="338" y="518"/>
      <point x="271" y="566"/>
    </contour>
    <contour>
      <point x="206" y="656" type="curve"/>
      <point x="206" y="656"/>
      <point x="274" y="672"/>
      <point x="341" y="656" type="curve"/>
      <point x="341" y="656"/>
      <point x="373.97" y="699.759"/>
      <point x="470" y="688" type="curve" smooth="yes"/>
      <point x="568" y="676"/>
      <point x="508" y="619"/>
      <point x="508" y="619" type="curve"/>
      <point x="460" y="578" type="line"/>
      <point x="460" y="578"/>
      <point x="513" y="492"/>
      <point x="460" y="418" type="curve"/>
      <point x="508" y="379" type="line"/>
      <point x="508" y="379"/>
      <point x="590" y="324"/>
      <point x="484" y="302" type="curve" smooth="yes"/>
      <point x="378" y="280"/>
      <point x="344" y="338"/>
      <point x="344" y="338" type="curve"/>
      <point x="344" y="338"/>
      <point x="267.302" y="324.425"/>
      <point x="213" y="338" type="curve"/>
      <point x="213" y="338"/>
      <point x="190.274" y="286.498"/>
      <point x="94" y="302" type="curve" smooth="yes"/>
      <point x="-24" y="321"/>
      <point x="46" y="374"/>
      <point x="46" y="374" type="curve"/>
      <point x="86" y="410" type="line"/>
      <point x="86" y="410"/>
      <point x="24" y="485"/>
      <point x="84" y="582" type="curve"/>
      <point x="28" y="631" type="line"/>
      <point x="28" y="631"/>
      <point x="-12" y="666"/>
      <point x="70" y="687" type="curve" smooth="yes"/>
      <point x="152" y="708"/>
      <point x="206" y="656"/>
    </contour>
  </outline>
</glyph>
<glyph name="copyright" format="2">
  <advance width="504"/>
  <unicode hex="00A9"/>
  <outline>
    <contour>
      <point x="88.1299" y="214.702" type="curve" smooth="yes"/>
      <point x="88.1299" y="115.287"/>
      <point x="160.15" y="34.4072"/>
      <point x="248.79" y="34.4072" type="curve" smooth="yes"/>
      <point x="337.43" y="34.4072"/>
      <point x="409.45" y="115.287"/>
      <point x="409.45" y="214.702" type="curve" smooth="yes"/>
      <point x="409.45" y="314.117"/>
      <point x="337.43" y="394.997"/>
      <point x="248.79" y="394.997" type="curve" smooth="yes"/>
      <point x="160.15" y="394.997"/>
      <point x="88.1299" y="314.117"/>
    </contour>
    <contour>
      <point x="17" y="214" type="curve" smooth="yes"/>
      <point x="17" y="332"/>
      <point x="121" y="428"/>
      <point x="249" y="428" type="curve" smooth="yes"/>
      <point x="377" y="428"/>
      <point x="481" y="332"/>
      <point x="481" y="214" type="curve" smooth="yes"/>
      <point x="481" y="96"/>
      <point x="377" y="0"/>
      <point x="249" y="0" type="curve" smooth="yes"/>
      <point x="121" y="0"/>
      <point x="17" y="96"/>
    </contour>
    <contour>
      <point x="311.185" y="227.625" type="curve" smooth="yes"/>
      <point x="312.195" y="227.625"/>
      <point x="352.09" y="227.625"/>
      <point x="349.06" y="253.886" type="curve" smooth="yes"/>
      <point x="346.03" y="280.146"/>
      <point x="300.075" y="323.07"/>
      <point x="249.575" y="320.04" type="curve" smooth="yes"/>
      <point x="199.075" y="317.011"/>
      <point x="138.475" y="280.146"/>
      <point x="141" y="215" type="curve" smooth="yes"/>
      <point x="143.525" y="149.855"/>
      <point x="183.42" y="112.485"/>
      <point x="249.07" y="112.485" type="curve" smooth="yes"/>
      <point x="314.72" y="112.485"/>
      <point x="353.1" y="155.915"/>
      <point x="353.1" y="155.915" type="curve"/>
      <point x="353.1" y="155.915"/>
      <point x="375.825" y="183.186"/>
      <point x="323.81" y="184.7" type="curve" smooth="yes"/>
      <point x="271.795" y="186.215"/>
      <point x="271.29" y="165.005"/>
      <point x="271.29" y="165.005" type="curve"/>
      <point x="271.29" y="165.005"/>
      <point x="269.775" y="155.41"/>
      <point x="251.595" y="155.915" type="curve" smooth="yes"/>
      <point x="233.415" y="156.42"/>
      <point x="221.8" y="186.215"/>
      <point x="223.315" y="210.455" type="curve" smooth="yes"/>
      <point x="224.83" y="234.695"/>
      <point x="237.96" y="268.53"/>
      <point x="251.09" y="268.025" type="curve" smooth="yes"/>
      <point x="264.22" y="267.521"/>
      <point x="269.27" y="251.865"/>
      <point x="269.27" y="248.835" type="curve" smooth="yes"/>
      <point x="269.27" y="245.806"/>
      <point x="271.743" y="227.625"/>
    </contour>
  </outline>
</glyph>
<glyph name="ordfeminine" format="2">
  <advance width="433"/>
  <unicode hex="00AA"/>
  <outline>
    <contour>
      <point x="243.144" y="346.43" type="curve" smooth="yes"/>
      <point x="250.52" y="271.569" type="line"/>
      <point x="250.52" y="271.569"/>
      <point x="239.917" y="240.02"/>
      <point x="226.088" y="240.02" type="curve" smooth="yes"/>
      <point x="212.259" y="240.02"/>
      <point x="191.515" y="263.548"/>
      <point x="192.437" y="301.514" type="curve" smooth="yes"/>
      <point x="193.359" y="339.479"/>
      <point x="212.259" y="361.402"/>
      <point x="212.259" y="362.472" type="curve" smooth="yes"/>
      <point x="212.259" y="363.541"/>
      <point x="238.534" y="352.847"/>
    </contour>
    <contour>
      <point x="208.571" y="394.058" type="curve"/>
      <point x="208.571" y="394.058"/>
      <point x="117.299" y="394.058"/>
      <point x="115.455" y="302.785" type="curve" smooth="yes"/>
      <point x="113.611" y="211.514"/>
      <point x="218.252" y="203.677"/>
      <point x="218.252" y="203.677" type="curve"/>
      <point x="218.252" y="203.677"/>
      <point x="249.743" y="202.415"/>
      <point x="257.895" y="209.209" type="curve"/>
      <point x="257.895" y="209.209"/>
      <point x="259.277" y="201.834"/>
      <point x="286.014" y="203.677" type="curve" smooth="yes"/>
      <point x="322.344" y="206.183"/>
      <point x="322.891" y="215.662"/>
      <point x="322.891" y="241.477" type="curve" smooth="yes"/>
      <point x="322.891" y="267.291"/>
      <point x="309.523" y="355.336"/>
      <point x="309.523" y="355.336" type="curve"/>
      <point x="309.523" y="355.336"/>
      <point x="306.757" y="364.095"/>
      <point x="299.843" y="364.556" type="curve" smooth="yes"/>
      <point x="292.928" y="365.016"/>
      <point x="269.88" y="394.979"/>
    </contour>
    <contour>
      <point x="358" y="66" type="line" smooth="yes"/>
      <point x="381.925" y="66"/>
      <point x="411.002" y="54.8867"/>
      <point x="411.002" y="33.001" type="curve" smooth="yes"/>
      <point x="411.002" y="11.1279"/>
      <point x="381.9" y="0.00195312"/>
      <point x="358.002" y="0.00195312" type="curve" smooth="yes"/>
      <point x="76.002" y="0.00195312" type="line" smooth="yes"/>
      <point x="52.1611" y="0.00195312"/>
      <point x="22.001" y="11.1523"/>
      <point x="22.001" y="33.001" type="curve" smooth="yes"/>
      <point x="22.001" y="55.2471"/>
      <point x="51.3887" y="66"/>
      <point x="76" y="66" type="curve" smooth="yes"/>
    </contour>
  </outline>
</glyph>
<glyph name="degree" format="2">
  <advance width="225"/>
  <unicode hex="00B0"/>
  <outline>
    <contour>
      <point x="113" y="705" type="curve"/>
      <point x="106" y="698"/>
      <point x="102" y="692"/>
      <point x="100" y="674" type="curve" smooth="yes"/>
      <point x="98" y="656"/>
      <point x="114" y="644"/>
      <point x="114" y="644" type="curve"/>
      <point x="114" y="644"/>
      <point x="127" y="656"/>
      <point x="127" y="676" type="curve" smooth="yes"/>
      <point x="127" y="696"/>
      <point x="113" y="705"/>
    </contour>
    <contour>
      <point x="24" y="675" type="curve" smooth="yes"/>
      <point x="24" y="714"/>
      <point x="64" y="745"/>
      <point x="114" y="745" type="curve" smooth="yes"/>
      <point x="164" y="745"/>
      <point x="204" y="714"/>
      <point x="204" y="675" type="curve" smooth="yes"/>
      <point x="204" y="636"/>
      <point x="164" y="605"/>
      <point x="114" y="605" type="curve" smooth="yes"/>
      <point x="64" y="605"/>
      <point x="24" y="636"/>
    </contour>
  </outline>
</glyph>
<glyph name="periodcentered" format="2">
  <advance width="208"/>
  <unicode hex="00B7"/>
  <outline>
    <contour>
      <point x="104" y="64" type="curve" smooth="yes"/>
      <point x="59.0312" y="64"/>
      <point x="22" y="101.032"/>
      <point x="22" y="146" type="curve" smooth="yes"/>
      <point x="22" y="190.969"/>
      <point x="59.0322" y="228"/>
      <point x="104" y="228" type="curve" smooth="yes"/>
      <point x="148.969" y="228"/>
      <point x="186" y="190.968"/>
      <point x="186" y="146" type="curve" smooth="yes"/>
      <point x="186" y="101.031"/>
      <point x="148.968" y="64"/>
    </contour>
  </outline>
</glyph>
<glyph name="cedilla" format="2">
  <advance width="251"/>
  <unicode hex="00B8"/>
  <outline>
    <contour>
      <point x="103" y="6" type="curve"/>
      <point x="103" y="6"/>
      <point x="168" y="7"/>
      <point x="168" y="-18" type="curve" smooth="yes"/>
      <point x="168" y="-43"/>
      <point x="166" y="-56"/>
      <point x="173" y="-58" type="curve" smooth="yes"/>
      <point x="180" y="-60"/>
      <point x="228" y="-64"/>
      <point x="228" y="-112" type="curve" smooth="yes"/>
      <point x="228" y="-160"/>
      <point x="164" y="-168"/>
      <point x="125" y="-168" type="curve" smooth="yes"/>
      <point x="86" y="-168"/>
      <point x="22" y="-170"/>
      <point x="23" y="-148" type="curve" smooth="yes"/>
      <point x="24" y="-126"/>
      <point x="92" y="-125"/>
      <point x="92" y="-125" type="curve"/>
      <point x="92" y="-125"/>
      <point x="113" y="-130"/>
      <point x="112" y="-112" type="curve" smooth="yes"/>
      <point x="111" y="-94"/>
      <point x="92" y="-92"/>
      <point x="92" y="-92" type="curve"/>
      <point x="92" y="-92"/>
      <point x="33.9316" y="-87.8223"/>
      <point x="39" y="-27" type="curve" smooth="yes"/>
      <point x="42" y="9"/>
      <point x="103" y="6"/>
    </contour>
  </outline>
</glyph>
<glyph name="uni00B9" format="2">
  <advance width="140"/>
  <unicode hex="00B9"/>
  <outline>
    <contour>
      <point x="77.0869" y="742.25" type="curve" smooth="yes"/>
      <point x="91.2617" y="742.25"/>
      <point x="105.438" y="743.263"/>
      <point x="106.788" y="724.024" type="curve" smooth="yes"/>
      <point x="108.137" y="704.787"/>
      <point x="120.288" y="599.825"/>
      <point x="122.988" y="585.987" type="curve" smooth="yes"/>
      <point x="125.688" y="572.149"/>
      <point x="132.774" y="545.15"/>
      <point x="101.725" y="545.15" type="curve" smooth="yes"/>
      <point x="70.6748" y="545.15"/>
      <point x="71.3496" y="561.688"/>
      <point x="70.6748" y="565.4" type="curve" smooth="yes"/>
      <point x="70" y="569.112"/>
      <point x="57.5117" y="645.725"/>
      <point x="57.5117" y="645.725" type="curve"/>
      <point x="57.5117" y="645.725"/>
      <point x="14.9873" y="640.662"/>
      <point x="25.4502" y="669.012" type="curve" smooth="yes"/>
      <point x="35.9131" y="697.363"/>
      <point x="47.6768" y="742.25"/>
    </contour>
  </outline>
</glyph>
<glyph name="onequarter" format="2">
  <advance width="448"/>
  <unicode hex="00BC"/>
  <outline>
    <contour>
      <point x="217.766" y="182.113" type="curve"/>
      <point x="217.766" y="182.113"/>
      <point x="217.415" y="202.81"/>
      <point x="244.776" y="202.107" type="curve" smooth="yes"/>
      <point x="272.137" y="201.406"/>
      <point x="269.331" y="185.972"/>
      <point x="269.331" y="182.813" type="curve" smooth="yes"/>
      <point x="269.331" y="179.657"/>
      <point x="259.86" y="93.3633"/>
      <point x="259.86" y="93.3633" type="curve"/>
      <point x="292.835" y="95.8174" type="line"/>
      <point x="289.677" y="155.806" type="line"/>
      <point x="289.677" y="155.806"/>
      <point x="287.572" y="171.94"/>
      <point x="316.688" y="173.695" type="curve" smooth="yes"/>
      <point x="345.804" y="175.448"/>
      <point x="348.26" y="157.206"/>
      <point x="348.26" y="157.206" type="curve"/>
      <point x="355.625" y="19.6982" type="line"/>
      <point x="355.625" y="19.6982"/>
      <point x="358.082" y="-0.298828"/>
      <point x="327.212" y="-0.298828" type="curve" smooth="yes"/>
      <point x="296.342" y="-0.298828"/>
      <point x="296.693" y="18.6445"/>
      <point x="296.693" y="18.6445" type="curve"/>
      <point x="294.237" y="65.6514" type="line"/>
      <point x="249.337" y="60.3887" type="line"/>
      <point x="249.337" y="60.3887"/>
      <point x="212.152" y="54.0752"/>
      <point x="213.205" y="80.3848" type="curve" smooth="yes"/>
      <point x="214.258" y="106.693"/>
      <point x="216.012" y="142.474"/>
    </contour>
    <contour>
      <point x="86.0869" y="461.25" type="curve" smooth="yes"/>
      <point x="100.262" y="461.25"/>
      <point x="114.438" y="462.263"/>
      <point x="115.788" y="443.024" type="curve" smooth="yes"/>
      <point x="117.137" y="423.787"/>
      <point x="129.288" y="318.825"/>
      <point x="131.988" y="304.987" type="curve" smooth="yes"/>
      <point x="134.688" y="291.149"/>
      <point x="141.774" y="264.15"/>
      <point x="110.725" y="264.15" type="curve" smooth="yes"/>
      <point x="79.6748" y="264.15"/>
      <point x="80.3496" y="280.688"/>
      <point x="79.6748" y="284.4" type="curve" smooth="yes"/>
      <point x="79" y="288.112"/>
      <point x="66.5117" y="364.725"/>
      <point x="66.5117" y="364.725" type="curve"/>
      <point x="66.5117" y="364.725"/>
      <point x="23.9873" y="359.662"/>
      <point x="34.4502" y="388.012" type="curve" smooth="yes"/>
      <point x="44.9131" y="416.363"/>
      <point x="56.6768" y="461.25"/>
    </contour>
    <contour>
      <point x="72.5352" y="128.68" type="curve"/>
      <point x="72.5352" y="128.68"/>
      <point x="94.6738" y="121.253"/>
      <point x="107" y="133" type="curve" smooth="yes"/>
      <point x="119.781" y="145.181"/>
      <point x="321" y="337"/>
      <point x="321" y="337" type="curve"/>
      <point x="321" y="337"/>
      <point x="335.636" y="352.173"/>
      <point x="309.048" y="360.127" type="curve" smooth="yes"/>
      <point x="282.461" y="368.081"/>
      <point x="273.552" y="354.41"/>
      <point x="273.552" y="354.41" type="curve"/>
      <point x="59.8633" y="150.329" type="line"/>
      <point x="59.8633" y="150.329"/>
      <point x="45.0791" y="135.861"/>
    </contour>
  </outline>
</glyph>
<glyph name="onehalf" format="2">
  <advance width="448"/>
  <unicode hex="00BD"/>
  <outline>
    <contour>
      <point x="239.877" y="123.352" type="curve" smooth="yes"/>
      <point x="237.248" y="123.022"/>
      <point x="211.946" y="120.065"/>
      <point x="212.933" y="148.982" type="curve" smooth="yes"/>
      <point x="213.918" y="177.899"/>
      <point x="237.577" y="194.329"/>
      <point x="272.737" y="194" type="curve" smooth="yes"/>
      <point x="307.897" y="193.672"/>
      <point x="345.357" y="183.485"/>
      <point x="345.687" y="143.396" type="curve" smooth="yes"/>
      <point x="346.015" y="103.307"/>
      <point x="283.581" y="39.2295"/>
      <point x="282.924" y="39.2295" type="curve" smooth="yes"/>
      <point x="282.267" y="39.2295"/>
      <point x="320.056" y="44.4873"/>
      <point x="320.056" y="44.4873" type="curve"/>
      <point x="320.056" y="44.4873"/>
      <point x="345.029" y="46.7871"/>
      <point x="347" y="32" type="curve" smooth="yes"/>
      <point x="348.973" y="17.2139"/>
      <point x="341.415" y="14.2568"/>
      <point x="331.557" y="12.6143" type="curve" smooth="yes"/>
      <point x="321.698" y="10.9697"/>
      <point x="244.149" y="1.44141"/>
      <point x="244.149" y="1.44141" type="curve"/>
      <point x="244.149" y="1.44141"/>
      <point x="224.433" y="0.78418"/>
      <point x="220.49" y="9.32715" type="curve" smooth="yes"/>
      <point x="216.547" y="17.8711"/>
      <point x="216.547" y="21.1572"/>
      <point x="227.391" y="33.3154" type="curve" smooth="yes"/>
      <point x="238.234" y="45.4736"/>
      <point x="289.167" y="105.279"/>
      <point x="289.824" y="138.139" type="curve" smooth="yes"/>
      <point x="290.482" y="170.999"/>
      <point x="280.952" y="168.699"/>
      <point x="278.98" y="168.699" type="curve" smooth="yes"/>
      <point x="277.01" y="168.699"/>
      <point x="263.865" y="166.397"/>
      <point x="263.865" y="153.582" type="curve" smooth="yes"/>
      <point x="263.865" y="140.768"/>
      <point x="268.899" y="126.979"/>
    </contour>
    <contour>
      <point x="86.0869" y="461.25" type="curve" smooth="yes"/>
      <point x="100.262" y="461.25"/>
      <point x="114.438" y="462.263"/>
      <point x="115.788" y="443.024" type="curve" smooth="yes"/>
      <point x="117.137" y="423.787"/>
      <point x="129.288" y="318.825"/>
      <point x="131.988" y="304.987" type="curve" smooth="yes"/>
      <point x="134.688" y="291.149"/>
      <point x="141.774" y="264.15"/>
      <point x="110.725" y="264.15" type="curve" smooth="yes"/>
      <point x="79.6748" y="264.15"/>
      <point x="80.3496" y="280.688"/>
      <point x="79.6748" y="284.4" type="curve" smooth="yes"/>
      <point x="79" y="288.112"/>
      <point x="66.5117" y="364.725"/>
      <point x="66.5117" y="364.725" type="curve"/>
      <point x="66.5117" y="364.725"/>
      <point x="23.9873" y="359.662"/>
      <point x="34.4502" y="388.012" type="curve" smooth="yes"/>
      <point x="44.9131" y="416.363"/>
      <point x="56.6768" y="461.25"/>
    </contour>
    <contour>
      <point x="72.5352" y="128.68" type="curve"/>
      <point x="72.5352" y="128.68"/>
      <point x="94.6738" y="121.253"/>
      <point x="107" y="133" type="curve" smooth="yes"/>
      <point x="119.781" y="145.181"/>
      <point x="321" y="337"/>
      <point x="321" y="337" type="curve"/>
      <point x="321" y="337"/>
      <point x="335.636" y="352.173"/>
      <point x="309.048" y="360.127" type="curve" smooth="yes"/>
      <point x="282.461" y="368.081"/>
      <point x="273.552" y="354.41"/>
      <point x="273.552" y="354.41" type="curve"/>
      <point x="59.8633" y="150.329" type="line"/>
      <point x="59.8633" y="150.329"/>
      <point x="45.0791" y="135.861"/>
    </contour>
  </outline>
</glyph>
<glyph name="threequarters" format="2">
  <advance width="448"/>
  <unicode hex="00BE"/>
  <outline>
    <contour>
      <point x="25.4375" y="444.932" type="curve" smooth="yes"/>
      <point x="24.3682" y="450.279"/>
      <point x="23.7598" y="471.01"/>
      <point x="77.1299" y="474.521" type="curve" smooth="yes"/>
      <point x="131.318" y="478.086"/>
      <point x="149.499" y="452.775"/>
      <point x="152.352" y="431.741" type="curve" smooth="yes"/>
      <point x="155.203" y="410.708"/>
      <point x="150.568" y="396.092"/>
      <point x="144.509" y="393.24" type="curve"/>
      <point x="144.509" y="393.24"/>
      <point x="169.106" y="390.031"/>
      <point x="171.602" y="341.903" type="curve" smooth="yes"/>
      <point x="174.098" y="293.776"/>
      <point x="162.334" y="266.682"/>
      <point x="104.581" y="266.682" type="curve" smooth="yes"/>
      <point x="46.8271" y="266.682"/>
      <point x="27.5771" y="290.211"/>
      <point x="27.5771" y="309.462" type="curve" smooth="yes"/>
      <point x="27.5771" y="328.713"/>
      <point x="49.3223" y="332.635"/>
      <point x="50.749" y="332.635" type="curve" smooth="yes"/>
      <point x="52.1748" y="332.635"/>
      <point x="82.1211" y="336.199"/>
      <point x="84.6162" y="316.235" type="curve" smooth="yes"/>
      <point x="87.1123" y="296.271"/>
      <point x="101.372" y="295.559"/>
      <point x="101.372" y="295.559" type="curve"/>
      <point x="101.372" y="295.559"/>
      <point x="116.702" y="291.637"/>
      <point x="113.85" y="331.564" type="curve" smooth="yes"/>
      <point x="110.998" y="371.493"/>
      <point x="95.3115" y="372.562"/>
      <point x="91.3896" y="372.562" type="curve" smooth="yes"/>
      <point x="87.4688" y="372.562"/>
      <point x="63.583" y="371.493"/>
      <point x="64.2959" y="384.327" type="curve" smooth="yes"/>
      <point x="65.0088" y="397.16"/>
      <point x="78.5566" y="398.944"/>
      <point x="80.3389" y="399.3" type="curve" smooth="yes"/>
      <point x="82.1211" y="399.656"/>
      <point x="97.0938" y="400.369"/>
      <point x="94.5977" y="422.116" type="curve" smooth="yes"/>
      <point x="92.1025" y="443.862"/>
      <point x="73.5645" y="439.585"/>
      <point x="72.4951" y="439.585" type="curve" smooth="yes"/>
      <point x="71.4258" y="439.585"/>
      <point x="28.9502" y="427.366"/>
    </contour>
    <contour>
      <point x="237.766" y="182.113" type="curve"/>
      <point x="237.766" y="182.113"/>
      <point x="237.415" y="202.81"/>
      <point x="264.776" y="202.107" type="curve" smooth="yes"/>
      <point x="292.137" y="201.406"/>
      <point x="289.331" y="185.972"/>
      <point x="289.331" y="182.813" type="curve" smooth="yes"/>
      <point x="289.331" y="179.657"/>
      <point x="279.86" y="93.3633"/>
      <point x="279.86" y="93.3633" type="curve"/>
      <point x="312.835" y="95.8174" type="line"/>
      <point x="309.677" y="155.806" type="line"/>
      <point x="309.677" y="155.806"/>
      <point x="307.572" y="171.94"/>
      <point x="336.688" y="173.695" type="curve" smooth="yes"/>
      <point x="365.804" y="175.448"/>
      <point x="368.26" y="157.206"/>
      <point x="368.26" y="157.206" type="curve"/>
      <point x="375.625" y="19.6982" type="line"/>
      <point x="375.625" y="19.6982"/>
      <point x="378.082" y="-0.298828"/>
      <point x="347.212" y="-0.298828" type="curve" smooth="yes"/>
      <point x="316.342" y="-0.298828"/>
      <point x="316.693" y="18.6445"/>
      <point x="316.693" y="18.6445" type="curve"/>
      <point x="314.237" y="65.6514" type="line"/>
      <point x="269.337" y="60.3887" type="line"/>
      <point x="269.337" y="60.3887"/>
      <point x="232.152" y="54.0752"/>
      <point x="233.205" y="80.3848" type="curve" smooth="yes"/>
      <point x="234.258" y="106.693"/>
      <point x="236.012" y="142.474"/>
    </contour>
    <contour>
      <point x="92.5352" y="128.68" type="curve"/>
      <point x="92.5352" y="128.68"/>
      <point x="114.674" y="121.253"/>
      <point x="127" y="133" type="curve" smooth="yes"/>
      <point x="139.781" y="145.181"/>
      <point x="341" y="337"/>
      <point x="341" y="337" type="curve"/>
      <point x="341" y="337"/>
      <point x="355.636" y="352.173"/>
      <point x="329.048" y="360.127" type="curve" smooth="yes"/>
      <point x="302.461" y="368.081"/>
      <point x="293.552" y="354.41"/>
      <point x="293.552" y="354.41" type="curve"/>
      <point x="79.8633" y="150.329" type="line"/>
      <point x="79.8633" y="150.329"/>
      <point x="65.0791" y="135.861"/>
    </contour>
  </outline>
</glyph>
<glyph name="questiondown" format="2">
  <advance width="417"/>
  <unicode hex="00BF"/>
  <outline>
    <contour>
      <point x="204.49" y="123.152" type="curve"/>
      <point x="204.49" y="123.152"/>
      <point x="286.589" y="132.307"/>
      <point x="285.867" y="62.3096" type="curve" smooth="yes"/>
      <point x="285.146" y="-7.68652"/>
      <point x="226.129" y="-9.07812"/>
      <point x="213.108" y="-10.9434" type="curve" smooth="yes"/>
      <point x="199.901" y="-12.8359"/>
      <point x="158.086" y="5.55762"/>
      <point x="161.885" y="-129.422" type="curve" smooth="yes"/>
      <point x="164.812" y="-233.458"/>
      <point x="207.934" y="-221.901"/>
      <point x="207.923" y="-222.901" type="curve" smooth="yes"/>
      <point x="207.913" y="-223.901"/>
      <point x="248.941" y="-221.324"/>
      <point x="245.57" y="-160.286" type="curve" smooth="yes"/>
      <point x="242.2" y="-99.248"/>
      <point x="208.748" y="-45.9004"/>
      <point x="300.712" y="-49.8486" type="curve" smooth="yes"/>
      <point x="392.677" y="-53.7969"/>
      <point x="389.985" y="-120.773"/>
      <point x="387.543" y="-163.75" type="curve" smooth="yes"/>
      <point x="385.1" y="-206.728"/>
      <point x="369.11" y="-302.567"/>
      <point x="206.047" y="-307.887" type="curve" smooth="yes"/>
      <point x="42.9834" y="-313.206"/>
      <point x="21.8096" y="-232.983"/>
      <point x="17.8916" y="-127.938" type="curve" smooth="yes"/>
      <point x="13.9746" y="-22.8916"/>
      <point x="66.9023" y="45.9443"/>
      <point x="119.918" y="68.0215" type="curve"/>
      <point x="119.918" y="68.0215"/>
      <point x="119.525" y="127.028"/>
    </contour>
    <contour>
      <point x="213.841" y="157.058" type="curve"/>
      <point x="213.841" y="157.058"/>
      <point x="131.763" y="149.903"/>
      <point x="119.382" y="210.034" type="curve" smooth="yes"/>
      <point x="107.001" y="270.165"/>
      <point x="193.985" y="268.269"/>
      <point x="193.985" y="268.269" type="curve"/>
      <point x="193.985" y="268.269"/>
      <point x="279.022" y="271.392"/>
      <point x="284.507" y="221.332" type="curve" smooth="yes"/>
      <point x="289.991" y="171.273"/>
      <point x="257.858" y="158.604"/>
    </contour>
  </outline>
</glyph>
<glyph name="Aacute" format="2">
  <advance width="545"/>
  <unicode hex="00C1"/>
  <outline>
    <contour>
      <point x="123.504" y="540" type="curve" smooth="yes"/>
      <point x="123" y="540"/>
      <point x="127.002" y="584.869"/>
      <point x="205" y="586" type="curve" smooth="yes"/>
      <point x="274" y="587"/>
      <point x="288.501" y="549.999"/>
      <point x="288.501" y="549.999" type="curve"/>
      <point x="288.501" y="549.999"/>
      <point x="498" y="76"/>
      <point x="515" y="38" type="curve" smooth="yes"/>
      <point x="532" y="0"/>
      <point x="523" y="0"/>
      <point x="523.499" y="-3.00195" type="curve" smooth="yes"/>
      <point x="513" y="-22"/>
      <point x="485" y="-38"/>
      <point x="446" y="-39" type="curve" smooth="yes"/>
      <point x="366.969" y="-41.0264"/>
      <point x="359" y="0"/>
      <point x="359.502" y="-3.00195" type="curve" smooth="yes"/>
      <point x="359.502" y="-3.00195"/>
      <point x="323" y="81"/>
      <point x="299" y="135" type="curve"/>
      <point x="299" y="135"/>
      <point x="209" y="135"/>
      <point x="208.505" y="134.999" type="curve" smooth="yes"/>
      <point x="202.348" y="106.268"/>
      <point x="190.505" y="47.999"/>
      <point x="190.505" y="47.999" type="curve"/>
      <point x="190.505" y="47.999"/>
      <point x="188" y="0"/>
      <point x="100" y="0" type="curve" smooth="yes"/>
      <point x="12" y="0"/>
      <point x="23" y="50"/>
      <point x="22.5049" y="50" type="curve"/>
      <point x="33.5059" y="97.6719"/>
      <point x="125" y="538"/>
    </contour>
    <contour>
      <point x="229.498" y="381.999" type="curve"/>
      <point x="228.831" y="379.332"/>
      <point x="227.994" y="373.999"/>
      <point x="226.994" y="365.999" type="curve" smooth="yes"/>
      <point x="223.494" y="337.999" type="line" smooth="yes"/>
      <point x="219.626" y="307.047"/>
      <point x="215.602" y="270.546"/>
      <point x="211.996" y="240.498" type="curve" smooth="yes"/>
      <point x="210.996" y="232.165"/>
      <point x="210.163" y="226.998"/>
      <point x="209.496" y="224.998" type="curve" smooth="yes"/>
      <point x="222.496" y="224.998" type="line" smooth="yes"/>
      <point x="238.486" y="224.998"/>
      <point x="258.398" y="226.997"/>
      <point x="273.497" y="226.997" type="curve"/>
      <point x="268.113" y="237.77"/>
      <point x="265.215" y="256.003"/>
      <point x="260.998" y="270.997" type="curve" smooth="yes"/>
      <point x="252.521" y="301.139"/>
      <point x="242.326" y="336.487"/>
      <point x="234.498" y="366.498" type="curve" smooth="yes"/>
      <point x="232.498" y="374.165"/>
      <point x="230.831" y="379.332"/>
    </contour>
    <contour>
      <point x="190" y="603" type="curve" smooth="yes"/>
      <point x="168.046" y="606.658"/>
      <point x="141.579" y="614.554"/>
      <point x="134" y="633.501" type="curve" smooth="yes"/>
      <point x="129.804" y="643.992"/>
      <point x="139.979" y="657.961"/>
      <point x="144.001" y="665.001" type="curve" smooth="yes"/>
      <point x="161.093" y="694.911"/>
      <point x="180.6" y="724.945"/>
      <point x="198.001" y="755.004" type="curve" smooth="yes"/>
      <point x="219.124" y="797.255"/>
      <point x="334.874" y="789.321"/>
      <point x="350.001" y="751.503" type="curve" smooth="yes"/>
      <point x="352.001" y="746.503"/>
      <point x="351.334" y="741.003"/>
      <point x="348.001" y="735.003" type="curve" smooth="yes"/>
      <point x="327.621" y="698.771"/>
      <point x="306.688" y="665.735"/>
      <point x="286" y="630" type="curve" smooth="yes"/>
      <point x="279.619" y="617.236"/>
      <point x="264.22" y="612.266"/>
      <point x="250" y="608" type="curve" smooth="yes"/>
      <point x="230.667" y="602.667"/>
      <point x="210.667" y="601"/>
    </contour>
  </outline>
</glyph>
<glyph name="Acircumflex" format="2">
  <advance width="566"/>
  <unicode hex="00C2"/>
  <outline>
    <contour>
      <point x="143.504" y="540" type="curve" smooth="yes"/>
      <point x="143" y="540"/>
      <point x="147.002" y="584.869"/>
      <point x="225" y="586" type="curve" smooth="yes"/>
      <point x="294" y="587"/>
      <point x="308.501" y="549.999"/>
      <point x="308.501" y="549.999" type="curve"/>
      <point x="308.501" y="549.999"/>
      <point x="518" y="76"/>
      <point x="535" y="38" type="curve" smooth="yes"/>
      <point x="552" y="0"/>
      <point x="543" y="0"/>
      <point x="543.499" y="-3.00195" type="curve" smooth="yes"/>
      <point x="533" y="-22"/>
      <point x="505" y="-38"/>
      <point x="466" y="-39" type="curve" smooth="yes"/>
      <point x="386.969" y="-41.0264"/>
      <point x="379" y="0"/>
      <point x="379.502" y="-3.00195" type="curve" smooth="yes"/>
      <point x="379.502" y="-3.00195"/>
      <point x="343" y="81"/>
      <point x="319" y="135" type="curve"/>
      <point x="319" y="135"/>
      <point x="229" y="135"/>
      <point x="228.505" y="134.999" type="curve" smooth="yes"/>
      <point x="222.348" y="106.268"/>
      <point x="210.505" y="47.999"/>
      <point x="210.505" y="47.999" type="curve"/>
      <point x="210.505" y="47.999"/>
      <point x="208" y="0"/>
      <point x="120" y="0" type="curve" smooth="yes"/>
      <point x="32" y="0"/>
      <point x="43" y="50"/>
      <point x="42.5049" y="50" type="curve"/>
      <point x="53.5059" y="97.6719"/>
      <point x="145" y="538"/>
    </contour>
    <contour>
      <point x="249.498" y="381.999" type="curve"/>
      <point x="248.831" y="379.332"/>
      <point x="247.994" y="373.999"/>
      <point x="246.994" y="365.999" type="curve" smooth="yes"/>
      <point x="243.494" y="337.999" type="line" smooth="yes"/>
      <point x="239.626" y="307.047"/>
      <point x="235.602" y="270.546"/>
      <point x="231.996" y="240.498" type="curve" smooth="yes"/>
      <point x="230.996" y="232.165"/>
      <point x="230.163" y="226.998"/>
      <point x="229.496" y="224.998" type="curve" smooth="yes"/>
      <point x="242.496" y="224.998" type="line" smooth="yes"/>
      <point x="258.486" y="224.998"/>
      <point x="278.398" y="226.997"/>
      <point x="293.497" y="226.997" type="curve"/>
      <point x="288.113" y="237.77"/>
      <point x="285.215" y="256.003"/>
      <point x="280.998" y="270.997" type="curve" smooth="yes"/>
      <point x="272.521" y="301.139"/>
      <point x="262.326" y="336.487"/>
      <point x="254.498" y="366.498" type="curve" smooth="yes"/>
      <point x="252.498" y="374.165"/>
      <point x="250.831" y="379.332"/>
    </contour>
    <contour>
      <point x="90" y="608" type="curve"/>
      <point x="90" y="608"/>
      <point x="156" y="602"/>
      <point x="176" y="634" type="curve" smooth="yes"/>
      <point x="196" y="666"/>
      <point x="206" y="686"/>
      <point x="206" y="686" type="curve"/>
      <point x="247" y="650" type="line"/>
      <point x="247" y="650"/>
      <point x="266" y="629"/>
      <point x="326" y="634" type="curve" smooth="yes"/>
      <point x="386" y="639"/>
      <point x="402" y="672"/>
      <point x="383" y="688" type="curve" smooth="yes"/>
      <point x="364" y="704"/>
      <point x="245" y="804"/>
      <point x="245" y="804" type="curve"/>
      <point x="245" y="804"/>
      <point x="224" y="822"/>
      <point x="182" y="819" type="curve" smooth="yes"/>
      <point x="140" y="816"/>
      <point x="120" y="808"/>
      <point x="110" y="792" type="curve" smooth="yes"/>
      <point x="100" y="776"/>
      <point x="26" y="656"/>
      <point x="25" y="656" type="curve" smooth="yes"/>
      <point x="24" y="656"/>
      <point x="-3.05957" y="607"/>
    </contour>
  </outline>
</glyph>
<glyph name="Aring" format="2">
  <advance width="545"/>
  <unicode hex="00C5"/>
  <outline>
    <contour>
      <point x="123.504" y="540" type="curve" smooth="yes"/>
      <point x="123" y="540"/>
      <point x="127.002" y="584.869"/>
      <point x="205" y="586" type="curve" smooth="yes"/>
      <point x="274" y="587"/>
      <point x="288.501" y="549.999"/>
      <point x="288.501" y="549.999" type="curve"/>
      <point x="288.501" y="549.999"/>
      <point x="498" y="76"/>
      <point x="515" y="38" type="curve" smooth="yes"/>
      <point x="532" y="0"/>
      <point x="523" y="0"/>
      <point x="523.499" y="-3.00195" type="curve" smooth="yes"/>
      <point x="513" y="-22"/>
      <point x="485" y="-38"/>
      <point x="446" y="-39" type="curve" smooth="yes"/>
      <point x="366.969" y="-41.0264"/>
      <point x="359" y="0"/>
      <point x="359.502" y="-3.00195" type="curve" smooth="yes"/>
      <point x="359.502" y="-3.00195"/>
      <point x="323" y="81"/>
      <point x="299" y="135" type="curve"/>
      <point x="299" y="135"/>
      <point x="209" y="135"/>
      <point x="208.505" y="134.999" type="curve" smooth="yes"/>
      <point x="202.348" y="106.268"/>
      <point x="190.505" y="47.999"/>
      <point x="190.505" y="47.999" type="curve"/>
      <point x="190.505" y="47.999"/>
      <point x="188" y="0"/>
      <point x="100" y="0" type="curve" smooth="yes"/>
      <point x="12" y="0"/>
      <point x="23" y="50"/>
      <point x="22.5049" y="50" type="curve"/>
      <point x="33.5059" y="97.6719"/>
      <point x="125" y="538"/>
    </contour>
    <contour>
      <point x="229.498" y="381.999" type="curve"/>
      <point x="228.831" y="379.332"/>
      <point x="227.994" y="373.999"/>
      <point x="226.994" y="365.999" type="curve" smooth="yes"/>
      <point x="223.494" y="337.999" type="line" smooth="yes"/>
      <point x="219.626" y="307.047"/>
      <point x="215.602" y="270.546"/>
      <point x="211.996" y="240.498" type="curve" smooth="yes"/>
      <point x="210.996" y="232.165"/>
      <point x="210.163" y="226.998"/>
      <point x="209.496" y="224.998" type="curve" smooth="yes"/>
      <point x="222.496" y="224.998" type="line" smooth="yes"/>
      <point x="238.486" y="224.998"/>
      <point x="258.398" y="226.997"/>
      <point x="273.497" y="226.997" type="curve"/>
      <point x="268.113" y="237.77"/>
      <point x="265.215" y="256.003"/>
      <point x="260.998" y="270.997" type="curve" smooth="yes"/>
      <point x="252.521" y="301.139"/>
      <point x="242.326" y="336.487"/>
      <point x="234.498" y="366.498" type="curve" smooth="yes"/>
      <point x="232.498" y="374.165"/>
      <point x="230.831" y="379.332"/>
    </contour>
    <contour>
      <point x="288.993" y="679.001" type="curve" smooth="yes"/>
      <point x="288.993" y="632.271"/>
      <point x="244.775" y="608"/>
      <point x="198.992" y="608" type="curve" smooth="yes"/>
      <point x="151.829" y="608"/>
      <point x="115.011" y="630.135"/>
      <point x="107.992" y="670.502" type="curve" smooth="yes"/>
      <point x="95.4014" y="742.922"/>
      <point x="203.56" y="773.408"/>
      <point x="260.494" y="732" type="curve" smooth="yes"/>
      <point x="274.668" y="721.691"/>
      <point x="291.206" y="703.331"/>
    </contour>
    <contour>
      <point x="210.992" y="673.502" type="curve" smooth="yes"/>
      <point x="210.99" y="685.002" type="line" smooth="yes"/>
      <point x="210.99" y="694.136"/>
      <point x="206.674" y="701.317"/>
      <point x="201.99" y="706.001" type="curve" smooth="yes"/>
      <point x="201.063" y="706.928"/>
      <point x="200.441" y="709.002"/>
      <point x="198.991" y="709.002" type="curve" smooth="yes"/>
      <point x="198.324" y="708.335"/>
      <point x="196.991" y="707.335"/>
      <point x="194.991" y="706.002" type="curve" smooth="yes"/>
      <point x="184.09" y="691.465"/>
      <point x="182.736" y="668.347"/>
      <point x="194.993" y="652.003" type="curve" smooth="yes"/>
      <point x="196.326" y="650.67"/>
      <point x="197.659" y="649.67"/>
      <point x="198.992" y="649.003" type="curve" smooth="yes"/>
      <point x="204.727" y="654.737"/>
      <point x="210.992" y="662.745"/>
    </contour>
  </outline>
</glyph>
<glyph name="AE" format="2">
  <advance width="814"/>
  <unicode hex="00C6"/>
  <outline>
    <contour>
      <point x="462.999" y="549.002" type="line" smooth="yes"/>
      <point x="472.476" y="551.371"/>
      <point x="482.016" y="552.001"/>
      <point x="492.996" y="552.001" type="curve" smooth="yes"/>
      <point x="707.996" y="552.001" type="line" smooth="yes"/>
      <point x="741.1" y="552.001"/>
      <point x="767.165" y="543.387"/>
      <point x="783.997" y="525.501" type="curve" smooth="yes"/>
      <point x="789.33" y="519.834"/>
      <point x="791.997" y="513.334"/>
      <point x="791.997" y="506.001" type="curve" smooth="yes"/>
      <point x="791.997" y="490.656"/>
      <point x="777.846" y="478.822"/>
      <point x="766.997" y="474" type="curve" smooth="yes"/>
      <point x="750.305" y="464.462"/>
      <point x="732.495" y="460"/>
      <point x="707.998" y="460" type="curve" smooth="yes"/>
      <point x="672.998" y="460" type="line"/>
      <point x="577.995" y="459.992" type="line"/>
      <point x="577.995" y="404.992" type="line" smooth="yes"/>
      <point x="579.341" y="365.999"/>
      <point x="577.652" y="330.989"/>
      <point x="578.998" y="291.994" type="curve" smooth="yes"/>
      <point x="578.998" y="263.994" type="line"/>
      <point x="588.998" y="263.994" type="line" smooth="yes"/>
      <point x="622.058" y="266.062"/>
      <point x="649.091" y="254.497"/>
      <point x="665.498" y="236.997" type="curve" smooth="yes"/>
      <point x="670.498" y="231.664"/>
      <point x="672.998" y="224.997"/>
      <point x="672.998" y="216.997" type="curve" smooth="yes"/>
      <point x="672.998" y="191.673"/>
      <point x="641.123" y="178.021"/>
      <point x="619.998" y="174.5" type="curve" smooth="yes"/>
      <point x="609.998" y="172.833"/>
      <point x="599.665" y="171.666"/>
      <point x="588.998" y="170.999" type="curve" smooth="yes"/>
      <point x="579.998" y="170.999" type="line"/>
      <point x="579.998" y="92.999" type="line"/>
      <point x="695.998" y="92.999" type="line" smooth="yes"/>
      <point x="728.819" y="92.999"/>
      <point x="755.826" y="83.7812"/>
      <point x="772.497" y="66" type="curve" smooth="yes"/>
      <point x="777.497" y="60.667"/>
      <point x="779.997" y="54.334"/>
      <point x="779.997" y="47.001" type="curve" smooth="yes"/>
      <point x="779.997" y="31.7441"/>
      <point x="765.573" y="19.9854"/>
      <point x="755.998" y="14.001" type="curve" smooth="yes"/>
      <point x="739.533" y="5.76758"/>
      <point x="719.002" y="1.00098"/>
      <point x="695.999" y="1.00098" type="curve" smooth="yes"/>
      <point x="495.999" y="1.00098" type="line" smooth="yes"/>
      <point x="462.896" y="1.00098"/>
      <point x="436.83" y="9.61523"/>
      <point x="419.998" y="27.501" type="curve" smooth="yes"/>
      <point x="414.665" y="33.168"/>
      <point x="411.998" y="39.668"/>
      <point x="411.998" y="47.001" type="curve" smooth="yes"/>
      <point x="411.998" y="169.001" type="line"/>
      <point x="383.998" y="169.001"/>
      <point x="355.998" y="168.001"/>
      <point x="327.998" y="168.001" type="curve" smooth="yes"/>
      <point x="308.998" y="168.001" type="line" smooth="yes"/>
      <point x="302.998" y="168.001"/>
      <point x="296.665" y="167.668"/>
      <point x="289.998" y="167.001" type="curve"/>
      <point x="265.463" y="138.378"/>
      <point x="243.13" y="106.075"/>
      <point x="218.497" y="77.5" type="curve" smooth="yes"/>
      <point x="203.645" y="60.2695"/>
      <point x="189.604" y="42.5293"/>
      <point x="174.997" y="25" type="curve" smooth="yes"/>
      <point x="162.788" y="13.8086"/>
      <point x="145.464" y="7.86816"/>
      <point x="125.998" y="3" type="curve" smooth="yes"/>
      <point x="90.6328" y="-1.41992"/>
      <point x="61.1914" y="5.67578"/>
      <point x="38.498" y="18.501" type="curve" smooth="yes"/>
      <point x="19.8877" y="29.0186"/>
      <point x="13.1562" y="54.1582"/>
      <point x="30.998" y="72" type="curve" smooth="yes"/>
      <point x="31.665" y="72.667"/>
      <point x="31.998" y="73.334"/>
      <point x="31.998" y="74.001" type="curve" smooth="yes"/>
      <point x="41.5361" y="86.2627"/>
      <point x="52.9004" y="98.0039"/>
      <point x="61.998" y="111.001" type="curve" smooth="yes"/>
      <point x="89.998" y="145.001" type="line" smooth="yes"/>
      <point x="171.215" y="243.622"/>
      <point x="250.652" y="343.748"/>
      <point x="330.998" y="443.001" type="curve" smooth="yes"/>
      <point x="349.803" y="468.074"/>
      <point x="369.694" y="490.295"/>
      <point x="389.499" y="514.502" type="curve" smooth="yes"/>
      <point x="392.499" y="518.169"/>
      <point x="395.332" y="522.002"/>
      <point x="397.999" y="526.002" type="curve" smooth="yes"/>
      <point x="410.452" y="537.417"/>
      <point x="428.4" y="543.88"/>
      <point x="448.999" y="548.002" type="curve" smooth="yes"/>
      <point x="450.999" y="548.669"/>
      <point x="453.166" y="549.002"/>
      <point x="455.499" y="549.002" type="curve" smooth="yes"/>
    </contour>
    <contour>
      <point x="365.996" y="260.991" type="curve"/>
      <point x="380.405" y="262.302"/>
      <point x="396.249" y="260.993"/>
      <point x="410.996" y="260.993" type="curve"/>
      <point x="410.996" y="287.993" type="line" smooth="yes"/>
      <point x="410.329" y="296.66"/>
      <point x="409.996" y="305.66"/>
      <point x="409.996" y="314.993" type="curve"/>
      <point x="394.552" y="297.345"/>
      <point x="381.113" y="279.134"/>
    </contour>
  </outline>
</glyph>
<glyph name="Ccedilla" format="2">
  <advance width="445"/>
  <unicode hex="00C7"/>
  <outline>
    <contour>
      <point x="156.438" y="10" type="curve" smooth="yes"/>
      <point x="157" y="10"/>
      <point x="145.585" y="-50.9814"/>
      <point x="211.999" y="-54" type="curve" smooth="yes"/>
      <point x="233.999" y="-55"/>
      <point x="225.999" y="-72"/>
      <point x="225.999" y="-72" type="curve"/>
      <point x="225.999" y="-72"/>
      <point x="197.999" y="-62"/>
      <point x="170.999" y="-64" type="curve" smooth="yes"/>
      <point x="143.999" y="-66"/>
      <point x="117.999" y="-74"/>
      <point x="117.999" y="-94" type="curve" smooth="yes"/>
      <point x="117.999" y="-114"/>
      <point x="147.999" y="-132"/>
      <point x="221.999" y="-132" type="curve" smooth="yes"/>
      <point x="295.999" y="-132"/>
      <point x="345.999" y="-120"/>
      <point x="343.999" y="-60" type="curve" smooth="yes"/>
      <point x="341.999" y="0"/>
      <point x="270.999" y="-8"/>
      <point x="270.999" y="-8" type="curve" smooth="yes"/>
      <point x="270.999" y="-4"/>
      <point x="265.725" y="1.81152"/>
      <point x="269.999" y="2.05371" type="curve" smooth="yes"/>
      <point x="409.999" y="10"/>
      <point x="422.999" y="129"/>
      <point x="422.999" y="129" type="curve" smooth="yes"/>
      <point x="422.999" y="130"/>
      <point x="437.999" y="192"/>
      <point x="348.999" y="194" type="curve" smooth="yes"/>
      <point x="259.999" y="196"/>
      <point x="274.999" y="143"/>
      <point x="274.999" y="143" type="curve"/>
      <point x="274.999" y="143"/>
      <point x="272.999" y="79"/>
      <point x="237.999" y="81" type="curve" smooth="yes"/>
      <point x="202.999" y="83"/>
      <point x="198.999" y="142"/>
      <point x="198.999" y="142" type="curve"/>
      <point x="198.999" y="142"/>
      <point x="183.999" y="366"/>
      <point x="194.999" y="444" type="curve" smooth="yes"/>
      <point x="205.999" y="522"/>
      <point x="233.999" y="482"/>
      <point x="233.999" y="462" type="curve" smooth="yes"/>
      <point x="233.999" y="442"/>
      <point x="248.991" y="409"/>
      <point x="311.999" y="409" type="curve" smooth="yes"/>
      <point x="325.999" y="409"/>
      <point x="422.999" y="413"/>
      <point x="380.999" y="485" type="curve" smooth="yes"/>
      <point x="338.999" y="557"/>
      <point x="265.999" y="580"/>
      <point x="200.999" y="576" type="curve" smooth="yes"/>
      <point x="135.999" y="572"/>
      <point x="26.999" y="548"/>
      <point x="23.999" y="408" type="curve" smooth="yes"/>
      <point x="21.3438" y="284.074"/>
      <point x="-11.125" y="44"/>
    </contour>
  </outline>
</glyph>
<glyph name="Egrave" format="2">
  <advance width="457"/>
  <unicode hex="00C8"/>
  <outline>
    <contour>
      <point x="22" y="476.385" type="curve"/>
      <point x="22" y="476.385"/>
      <point x="0" y="530.01"/>
      <point x="86" y="536.596" type="curve" smooth="yes"/>
      <point x="172" y="543.182"/>
      <point x="322" y="548.826"/>
      <point x="322" y="548.826" type="curve"/>
      <point x="322" y="548.826"/>
      <point x="412" y="551.647"/>
      <point x="419" y="506.489" type="curve" smooth="yes"/>
      <point x="426" y="461.331"/>
      <point x="352" y="460.391"/>
      <point x="352" y="460.391" type="curve"/>
      <point x="192" y="451.923" type="line"/>
      <point x="192" y="451.923"/>
      <point x="204" y="406.765"/>
      <point x="206" y="385.126" type="curve" smooth="yes"/>
      <point x="208" y="363.488"/>
      <point x="211" y="316.448"/>
      <point x="211" y="316.448" type="curve"/>
      <point x="285" y="316.448" type="line"/>
      <point x="285" y="316.448"/>
      <point x="357" y="316.448"/>
      <point x="359" y="282.579" type="curve" smooth="yes"/>
      <point x="361" y="248.711"/>
      <point x="303" y="244.006"/>
      <point x="296" y="243.066" type="curve" smooth="yes"/>
      <point x="289" y="242.125"/>
      <point x="212" y="242.125"/>
      <point x="212" y="242.125" type="curve"/>
      <point x="212" y="242.125"/>
      <point x="215" y="191.321"/>
      <point x="214" y="165.92" type="curve" smooth="yes"/>
      <point x="213" y="140.519"/>
      <point x="210" y="93.4785"/>
      <point x="210" y="93.4785" type="curve"/>
      <point x="345" y="98.1826" type="line"/>
      <point x="345" y="98.1826"/>
      <point x="432" y="105.709"/>
      <point x="436" y="59.6094" type="curve" smooth="yes"/>
      <point x="440" y="13.5107"/>
      <point x="357" y="9.74707"/>
      <point x="357" y="9.74707" type="curve"/>
      <point x="141" y="-0.601562" type="line"/>
      <point x="141" y="-0.601562"/>
      <point x="38" y="-10.0098"/>
      <point x="41" y="49.2617" type="curve" smooth="yes"/>
      <point x="44" y="108.531"/>
      <point x="55" y="285.401"/>
    </contour>
    <contour>
      <point x="119" y="597" type="curve" smooth="yes"/>
      <point x="98.542" y="632.339"/>
      <point x="77.4141" y="668.733"/>
      <point x="55.998" y="703.001" type="curve" smooth="yes"/>
      <point x="38.3066" y="731.308"/>
      <point x="87.7529" y="745.126"/>
      <point x="110.998" y="748.999" type="curve" smooth="yes"/>
      <point x="147.325" y="753.687"/>
      <point x="191.675" y="745.986"/>
      <point x="206.999" y="723" type="curve" smooth="yes"/>
      <point x="250.999" y="647" type="line" smooth="yes"/>
      <point x="257.637" y="637.706"/>
      <point x="262.362" y="626.294"/>
      <point x="269" y="617" type="curve" smooth="yes"/>
      <point x="281.488" y="597.018"/>
      <point x="253.57" y="580.75"/>
      <point x="238.999" y="576.501" type="curve" smooth="yes"/>
      <point x="214.585" y="569.381"/>
      <point x="180.369" y="565.94"/>
      <point x="155" y="575" type="curve" smooth="yes"/>
      <point x="141.376" y="579.087"/>
      <point x="125.441" y="585.404"/>
    </contour>
  </outline>
</glyph>
<glyph name="Igrave" format="2">
  <advance width="223"/>
  <unicode hex="00CC"/>
  <outline>
    <contour>
      <point x="122" y="584" type="curve"/>
      <point x="122" y="584"/>
      <point x="54" y="581"/>
      <point x="32" y="618" type="curve" smooth="yes"/>
      <point x="10" y="655"/>
      <point x="-26" y="714"/>
      <point x="-26" y="714" type="curve"/>
      <point x="-26" y="714"/>
      <point x="-48" y="743"/>
      <point x="10" y="760" type="curve" smooth="yes"/>
      <point x="68" y="777"/>
      <point x="113" y="757"/>
      <point x="122" y="742" type="curve" smooth="yes"/>
      <point x="131" y="727"/>
      <point x="186" y="634"/>
      <point x="186" y="634" type="curve"/>
      <point x="186" y="634"/>
      <point x="216.005" y="584"/>
    </contour>
    <contour>
      <point x="32" y="45.8125" type="curve"/>
      <point x="32" y="45.8125"/>
      <point x="27" y="-2.66797"/>
      <point x="115" y="-2.66797" type="curve" smooth="yes"/>
      <point x="203" y="-2.66797"/>
      <point x="195" y="61.9727"/>
      <point x="195" y="61.9727" type="curve"/>
      <point x="195" y="61.9727"/>
      <point x="183" y="259.697"/>
      <point x="198" y="448.867" type="curve" smooth="yes"/>
      <point x="200.967" y="486.286"/>
      <point x="205" y="504.953"/>
      <point x="187.54" y="530.619" type="curve" smooth="yes"/>
      <point x="175" y="548.681"/>
      <point x="127" y="550.581"/>
      <point x="127" y="550.581" type="curve"/>
      <point x="127" y="550.581"/>
      <point x="44" y="554.384"/>
      <point x="36" y="493.545" type="curve" smooth="yes"/>
      <point x="28" y="432.707"/>
      <point x="22.5791" y="153.273"/>
    </contour>
  </outline>
</glyph>
<glyph name="Eth" format="2">
  <advance width="471"/>
  <unicode hex="00D0"/>
  <outline>
    <contour>
      <point x="192.851" y="261.264" type="curve"/>
      <point x="212" y="85.001" type="line"/>
      <point x="212" y="85.001"/>
      <point x="304" y="76.001"/>
      <point x="292" y="284.001" type="curve" smooth="yes"/>
      <point x="280" y="492.001"/>
      <point x="221" y="498.001"/>
      <point x="168" y="490.001" type="curve"/>
      <point x="185.245" y="331.265" type="line"/>
      <point x="193.217" y="332.344"/>
      <point x="198" y="333"/>
      <point x="198" y="333" type="curve"/>
      <point x="198" y="333"/>
      <point x="223" y="333"/>
      <point x="227" y="304" type="curve" smooth="yes"/>
      <point x="230.28" y="280.22"/>
      <point x="215.405" y="266.525"/>
    </contour>
    <contour>
      <point x="47.582" y="244.047" type="curve"/>
      <point x="40.6875" y="244.401"/>
      <point x="11.001" y="247.47"/>
      <point x="11.001" y="274.001" type="curve"/>
      <point x="11.001" y="274.001"/>
      <point x="2.86621" y="305.635"/>
      <point x="42.4502" y="313.05" type="curve"/>
      <point x="36.7227" y="389.608"/>
      <point x="31.9941" y="450.546"/>
      <point x="30" y="466.001" type="curve" smooth="yes"/>
      <point x="26" y="497.001"/>
      <point x="38" y="506.001"/>
      <point x="38" y="506.001" type="curve"/>
      <point x="38" y="506.001"/>
      <point x="24" y="518.001"/>
      <point x="24" y="530.001" type="curve" smooth="yes"/>
      <point x="24" y="573.187"/>
      <point x="152" y="580.001"/>
      <point x="152" y="580.001" type="curve"/>
      <point x="152" y="580.001"/>
      <point x="426" y="619.001"/>
      <point x="446" y="332.001" type="curve" smooth="yes"/>
      <point x="469.755" y="-8.88086"/>
      <point x="236" y="0.000976562"/>
      <point x="142" y="0.000976562" type="curve" smooth="yes"/>
      <point x="48" y="0.000976562"/>
      <point x="61" y="65.001"/>
      <point x="61" y="65.001" type="curve"/>
      <point x="56.6982" y="120.93"/>
      <point x="52.0107" y="184.313"/>
    </contour>
  </outline>
</glyph>
<glyph name="Oacute" format="2">
  <advance width="475"/>
  <unicode hex="00D3"/>
  <outline>
    <contour>
      <point x="178" y="295.33" type="curve" smooth="yes"/>
      <point x="178" y="178.08"/>
      <point x="205" y="83.1074"/>
      <point x="239" y="83.1074" type="curve" smooth="yes"/>
      <point x="273" y="83.1074"/>
      <point x="300" y="178.08"/>
      <point x="300" y="295.33" type="curve" smooth="yes"/>
      <point x="300" y="412.58"/>
      <point x="273" y="507.553"/>
      <point x="239" y="507.553" type="curve" smooth="yes"/>
      <point x="205" y="507.553"/>
      <point x="178" y="412.58"/>
    </contour>
    <contour>
      <point x="24.5361" y="290.95" type="curve" smooth="yes"/>
      <point x="24.5361" y="451.888"/>
      <point x="119.004" y="583.213"/>
      <point x="234.728" y="583.213" type="curve" smooth="yes"/>
      <point x="350.45" y="583.213"/>
      <point x="449.919" y="451.888"/>
      <point x="449.919" y="290.95" type="curve" smooth="yes"/>
      <point x="449.919" y="130.013"/>
      <point x="350.45" y="-1.3125"/>
      <point x="234.728" y="-1.3125" type="curve" smooth="yes"/>
      <point x="119.004" y="-1.3125"/>
      <point x="24.5361" y="130.013"/>
    </contour>
    <contour>
      <point x="238" y="604" type="curve"/>
      <point x="238" y="604"/>
      <point x="306" y="601"/>
      <point x="328" y="638" type="curve" smooth="yes"/>
      <point x="350" y="675"/>
      <point x="386" y="734"/>
      <point x="386" y="734" type="curve"/>
      <point x="386" y="734"/>
      <point x="408" y="763"/>
      <point x="350" y="780" type="curve" smooth="yes"/>
      <point x="292" y="797"/>
      <point x="247" y="777"/>
      <point x="238" y="762" type="curve" smooth="yes"/>
      <point x="229" y="747"/>
      <point x="174" y="654"/>
      <point x="174" y="654" type="curve"/>
      <point x="174" y="654"/>
      <point x="143.995" y="604"/>
    </contour>
  </outline>
</glyph>
<glyph name="Ocircumflex" format="2">
  <advance width="475"/>
  <unicode hex="00D4"/>
  <outline>
    <contour>
      <point x="90" y="578" type="curve"/>
      <point x="90" y="578"/>
      <point x="156" y="572"/>
      <point x="176" y="604" type="curve" smooth="yes"/>
      <point x="196" y="636"/>
      <point x="206" y="656"/>
      <point x="206" y="656" type="curve"/>
      <point x="247" y="620" type="line"/>
      <point x="247" y="620"/>
      <point x="266" y="599"/>
      <point x="326" y="604" type="curve" smooth="yes"/>
      <point x="386" y="609"/>
      <point x="402" y="642"/>
      <point x="383" y="658" type="curve" smooth="yes"/>
      <point x="364" y="674"/>
      <point x="245" y="774"/>
      <point x="245" y="774" type="curve"/>
      <point x="245" y="774"/>
      <point x="224" y="792"/>
      <point x="182" y="789" type="curve" smooth="yes"/>
      <point x="140" y="786"/>
      <point x="120" y="778"/>
      <point x="110" y="762" type="curve" smooth="yes"/>
      <point x="100" y="746"/>
      <point x="26" y="626"/>
      <point x="25" y="626" type="curve" smooth="yes"/>
      <point x="24" y="626"/>
      <point x="-3.05957" y="577"/>
    </contour>
    <contour>
      <point x="178" y="295.33" type="curve" smooth="yes"/>
      <point x="178" y="178.08"/>
      <point x="205" y="83.1074"/>
      <point x="239" y="83.1074" type="curve" smooth="yes"/>
      <point x="273" y="83.1074"/>
      <point x="300" y="178.08"/>
      <point x="300" y="295.33" type="curve" smooth="yes"/>
      <point x="300" y="412.58"/>
      <point x="273" y="507.553"/>
      <point x="239" y="507.553" type="curve" smooth="yes"/>
      <point x="205" y="507.553"/>
      <point x="178" y="412.58"/>
    </contour>
    <contour>
      <point x="24.5361" y="290.95" type="curve" smooth="yes"/>
      <point x="24.5361" y="451.888"/>
      <point x="119.004" y="583.213"/>
      <point x="234.728" y="583.213" type="curve" smooth="yes"/>
      <point x="350.45" y="583.213"/>
      <point x="449.919" y="451.888"/>
      <point x="449.919" y="290.95" type="curve" smooth="yes"/>
      <point x="449.919" y="130.013"/>
      <point x="350.45" y="-1.3125"/>
      <point x="234.728" y="-1.3125" type="curve" smooth="yes"/>
      <point x="119.004" y="-1.3125"/>
      <point x="24.5361" y="130.013"/>
    </contour>
  </outline>
</glyph>
<glyph name="Otilde" format="2">
  <advance width="475"/>
  <unicode hex="00D5"/>
  <outline>
    <contour>
      <point x="402.45" y="710" type="curve"/>
      <point x="402.45" y="708"/>
      <point x="425.2" y="770"/>
      <point x="342" y="768" type="curve" smooth="yes"/>
      <point x="258.8" y="766"/>
      <point x="261.4" y="723"/>
      <point x="261.4" y="723" type="curve"/>
      <point x="111.25" y="792"/>
      <point x="71.5996" y="658"/>
      <point x="71.5996" y="658" type="curve"/>
      <point x="63.7998" y="632"/>
      <point x="76.7998" y="598"/>
      <point x="137.25" y="595" type="curve" smooth="yes"/>
      <point x="197.7" y="592"/>
      <point x="210.7" y="630"/>
      <point x="210.7" y="630" type="curve"/>
      <point x="210.7" y="630"/>
      <point x="227.6" y="611"/>
      <point x="286.75" y="615" type="curve" smooth="yes"/>
      <point x="345.9" y="619"/>
      <point x="380.35" y="654"/>
    </contour>
    <contour>
      <point x="178" y="295.33" type="curve" smooth="yes"/>
      <point x="178" y="178.08"/>
      <point x="205" y="83.1074"/>
      <point x="239" y="83.1074" type="curve" smooth="yes"/>
      <point x="273" y="83.1074"/>
      <point x="300" y="178.08"/>
      <point x="300" y="295.33" type="curve" smooth="yes"/>
      <point x="300" y="412.58"/>
      <point x="273" y="507.553"/>
      <point x="239" y="507.553" type="curve" smooth="yes"/>
      <point x="205" y="507.553"/>
      <point x="178" y="412.58"/>
    </contour>
    <contour>
      <point x="24.5361" y="290.95" type="curve" smooth="yes"/>
      <point x="24.5361" y="451.888"/>
      <point x="119.004" y="583.213"/>
      <point x="234.728" y="583.213" type="curve" smooth="yes"/>
      <point x="350.45" y="583.213"/>
      <point x="449.919" y="451.888"/>
      <point x="449.919" y="290.95" type="curve" smooth="yes"/>
      <point x="449.919" y="130.013"/>
      <point x="350.45" y="-1.3125"/>
      <point x="234.728" y="-1.3125" type="curve" smooth="yes"/>
      <point x="119.004" y="-1.3125"/>
      <point x="24.5361" y="130.013"/>
    </contour>
  </outline>
</glyph>
<glyph name="Odieresis" format="2">
  <advance width="475"/>
  <unicode hex="00D6"/>
  <outline>
    <contour>
      <point x="178" y="295.33" type="curve" smooth="yes"/>
      <point x="178" y="178.08"/>
      <point x="205" y="83.1074"/>
      <point x="239" y="83.1074" type="curve" smooth="yes"/>
      <point x="273" y="83.1074"/>
      <point x="300" y="178.08"/>
      <point x="300" y="295.33" type="curve" smooth="yes"/>
      <point x="300" y="412.58"/>
      <point x="273" y="507.553"/>
      <point x="239" y="507.553" type="curve" smooth="yes"/>
      <point x="205" y="507.553"/>
      <point x="178" y="412.58"/>
    </contour>
    <contour>
      <point x="24.5361" y="290.95" type="curve" smooth="yes"/>
      <point x="24.5361" y="451.888"/>
      <point x="119.004" y="583.213"/>
      <point x="234.728" y="583.213" type="curve" smooth="yes"/>
      <point x="350.45" y="583.213"/>
      <point x="449.919" y="451.888"/>
      <point x="449.919" y="290.95" type="curve" smooth="yes"/>
      <point x="449.919" y="130.013"/>
      <point x="350.45" y="-1.3125"/>
      <point x="234.728" y="-1.3125" type="curve" smooth="yes"/>
      <point x="119.004" y="-1.3125"/>
      <point x="24.5361" y="130.013"/>
    </contour>
    <contour>
      <point x="213.5" y="615" type="curve" smooth="yes"/>
      <point x="185.7" y="581.641"/>
      <point x="100.171" y="569.378"/>
      <point x="61.5" y="603.498" type="curve" smooth="yes"/>
      <point x="50.5771" y="613.136"/>
      <point x="48.2842" y="629.74"/>
      <point x="58.499" y="641.998" type="curve" smooth="yes"/>
      <point x="86.4785" y="675.573"/>
      <point x="170.763" y="691.394"/>
      <point x="210.499" y="653.999" type="curve" smooth="yes"/>
      <point x="221.248" y="643.884"/>
      <point x="223.873" y="627.447"/>
    </contour>
    <contour>
      <point x="398.499" y="623.997" type="curve" smooth="yes"/>
      <point x="370.313" y="590.175"/>
      <point x="285.682" y="579.143"/>
      <point x="246.998" y="612.995" type="curve" smooth="yes"/>
      <point x="236.368" y="622.298"/>
      <point x="234.617" y="639.138"/>
      <point x="244.499" y="650.995" type="curve" smooth="yes"/>
      <point x="271.641" y="683.565"/>
      <point x="357.467" y="701.527"/>
      <point x="395.999" y="662.996" type="curve" smooth="yes"/>
      <point x="406.271" y="652.725"/>
      <point x="408.711" y="636.251"/>
    </contour>
  </outline>
</glyph>
<glyph name="Ugrave" format="2">
  <advance width="468"/>
  <unicode hex="00D9"/>
  <outline>
    <contour>
      <point x="233" y="596" type="curve"/>
      <point x="233" y="596"/>
      <point x="165" y="593"/>
      <point x="143" y="630" type="curve" smooth="yes"/>
      <point x="121" y="667"/>
      <point x="85" y="726"/>
      <point x="85" y="726" type="curve"/>
      <point x="85" y="726"/>
      <point x="63" y="755"/>
      <point x="121" y="772" type="curve" smooth="yes"/>
      <point x="179" y="789"/>
      <point x="224" y="769"/>
      <point x="233" y="754" type="curve" smooth="yes"/>
      <point x="242" y="739"/>
      <point x="297" y="646"/>
      <point x="297" y="646" type="curve"/>
      <point x="297" y="646"/>
      <point x="327.005" y="596"/>
    </contour>
    <contour>
      <point x="112" y="578" type="curve"/>
      <point x="112" y="578"/>
      <point x="31" y="584"/>
      <point x="26" y="514" type="curve" smooth="yes"/>
      <point x="21" y="444"/>
      <point x="-31" y="0"/>
      <point x="246" y="0" type="curve" smooth="yes"/>
      <point x="523" y="0"/>
      <point x="443" y="423"/>
      <point x="443" y="423" type="curve"/>
      <point x="443" y="423"/>
      <point x="444" y="511"/>
      <point x="347" y="504" type="curve" smooth="yes"/>
      <point x="250" y="497"/>
      <point x="273" y="428"/>
      <point x="275" y="417" type="curve" smooth="yes"/>
      <point x="277" y="406"/>
      <point x="317" y="90"/>
      <point x="247" y="87" type="curve" smooth="yes"/>
      <point x="177" y="84"/>
      <point x="187" y="396"/>
      <point x="193" y="488" type="curve" smooth="yes"/>
      <point x="199" y="580"/>
      <point x="112" y="578"/>
    </contour>
  </outline>
</glyph>
<glyph name="Uacute" format="2">
  <advance width="467"/>
  <unicode hex="00DA"/>
  <outline>
    <contour>
      <point x="112" y="578" type="curve"/>
      <point x="112" y="578"/>
      <point x="31" y="584"/>
      <point x="26" y="514" type="curve" smooth="yes"/>
      <point x="21" y="444"/>
      <point x="-31" y="0"/>
      <point x="246" y="0" type="curve" smooth="yes"/>
      <point x="523" y="0"/>
      <point x="443" y="423"/>
      <point x="443" y="423" type="curve"/>
      <point x="443" y="423"/>
      <point x="444" y="511"/>
      <point x="347" y="504" type="curve" smooth="yes"/>
      <point x="250" y="497"/>
      <point x="273" y="428"/>
      <point x="275" y="417" type="curve" smooth="yes"/>
      <point x="277" y="406"/>
      <point x="317" y="90"/>
      <point x="247" y="87" type="curve" smooth="yes"/>
      <point x="177" y="84"/>
      <point x="187" y="396"/>
      <point x="193" y="488" type="curve" smooth="yes"/>
      <point x="199" y="580"/>
      <point x="112" y="578"/>
    </contour>
    <contour>
      <point x="218" y="604" type="curve"/>
      <point x="218" y="604"/>
      <point x="286" y="601"/>
      <point x="308" y="638" type="curve" smooth="yes"/>
      <point x="330" y="675"/>
      <point x="366" y="734"/>
      <point x="366" y="734" type="curve"/>
      <point x="366" y="734"/>
      <point x="388" y="763"/>
      <point x="330" y="780" type="curve" smooth="yes"/>
      <point x="272" y="797"/>
      <point x="227" y="777"/>
      <point x="218" y="762" type="curve" smooth="yes"/>
      <point x="209" y="747"/>
      <point x="154" y="654"/>
      <point x="154" y="654" type="curve"/>
      <point x="154" y="654"/>
      <point x="123.995" y="604"/>
    </contour>
  </outline>
</glyph>
<glyph name="Udieresis" format="2">
  <advance width="468"/>
  <unicode hex="00DC"/>
  <outline>
    <contour>
      <point x="112" y="578" type="curve"/>
      <point x="112" y="578"/>
      <point x="31" y="584"/>
      <point x="26" y="514" type="curve" smooth="yes"/>
      <point x="21" y="444"/>
      <point x="-31" y="0"/>
      <point x="246" y="0" type="curve" smooth="yes"/>
      <point x="523" y="0"/>
      <point x="443" y="423"/>
      <point x="443" y="423" type="curve"/>
      <point x="443" y="423"/>
      <point x="444" y="511"/>
      <point x="347" y="504" type="curve" smooth="yes"/>
      <point x="250" y="497"/>
      <point x="273" y="428"/>
      <point x="275" y="417" type="curve" smooth="yes"/>
      <point x="277" y="406"/>
      <point x="317" y="90"/>
      <point x="247" y="87" type="curve" smooth="yes"/>
      <point x="177" y="84"/>
      <point x="187" y="396"/>
      <point x="193" y="488" type="curve" smooth="yes"/>
      <point x="199" y="580"/>
      <point x="112" y="578"/>
    </contour>
    <contour>
      <point x="223.5" y="628" type="curve" smooth="yes"/>
      <point x="195.7" y="594.641"/>
      <point x="110.171" y="582.378"/>
      <point x="71.5" y="616.498" type="curve" smooth="yes"/>
      <point x="60.5771" y="626.136"/>
      <point x="58.2842" y="642.74"/>
      <point x="68.499" y="654.998" type="curve" smooth="yes"/>
      <point x="96.4785" y="688.573"/>
      <point x="180.763" y="704.394"/>
      <point x="220.499" y="666.999" type="curve" smooth="yes"/>
      <point x="231.248" y="656.884"/>
      <point x="233.873" y="640.447"/>
    </contour>
    <contour>
      <point x="408.499" y="636.997" type="curve" smooth="yes"/>
      <point x="380.313" y="603.175"/>
      <point x="295.682" y="592.143"/>
      <point x="256.998" y="625.995" type="curve" smooth="yes"/>
      <point x="246.368" y="635.298"/>
      <point x="244.617" y="652.138"/>
      <point x="254.499" y="663.995" type="curve" smooth="yes"/>
      <point x="281.641" y="696.565"/>
      <point x="367.467" y="714.527"/>
      <point x="405.999" y="675.996" type="curve" smooth="yes"/>
      <point x="416.271" y="665.725"/>
      <point x="418.711" y="649.251"/>
    </contour>
  </outline>
</glyph>
<glyph name="Yacute" format="2">
  <advance width="485"/>
  <unicode hex="00DD"/>
  <outline>
    <contour>
      <point x="83" y="587" type="curve"/>
      <point x="83" y="587"/>
      <point x="146" y="604"/>
      <point x="181" y="550" type="curve" smooth="yes"/>
      <point x="210.214" y="504.928"/>
      <point x="246" y="410"/>
      <point x="246" y="410" type="curve"/>
      <point x="306" y="556" type="line"/>
      <point x="306" y="556"/>
      <point x="325" y="592"/>
      <point x="387" y="588" type="curve" smooth="yes"/>
      <point x="449" y="584"/>
      <point x="470" y="565"/>
      <point x="454" y="531" type="curve" smooth="yes"/>
      <point x="438" y="497"/>
      <point x="339" y="301"/>
      <point x="339" y="301" type="curve"/>
      <point x="344" y="57" type="line"/>
      <point x="344" y="57"/>
      <point x="359" y="0"/>
      <point x="270" y="0" type="curve" smooth="yes"/>
      <point x="181" y="0"/>
      <point x="175" y="46"/>
      <point x="175" y="60" type="curve" smooth="yes"/>
      <point x="175" y="74"/>
      <point x="172" y="302"/>
      <point x="172" y="302" type="curve"/>
      <point x="39" y="514" type="line"/>
      <point x="39" y="514"/>
      <point x="-11" y="571"/>
    </contour>
    <contour>
      <point x="218" y="614" type="curve"/>
      <point x="218" y="614"/>
      <point x="286" y="611"/>
      <point x="308" y="648" type="curve" smooth="yes"/>
      <point x="330" y="685"/>
      <point x="366" y="744"/>
      <point x="366" y="744" type="curve"/>
      <point x="366" y="744"/>
      <point x="388" y="773"/>
      <point x="330" y="790" type="curve" smooth="yes"/>
      <point x="272" y="807"/>
      <point x="227" y="787"/>
      <point x="218" y="772" type="curve" smooth="yes"/>
      <point x="209" y="757"/>
      <point x="154" y="664"/>
      <point x="154" y="664" type="curve"/>
      <point x="154" y="664"/>
      <point x="123.995" y="614"/>
    </contour>
  </outline>
</glyph>
<glyph name="Thorn" format="2">
  <advance width="357"/>
  <unicode hex="00DE"/>
  <outline>
    <contour>
      <point x="263.999" y="488" type="line" smooth="yes"/>
      <point x="296.217" y="488"/>
      <point x="335" y="480.414"/>
      <point x="335" y="453" type="curve" smooth="yes"/>
      <point x="335" y="142" type="line" smooth="yes"/>
      <point x="333.285" y="126.571"/>
      <point x="324.62" y="119.405"/>
      <point x="310.999" y="116" type="curve" smooth="yes"/>
      <point x="298.332" y="111.333"/>
      <point x="282.999" y="109"/>
      <point x="264.999" y="109" type="curve" smooth="yes"/>
      <point x="147.999" y="109" type="line"/>
      <point x="147.999" y="24" type="line" smooth="yes"/>
      <point x="147.999" y="5.94531"/>
      <point x="107.142" y="1"/>
      <point x="84.499" y="1" type="curve" smooth="yes"/>
      <point x="62.377" y="1"/>
      <point x="21.999" y="6.81738"/>
      <point x="21.999" y="24" type="curve" smooth="yes"/>
      <point x="21.999" y="583" type="line" smooth="yes"/>
      <point x="21.999" y="601.111"/>
      <point x="61.7324" y="606"/>
      <point x="84.499" y="606" type="curve" smooth="yes"/>
      <point x="107.209" y="606"/>
      <point x="147.999" y="601.07"/>
      <point x="147.999" y="583" type="curve" smooth="yes"/>
      <point x="147.999" y="488" type="line"/>
    </contour>
    <contour>
      <point x="209" y="156" type="line"/>
      <point x="209" y="441" type="line"/>
      <point x="148" y="441" type="line"/>
      <point x="148" y="156" type="line"/>
    </contour>
  </outline>
</glyph>
<glyph name="germandbls" format="2">
  <advance width="595"/>
  <unicode hex="00DF"/>
  <outline>
    <contour>
      <point x="124" y="30" type="curve"/>
      <point x="124" y="30"/>
      <point x="204" y="31"/>
      <point x="205" y="81" type="curve" smooth="yes"/>
      <point x="206" y="131"/>
      <point x="191" y="486"/>
      <point x="191" y="486" type="curve"/>
      <point x="191" y="486"/>
      <point x="195" y="554"/>
      <point x="226" y="556" type="curve" smooth="yes"/>
      <point x="257" y="558"/>
      <point x="271" y="512"/>
      <point x="271" y="498" type="curve" smooth="yes"/>
      <point x="271" y="484"/>
      <point x="236" y="427"/>
      <point x="240" y="372" type="curve" smooth="yes"/>
      <point x="244" y="317"/>
      <point x="290" y="267"/>
      <point x="339" y="267" type="curve" smooth="yes"/>
      <point x="388" y="267"/>
      <point x="404" y="235"/>
      <point x="404" y="192" type="curve" smooth="yes"/>
      <point x="404" y="149"/>
      <point x="408" y="98"/>
      <point x="352" y="93" type="curve" smooth="yes"/>
      <point x="296" y="88"/>
      <point x="237" y="96"/>
      <point x="237" y="48" type="curve" smooth="yes"/>
      <point x="237" y="0"/>
      <point x="322" y="0"/>
      <point x="322" y="0" type="curve"/>
      <point x="322" y="0"/>
      <point x="576" y="-22"/>
      <point x="573" y="159" type="curve" smooth="yes"/>
      <point x="570" y="340"/>
      <point x="432" y="353"/>
      <point x="432" y="353" type="curve"/>
      <point x="432" y="353"/>
      <point x="405" y="349"/>
      <point x="404" y="386" type="curve" smooth="yes"/>
      <point x="403" y="423"/>
      <point x="444" y="442"/>
      <point x="441" y="507" type="curve" smooth="yes"/>
      <point x="438" y="572"/>
      <point x="351" y="651"/>
      <point x="221" y="648" type="curve" smooth="yes"/>
      <point x="91" y="645"/>
      <point x="19" y="579"/>
      <point x="21" y="462" type="curve" smooth="yes"/>
      <point x="23" y="345"/>
      <point x="38" y="93"/>
      <point x="38" y="93" type="curve"/>
      <point x="38" y="93"/>
      <point x="33.3145" y="22.4424"/>
    </contour>
  </outline>
</glyph>
<glyph name="agrave" format="2">
  <advance width="496"/>
  <unicode hex="00E0"/>
  <outline>
    <contour>
      <point x="252" y="434" type="curve"/>
      <point x="252" y="434"/>
      <point x="184" y="431"/>
      <point x="162" y="468" type="curve" smooth="yes"/>
      <point x="140" y="505"/>
      <point x="104" y="564"/>
      <point x="104" y="564" type="curve"/>
      <point x="104" y="564"/>
      <point x="82" y="593"/>
      <point x="140" y="610" type="curve" smooth="yes"/>
      <point x="198" y="627"/>
      <point x="243" y="607"/>
      <point x="252" y="592" type="curve" smooth="yes"/>
      <point x="261" y="577"/>
      <point x="316" y="484"/>
      <point x="316" y="484" type="curve"/>
      <point x="316" y="484"/>
      <point x="346.005" y="434"/>
    </contour>
    <contour>
      <point x="300" y="309.68" type="curve"/>
      <point x="316" y="147.28" type="line"/>
      <point x="316" y="147.28"/>
      <point x="293" y="78.8398"/>
      <point x="263" y="78.8398" type="curve" smooth="yes"/>
      <point x="233" y="78.8398"/>
      <point x="188" y="129.88"/>
      <point x="190" y="212.24" type="curve" smooth="yes"/>
      <point x="192" y="294.6"/>
      <point x="233" y="342.16"/>
      <point x="233" y="344.48" type="curve" smooth="yes"/>
      <point x="233" y="346.8"/>
      <point x="290" y="323.6"/>
    </contour>
    <contour>
      <point x="225" y="413" type="curve"/>
      <point x="225" y="413"/>
      <point x="27" y="413"/>
      <point x="23" y="215" type="curve" smooth="yes"/>
      <point x="19" y="17"/>
      <point x="246" y="0"/>
      <point x="246" y="0" type="curve"/>
      <point x="246" y="0"/>
      <point x="314.314" y="-2.73828"/>
      <point x="332" y="12" type="curve"/>
      <point x="332" y="12"/>
      <point x="335" y="-4"/>
      <point x="393" y="0" type="curve" smooth="yes"/>
      <point x="471.812" y="5.43555"/>
      <point x="473" y="26"/>
      <point x="473" y="82" type="curve" smooth="yes"/>
      <point x="473" y="138"/>
      <point x="444" y="329"/>
      <point x="444" y="329" type="curve"/>
      <point x="444" y="329"/>
      <point x="438" y="348"/>
      <point x="423" y="349" type="curve" smooth="yes"/>
      <point x="408" y="350"/>
      <point x="358" y="415"/>
    </contour>
  </outline>
</glyph>
<glyph name="atilde" format="2">
  <advance width="496"/>
  <unicode hex="00E3"/>
  <outline>
    <contour>
      <point x="413.45" y="549" type="curve"/>
      <point x="413.45" y="547"/>
      <point x="436.2" y="609"/>
      <point x="353" y="607" type="curve" smooth="yes"/>
      <point x="269.8" y="605"/>
      <point x="272.4" y="562"/>
      <point x="272.4" y="562" type="curve"/>
      <point x="122.25" y="631"/>
      <point x="82.5996" y="497"/>
      <point x="82.5996" y="497" type="curve"/>
      <point x="74.7998" y="471"/>
      <point x="87.7998" y="437"/>
      <point x="148.25" y="434" type="curve" smooth="yes"/>
      <point x="208.7" y="431"/>
      <point x="221.7" y="469"/>
      <point x="221.7" y="469" type="curve"/>
      <point x="221.7" y="469"/>
      <point x="238.6" y="450"/>
      <point x="297.75" y="454" type="curve" smooth="yes"/>
      <point x="356.9" y="458"/>
      <point x="391.35" y="493"/>
    </contour>
    <contour>
      <point x="300" y="309.68" type="curve"/>
      <point x="316" y="147.28" type="line"/>
      <point x="316" y="147.28"/>
      <point x="293" y="78.8398"/>
      <point x="263" y="78.8398" type="curve" smooth="yes"/>
      <point x="233" y="78.8398"/>
      <point x="188" y="129.88"/>
      <point x="190" y="212.24" type="curve" smooth="yes"/>
      <point x="192" y="294.6"/>
      <point x="233" y="342.16"/>
      <point x="233" y="344.48" type="curve" smooth="yes"/>
      <point x="233" y="346.8"/>
      <point x="290" y="323.6"/>
    </contour>
    <contour>
      <point x="225" y="413" type="curve"/>
      <point x="225" y="413"/>
      <point x="27" y="413"/>
      <point x="23" y="215" type="curve" smooth="yes"/>
      <point x="19" y="17"/>
      <point x="246" y="0"/>
      <point x="246" y="0" type="curve"/>
      <point x="246" y="0"/>
      <point x="314.314" y="-2.73828"/>
      <point x="332" y="12" type="curve"/>
      <point x="332" y="12"/>
      <point x="335" y="-4"/>
      <point x="393" y="0" type="curve" smooth="yes"/>
      <point x="471.812" y="5.43555"/>
      <point x="473" y="26"/>
      <point x="473" y="82" type="curve" smooth="yes"/>
      <point x="473" y="138"/>
      <point x="444" y="329"/>
      <point x="444" y="329" type="curve"/>
      <point x="444" y="329"/>
      <point x="438" y="348"/>
      <point x="423" y="349" type="curve" smooth="yes"/>
      <point x="408" y="350"/>
      <point x="358" y="415"/>
    </contour>
  </outline>
</glyph>
<glyph name="adieresis" format="2">
  <advance width="497"/>
  <unicode hex="00E4"/>
  <outline>
    <contour>
      <point x="300" y="309.68" type="curve"/>
      <point x="316" y="147.28" type="line"/>
      <point x="316" y="147.28"/>
      <point x="293" y="78.8398"/>
      <point x="263" y="78.8398" type="curve" smooth="yes"/>
      <point x="233" y="78.8398"/>
      <point x="188" y="129.88"/>
      <point x="190" y="212.24" type="curve" smooth="yes"/>
      <point x="192" y="294.6"/>
      <point x="233" y="342.16"/>
      <point x="233" y="344.48" type="curve" smooth="yes"/>
      <point x="233" y="346.8"/>
      <point x="290" y="323.6"/>
    </contour>
    <contour>
      <point x="225" y="413" type="curve"/>
      <point x="225" y="413"/>
      <point x="27" y="413"/>
      <point x="23" y="215" type="curve" smooth="yes"/>
      <point x="19" y="17"/>
      <point x="246" y="0"/>
      <point x="246" y="0" type="curve"/>
      <point x="246" y="0"/>
      <point x="314.314" y="-2.73828"/>
      <point x="332" y="12" type="curve"/>
      <point x="332" y="12"/>
      <point x="335" y="-4"/>
      <point x="393" y="0" type="curve" smooth="yes"/>
      <point x="471.812" y="5.43555"/>
      <point x="473" y="26"/>
      <point x="473" y="82" type="curve" smooth="yes"/>
      <point x="473" y="138"/>
      <point x="444" y="329"/>
      <point x="444" y="329" type="curve"/>
      <point x="444" y="329"/>
      <point x="438" y="348"/>
      <point x="423" y="349" type="curve" smooth="yes"/>
      <point x="408" y="350"/>
      <point x="358" y="415"/>
    </contour>
    <contour>
      <point x="223.5" y="453" type="curve" smooth="yes"/>
      <point x="195.7" y="419.641"/>
      <point x="110.171" y="407.378"/>
      <point x="71.5" y="441.498" type="curve" smooth="yes"/>
      <point x="60.5771" y="451.136"/>
      <point x="58.2842" y="467.74"/>
      <point x="68.499" y="479.998" type="curve" smooth="yes"/>
      <point x="96.4785" y="513.573"/>
      <point x="180.763" y="529.394"/>
      <point x="220.499" y="491.999" type="curve" smooth="yes"/>
      <point x="231.248" y="481.884"/>
      <point x="233.873" y="465.447"/>
    </contour>
    <contour>
      <point x="408.499" y="461.997" type="curve" smooth="yes"/>
      <point x="380.313" y="428.175"/>
      <point x="295.682" y="417.143"/>
      <point x="256.998" y="450.995" type="curve" smooth="yes"/>
      <point x="246.368" y="460.298"/>
      <point x="244.617" y="477.138"/>
      <point x="254.499" y="488.995" type="curve" smooth="yes"/>
      <point x="281.641" y="521.565"/>
      <point x="367.467" y="539.527"/>
      <point x="405.999" y="500.996" type="curve" smooth="yes"/>
      <point x="416.271" y="490.725"/>
      <point x="418.711" y="474.251"/>
    </contour>
  </outline>
</glyph>
